<svg width="797" height="120" viewBox="0 0 797 120" fill="none" xmlns="http://www.w3.org/2000/svg">
<mask id="path-1-outside-1_16_49" maskUnits="userSpaceOnUse" x="0" y="17.1739" width="399" height="85" fill="black">
<rect fill="white" y="17.1739" width="399" height="85"/>
<path d="M68.3949 47.0972H57.3153C56.8892 44.7298 56.0961 42.6464 54.9361 40.8472C53.776 39.0479 52.3556 37.521 50.6747 36.2662C48.9938 35.0115 47.1117 34.0645 45.0284 33.4253C42.9688 32.7861 40.7789 32.4665 38.4588 32.4665C34.2685 32.4665 30.5161 33.52 27.2017 35.627C23.911 37.734 21.3068 40.8235 19.3892 44.8955C17.4953 48.9674 16.5483 53.939 16.5483 59.8103C16.5483 65.7288 17.4953 70.7241 19.3892 74.796C21.3068 78.868 23.9228 81.9457 27.2372 84.029C30.5516 86.1123 34.2803 87.154 38.4233 87.154C40.7197 87.154 42.8977 86.8462 44.9574 86.2307C47.0407 85.5915 48.9228 84.6564 50.6037 83.4253C52.2846 82.1942 53.705 80.6909 54.8651 78.9154C56.0488 77.1161 56.8655 75.0565 57.3153 72.7364L68.3949 72.7719C67.803 76.3467 66.6548 79.6374 64.9503 82.6441C63.2694 85.627 61.1032 88.2075 58.4517 90.3855C55.8239 92.5399 52.8172 94.2089 49.4318 95.3926C46.0464 96.5764 42.3532 97.1682 38.3523 97.1682C32.0549 97.1682 26.4441 95.6767 21.5199 92.6938C16.5956 89.6871 12.7131 85.3903 9.87216 79.8032C7.05492 74.216 5.64631 67.5517 5.64631 59.8103C5.64631 52.0451 7.06676 45.3808 9.90767 39.8174C12.7486 34.2302 16.6312 29.9452 21.5554 26.9622C26.4796 23.9556 32.0786 22.4523 38.3523 22.4523C42.2112 22.4523 45.8097 23.0086 49.1477 24.1213C52.5095 25.2103 55.5279 26.8202 58.2031 28.9509C60.8783 31.0579 63.0919 33.6384 64.8438 36.6924C66.5956 39.7227 67.7794 43.1909 68.3949 47.0972ZM154.7 59.8103C154.7 67.5754 153.279 74.2515 150.439 79.8387C147.598 85.4021 143.703 89.6871 138.755 92.6938C133.831 95.6767 128.232 97.1682 121.958 97.1682C115.661 97.1682 110.038 95.6767 105.091 92.6938C100.166 89.6871 96.2837 85.3903 93.4428 79.8032C90.6019 74.216 89.1815 67.5517 89.1815 59.8103C89.1815 52.0451 90.6019 45.3808 93.4428 39.8174C96.2837 34.2302 100.166 29.9452 105.091 26.9622C110.038 23.9556 115.661 22.4523 121.958 22.4523C128.232 22.4523 133.831 23.9556 138.755 26.9622C143.703 29.9452 147.598 34.2302 150.439 39.8174C153.279 45.3808 154.7 52.0451 154.7 59.8103ZM143.833 59.8103C143.833 53.8917 142.875 48.9083 140.957 44.86C139.063 40.788 136.459 37.7103 133.145 35.627C129.854 33.52 126.125 32.4665 121.958 32.4665C117.768 32.4665 114.028 33.52 110.737 35.627C107.446 37.7103 104.842 40.788 102.924 44.86C101.03 48.9083 100.083 53.8917 100.083 59.8103C100.083 65.7288 101.03 70.7241 102.924 74.796C104.842 78.8443 107.446 81.922 110.737 84.029C114.028 86.1123 117.768 87.154 121.958 87.154C126.125 87.154 129.854 86.1123 133.145 84.029C136.459 81.922 139.063 78.8443 140.957 74.796C142.875 70.7241 143.833 65.7288 143.833 59.8103ZM180.911 96.1739H169.263L195.435 23.4466H208.113L234.284 96.1739H222.637L202.076 36.6568H201.507L180.911 96.1739ZM182.864 67.6938H220.648V76.9267H182.864V67.6938ZM311.774 47.0972H300.694C300.268 44.7298 299.475 42.6464 298.315 40.8472C297.155 39.0479 295.734 37.521 294.054 36.2662C292.373 35.0115 290.491 34.0645 288.407 33.4253C286.348 32.7861 284.158 32.4665 281.838 32.4665C277.647 32.4665 273.895 33.52 270.581 35.627C267.29 37.734 264.686 40.8235 262.768 44.8955C260.874 48.9674 259.927 53.939 259.927 59.8103C259.927 65.7288 260.874 70.7241 262.768 74.796C264.686 78.868 267.302 81.9457 270.616 84.029C273.931 86.1123 277.659 87.154 281.802 87.154C284.099 87.154 286.277 86.8462 288.336 86.2307C290.42 85.5915 292.302 84.6564 293.983 83.4253C295.663 82.1942 297.084 80.6909 298.244 78.9154C299.428 77.1161 300.244 75.0565 300.694 72.7364L311.774 72.7719C311.182 76.3467 310.034 79.6374 308.329 82.6441C306.648 85.627 304.482 88.2075 301.831 90.3855C299.203 92.5399 296.196 94.2089 292.811 95.3926C289.425 96.5764 285.732 97.1682 281.731 97.1682C275.434 97.1682 269.823 95.6767 264.899 92.6938C259.975 89.6871 256.092 85.3903 253.251 79.8032C250.434 74.216 249.025 67.5517 249.025 59.8103C249.025 52.0451 250.446 45.3808 253.287 39.8174C256.127 34.2302 260.01 29.9452 264.934 26.9622C269.859 23.9556 275.458 22.4523 281.731 22.4523C285.59 22.4523 289.189 23.0086 292.527 24.1213C295.888 25.2103 298.907 26.8202 301.582 28.9509C304.257 31.0579 306.471 33.6384 308.223 36.6924C309.975 39.7227 311.158 43.1909 311.774 47.0972ZM334.904 96.1739V23.4466H345.877V55.0517H382.134V23.4466H393.143V96.1739H382.134V64.4622H345.877V96.1739H334.904Z"/>
</mask>
<path d="M68.3949 47.0972V52.0972H74.2445L73.3339 46.3189L68.3949 47.0972ZM57.3153 47.0972L52.3944 47.9829L53.135 52.0972H57.3153V47.0972ZM50.6747 36.2662L53.6657 32.2595L53.6657 32.2594L50.6747 36.2662ZM45.0284 33.4253L43.5464 38.2006L43.5541 38.203L43.5618 38.2054L45.0284 33.4253ZM27.2017 35.627L24.5193 31.4075L24.5124 31.4118L24.5056 31.4162L27.2017 35.627ZM19.3892 44.8955L14.8657 42.7652L14.8606 42.776L14.8556 42.7868L19.3892 44.8955ZM19.3892 74.796L14.8556 76.9047L14.8606 76.9155L14.8657 76.9263L19.3892 74.796ZM27.2372 84.029L24.5764 88.2622L24.5764 88.2622L27.2372 84.029ZM44.9574 86.2307L46.3891 91.0214L46.4066 91.0161L46.424 91.0108L44.9574 86.2307ZM50.6037 83.4253L47.6493 79.3915L50.6037 83.4253ZM54.8651 78.9154L50.688 76.1673L50.6836 76.1739L50.6792 76.1806L54.8651 78.9154ZM57.3153 72.7364L57.3314 67.7364L53.1942 67.7232L52.4067 71.7847L57.3153 72.7364ZM68.3949 72.7719L73.3277 73.5886L74.2876 67.7908L68.4109 67.7719L68.3949 72.7719ZM64.9503 82.6441L60.6007 80.1781L60.5943 80.1895L64.9503 82.6441ZM58.4517 90.3855L61.6217 94.2522L61.6254 94.2492L58.4517 90.3855ZM49.4318 95.3926L51.0821 100.112L51.0821 100.112L49.4318 95.3926ZM21.5199 92.6938L18.9143 96.9612L18.9218 96.9658L18.9293 96.9703L21.5199 92.6938ZM9.87216 79.8032L5.40762 82.0543L5.41141 82.0619L5.41523 82.0694L9.87216 79.8032ZM9.90767 39.8174L14.3607 42.0912L14.3646 42.0836L9.90767 39.8174ZM21.5554 26.9622L24.146 31.2388L24.1535 31.2342L24.161 31.2297L21.5554 26.9622ZM49.1477 24.1213L47.5666 28.8647L47.5867 28.8714L47.6068 28.878L49.1477 24.1213ZM58.2031 28.9509L55.0881 32.862L55.0987 32.8704L55.1094 32.8788L58.2031 28.9509ZM64.8438 36.6924L60.5067 39.1803L60.5109 39.1876L60.5151 39.1949L64.8438 36.6924ZM68.3949 42.0972H57.3153V52.0972H68.3949V42.0972ZM62.2363 46.2114C61.7077 43.2748 60.6975 40.5561 59.1384 38.1378L50.7338 43.5566C51.4947 44.7367 52.0707 46.1847 52.3944 47.9829L62.2363 46.2114ZM59.1384 38.1378C57.662 35.8479 55.8344 33.8784 53.6657 32.2595L47.6838 40.273C48.8768 41.1635 49.8901 42.248 50.7338 43.5566L59.1384 38.1378ZM53.6657 32.2594C51.5071 30.6481 49.1055 29.4462 46.495 28.6452L43.5618 38.2054C45.118 38.6829 46.4806 39.3749 47.6838 40.273L53.6657 32.2594ZM46.5104 28.65C43.9358 27.851 41.2433 27.4665 38.4588 27.4665V37.4665C40.3144 37.4665 42.0017 37.7212 43.5464 38.2006L46.5104 28.65ZM38.4588 27.4665C33.3848 27.4665 28.6898 28.7562 24.5193 31.4075L29.8841 39.8466C32.3424 38.2838 35.1521 37.4665 38.4588 37.4665V27.4665ZM24.5056 31.4162C20.3074 34.1043 17.1222 37.9737 14.8657 42.7652L23.9127 47.0257C25.4914 43.6733 27.5146 41.3638 29.8978 39.8378L24.5056 31.4162ZM14.8556 42.7868C12.5753 47.6895 11.5483 53.425 11.5483 59.8103H21.5483C21.5483 54.453 22.4152 50.2454 23.9228 47.0041L14.8556 42.7868ZM11.5483 59.8103C11.5483 66.2361 12.5731 71.9974 14.8556 76.9047L23.9228 72.6874C22.4174 69.4508 21.5483 65.2216 21.5483 59.8103H11.5483ZM14.8657 76.9263C17.1281 81.7303 20.3372 85.5976 24.5764 88.2622L29.8981 79.7958C27.5085 78.2938 25.4856 76.0057 23.9127 72.6658L14.8657 76.9263ZM24.5764 88.2622C28.7351 90.8762 33.3963 92.154 38.4233 92.154V82.154C35.1643 82.154 32.3681 81.3484 29.8981 79.7958L24.5764 88.2622ZM38.4233 92.154C41.1715 92.154 43.8342 91.7849 46.3891 91.0214L43.5257 81.4401C41.9612 81.9076 40.2679 82.154 38.4233 82.154V92.154ZM46.424 91.0108C49.0167 90.2153 51.406 89.0353 53.558 87.4591L47.6493 79.3915C46.4396 80.2774 45.0648 80.9677 43.4908 81.4506L46.424 91.0108ZM53.558 87.4591C55.733 85.8662 57.5679 83.92 59.0509 81.6501L50.6792 76.1806C49.8422 77.4618 48.8361 78.5223 47.6493 79.3915L53.558 87.4591ZM59.0421 81.6634C60.6181 79.268 61.662 76.5863 62.2239 73.6881L52.4067 71.7847C52.069 73.5266 51.4795 74.9642 50.688 76.1673L59.0421 81.6634ZM57.2993 77.7364L68.3789 77.7719L68.4109 67.7719L57.3314 67.7364L57.2993 77.7364ZM63.462 71.9552C62.9615 74.9786 62.0015 77.7071 60.6007 80.1781L69.2999 85.11C71.3081 81.5677 72.6446 77.7148 73.3277 73.5886L63.462 71.9552ZM60.5943 80.1895C59.2176 82.6325 57.4527 84.7355 55.278 86.5219L61.6254 94.2492C64.7537 91.6795 67.3212 88.6216 69.3063 85.0986L60.5943 80.1895ZM55.2817 86.5189C53.1313 88.2819 50.6453 89.6715 47.7815 90.6728L51.0821 100.112C54.9892 98.7463 58.5165 96.7979 61.6217 94.2522L55.2817 86.5189ZM47.7815 90.6728C44.9842 91.6509 41.8557 92.1682 38.3523 92.1682V102.168C42.8507 102.168 47.1086 101.502 51.0821 100.112L47.7815 90.6728ZM38.3523 92.1682C32.8798 92.1682 28.1811 90.8831 24.1105 88.4172L18.9293 96.9703C24.7072 100.47 31.2301 102.168 38.3523 102.168V92.1682ZM24.1255 88.4264C20.0597 85.9439 16.7878 82.3723 14.3291 77.5369L5.41523 82.0694C8.63838 88.4082 13.1316 93.4304 18.9143 96.9612L24.1255 88.4264ZM14.3367 77.552C11.9452 72.8091 10.6463 66.9517 10.6463 59.8103H0.646307C0.646307 68.1517 2.16466 75.6229 5.40762 82.0543L14.3367 77.552ZM10.6463 59.8103C10.6463 52.6473 11.9562 46.8001 14.3607 42.0912L5.45464 37.5435C2.17736 43.9615 0.646307 51.4429 0.646307 59.8103H10.6463ZM14.3646 42.0836C16.8218 37.251 20.0894 33.6961 24.146 31.2388L18.9648 22.6857C13.1729 26.1942 8.67532 31.2094 5.45075 37.5511L14.3646 42.0836ZM24.161 31.2297C28.2325 28.7437 32.9148 27.4523 38.3523 27.4523V17.4523C31.2424 17.4523 24.7268 19.1675 18.9498 22.6948L24.161 31.2297ZM38.3523 27.4523C41.7255 27.4523 44.7852 27.9376 47.5666 28.8647L50.7289 19.3779C46.8341 18.0797 42.6969 17.4523 38.3523 17.4523V27.4523ZM47.6068 28.878C50.4167 29.7882 52.8982 31.1178 55.0881 32.862L61.3182 25.0398C58.1577 22.5226 54.6023 20.6325 50.6886 19.3647L47.6068 28.878ZM55.1094 32.8788C57.2647 34.5764 59.0622 36.6623 60.5067 39.1803L69.1808 34.2044C67.1215 30.6145 64.4919 27.5394 61.2968 25.0229L55.1094 32.8788ZM60.5151 39.1949C61.9219 41.6283 62.9237 44.4984 63.4558 47.8755L73.3339 46.3189C72.635 41.8835 71.2694 37.817 69.1724 34.1898L60.5151 39.1949ZM150.439 79.8387L154.892 82.1125L154.895 82.1049L150.439 79.8387ZM138.755 92.6938L141.346 96.9703L141.352 96.9667L138.755 92.6938ZM105.091 92.6938L102.485 96.9612L102.497 96.9685L102.509 96.9758L105.091 92.6938ZM93.4428 79.8032L97.8998 77.5369L97.8998 77.5369L93.4428 79.8032ZM93.4428 39.8174L97.8959 42.0912L97.8998 42.0836L93.4428 39.8174ZM105.091 26.9622L107.681 31.2388L107.687 31.2352L105.091 26.9622ZM138.755 26.9622L136.15 31.2297L136.162 31.237L136.174 31.2443L138.755 26.9622ZM150.439 39.8174L145.982 42.0836L145.986 42.0912L150.439 39.8174ZM140.957 44.86L136.423 46.9686L136.431 46.9845L136.438 47.0004L140.957 44.86ZM133.145 35.627L130.448 39.8378L130.466 39.8491L130.484 39.8602L133.145 35.627ZM110.737 35.627L113.411 39.8516L113.422 39.8447L113.433 39.8378L110.737 35.627ZM102.924 44.86L98.4008 42.7297L98.3955 42.7412L102.924 44.86ZM102.924 74.796L98.3908 76.9047L98.3982 76.9206L98.4057 76.9365L102.924 74.796ZM110.737 84.029L108.041 88.2398L108.052 88.2467L108.062 88.2536L110.737 84.029ZM133.145 84.029L135.819 88.2536L135.827 88.2486L133.145 84.029ZM140.957 74.796L136.434 72.6658L136.428 72.6773L140.957 74.796ZM149.7 59.8103C149.7 66.9723 148.39 72.8353 145.982 77.5724L154.895 82.1049C158.169 75.6678 159.7 68.1785 159.7 59.8103H149.7ZM145.986 77.5648C143.532 82.3704 140.252 85.9336 136.159 88.4208L141.352 96.9667C147.154 93.4407 151.664 88.4339 154.892 82.1125L145.986 77.5648ZM136.165 88.4172C132.091 90.8849 127.403 92.1682 121.958 92.1682V102.168C129.061 102.168 135.571 100.469 141.346 96.9703L136.165 88.4172ZM121.958 92.1682C116.486 92.1682 111.771 90.8831 107.672 88.4117L102.509 96.9758C108.306 100.47 114.836 102.168 121.958 102.168V92.1682ZM107.696 88.4264C103.63 85.9439 100.358 82.3723 97.8998 77.5369L88.9859 82.0694C92.209 88.4082 96.7022 93.4304 102.485 96.9612L107.696 88.4264ZM97.8998 77.5369C95.49 72.7978 94.1815 66.9459 94.1815 59.8103H84.1815C84.1815 68.1575 85.7138 75.6343 88.9859 82.0694L97.8998 77.5369ZM94.1815 59.8103C94.1815 52.6473 95.4913 46.8001 97.8959 42.0912L88.9898 37.5435C85.7125 43.9615 84.1815 51.4429 84.1815 59.8103H94.1815ZM97.8998 42.0836C100.357 37.251 103.625 33.6961 107.681 31.2388L102.5 22.6857C96.7081 26.1942 92.2105 31.2094 88.9859 37.5511L97.8998 42.0836ZM107.687 31.2352C111.784 28.7455 116.494 27.4523 121.958 27.4523V17.4523C114.828 17.4523 108.293 19.1657 102.494 22.6893L107.687 31.2352ZM121.958 27.4523C127.396 27.4523 132.078 28.7437 136.15 31.2297L141.361 22.6948C135.584 19.1675 129.068 17.4523 121.958 17.4523V27.4523ZM136.174 31.2443C140.252 33.7032 143.528 37.2571 145.982 42.0836L154.895 37.5511C151.668 31.2033 147.154 26.1872 141.337 22.6802L136.174 31.2443ZM145.986 42.0912C148.39 46.8001 149.7 52.6473 149.7 59.8103H159.7C159.7 51.4429 158.169 43.9615 154.892 37.5435L145.986 42.0912ZM148.833 59.8103C148.833 53.3786 147.795 47.6157 145.476 42.7195L136.438 47.0004C137.954 50.2008 138.833 54.4047 138.833 59.8103H148.833ZM145.491 42.7513C143.252 37.9374 140.051 34.0623 135.805 31.3938L130.484 39.8602C132.867 41.3584 134.875 43.6386 136.423 46.9686L145.491 42.7513ZM135.841 31.4162C131.691 28.7593 127.014 27.4665 121.958 27.4665V37.4665C125.236 37.4665 128.017 38.2808 130.448 39.8378L135.841 31.4162ZM121.958 27.4665C116.885 27.4665 112.195 28.7563 108.041 31.4162L113.433 39.8378C115.86 38.2838 118.652 37.4665 121.958 37.4665V27.4665ZM108.062 31.4025C103.85 34.0692 100.659 37.9348 98.4009 42.7297L107.448 46.9902C109.025 43.6412 111.042 41.3515 113.411 39.8516L108.062 31.4025ZM98.3955 42.7412C96.1078 47.6311 95.0835 53.386 95.0835 59.8103H105.083C105.083 54.3974 105.953 50.1854 107.453 46.9787L98.3955 42.7412ZM95.0835 59.8103C95.0835 66.2361 96.1083 71.9974 98.3908 76.9047L107.458 72.6874C105.953 69.4508 105.083 65.2216 105.083 59.8103H95.0835ZM98.4057 76.9365C100.665 81.7053 103.85 85.5565 108.041 88.2398L113.433 79.8182C111.042 78.2875 109.019 75.9834 107.443 72.6556L98.4057 76.9365ZM108.062 88.2536C112.214 90.8821 116.896 92.154 121.958 92.154V82.154C118.64 82.154 115.841 81.3426 113.411 79.8044L108.062 88.2536ZM121.958 92.154C127.003 92.154 131.672 90.8791 135.819 88.2536L130.47 79.8044C128.036 81.3456 125.247 82.154 121.958 82.154V92.154ZM135.827 88.2486C140.051 85.5634 143.246 81.7027 145.486 76.9148L136.428 72.6773C134.88 75.986 132.867 78.2806 130.462 79.8095L135.827 88.2486ZM145.481 76.9263C147.794 72.0128 148.833 66.2434 148.833 59.8103H138.833C138.833 65.2142 137.955 69.4354 136.434 72.6658L145.481 76.9263ZM180.911 96.1739V101.174H184.471L185.636 97.8091L180.911 96.1739ZM169.263 96.1739L164.558 94.4809L162.15 101.174H169.263V96.1739ZM195.435 23.4466V18.4466H191.92L190.73 21.7536L195.435 23.4466ZM208.113 23.4466L212.817 21.7536L211.627 18.4466H208.113V23.4466ZM234.284 96.1739V101.174H241.398L238.989 94.4809L234.284 96.1739ZM222.637 96.1739L217.911 97.8065L219.074 101.174H222.637V96.1739ZM202.076 36.6568L206.802 35.0242L205.638 31.6568H202.076V36.6568ZM201.507 36.6568V31.6568H197.947L196.782 35.0217L201.507 36.6568ZM182.864 67.6938V62.6938H177.864V67.6938H182.864ZM220.648 67.6938H225.648V62.6938H220.648V67.6938ZM220.648 76.9267V81.9267H225.648V76.9267H220.648ZM182.864 76.9267H177.864V81.9267H182.864V76.9267ZM180.911 91.1739H169.263V101.174H180.911V91.1739ZM173.968 97.8669L200.14 25.1396L190.73 21.7536L164.558 94.4809L173.968 97.8669ZM195.435 28.4466H208.113V18.4466H195.435V28.4466ZM203.408 25.1396L229.58 97.8669L238.989 94.4809L212.817 21.7536L203.408 25.1396ZM234.284 91.1739H222.637V101.174H234.284V91.1739ZM227.363 94.5412L206.802 35.0242L197.35 38.2895L217.911 97.8065L227.363 94.5412ZM202.076 31.6568H201.507V41.6568H202.076V31.6568ZM196.782 35.0217L176.186 94.5387L185.636 97.8091L206.233 38.292L196.782 35.0217ZM182.864 72.6938H220.648V62.6938H182.864V72.6938ZM215.648 67.6938V76.9267H225.648V67.6938H215.648ZM220.648 71.9267H182.864V81.9267H220.648V71.9267ZM187.864 76.9267V67.6938H177.864V76.9267H187.864ZM311.774 47.0972V52.0972H317.623L316.713 46.3189L311.774 47.0972ZM300.694 47.0972L295.773 47.9829L296.514 52.0972H300.694V47.0972ZM294.054 36.2662L297.045 32.2595L297.045 32.2594L294.054 36.2662ZM288.407 33.4253L286.925 38.2006L286.933 38.203L286.941 38.2054L288.407 33.4253ZM270.581 35.627L267.898 31.4075L267.891 31.4118L267.884 31.4162L270.581 35.627ZM262.768 44.8955L258.245 42.7652L258.24 42.776L258.235 42.7868L262.768 44.8955ZM262.768 74.796L258.235 76.9047L258.24 76.9155L258.245 76.9263L262.768 74.796ZM270.616 84.029L267.955 88.2622L267.955 88.2622L270.616 84.029ZM288.336 86.2307L289.768 91.0214L289.785 91.0161L289.803 91.0108L288.336 86.2307ZM293.983 83.4253L291.028 79.3915L293.983 83.4253ZM298.244 78.9154L294.067 76.1673L294.062 76.1739L294.058 76.1806L298.244 78.9154ZM300.694 72.7364L300.71 67.7364L296.573 67.7232L295.786 71.7847L300.694 72.7364ZM311.774 72.7719L316.707 73.5886L317.667 67.7908L311.79 67.7719L311.774 72.7719ZM308.329 82.6441L303.98 80.1781L303.973 80.1895L308.329 82.6441ZM301.831 90.3855L305.001 94.2522L305.004 94.2492L301.831 90.3855ZM292.811 95.3926L294.461 100.112L294.461 100.112L292.811 95.3926ZM264.899 92.6938L262.293 96.9612L262.301 96.9658L262.308 96.9703L264.899 92.6938ZM253.251 79.8032L248.787 82.0543L248.79 82.0619L248.794 82.0694L253.251 79.8032ZM253.287 39.8174L257.74 42.0912L257.744 42.0836L253.287 39.8174ZM264.934 26.9622L267.525 31.2388L267.532 31.2342L267.54 31.2297L264.934 26.9622ZM292.527 24.1213L290.945 28.8647L290.966 28.8714L290.986 28.878L292.527 24.1213ZM301.582 28.9509L298.467 32.862L298.478 32.8704L298.488 32.8788L301.582 28.9509ZM308.223 36.6924L303.886 39.1803L303.89 39.1876L303.894 39.1949L308.223 36.6924ZM311.774 42.0972H300.694V52.0972H311.774V42.0972ZM305.615 46.2114C305.087 43.2748 304.076 40.5561 302.517 38.1378L294.113 43.5566C294.874 44.7367 295.45 46.1847 295.773 47.9829L305.615 46.2114ZM302.517 38.1378C301.041 35.8479 299.213 33.8784 297.045 32.2595L291.063 40.273C292.256 41.1635 293.269 42.248 294.113 43.5566L302.517 38.1378ZM297.045 32.2594C294.886 30.6481 292.484 29.4462 289.874 28.6452L286.941 38.2054C288.497 38.6829 289.86 39.3749 291.063 40.273L297.045 32.2594ZM289.889 28.65C287.315 27.851 284.622 27.4665 281.838 27.4665V37.4665C283.693 37.4665 285.381 37.7212 286.925 38.2006L289.889 28.65ZM281.838 27.4665C276.764 27.4665 272.069 28.7562 267.898 31.4075L273.263 39.8466C275.721 38.2838 278.531 37.4665 281.838 37.4665V27.4665ZM267.884 31.4162C263.686 34.1043 260.501 37.9737 258.245 42.7652L267.292 47.0257C268.87 43.6733 270.893 41.3638 273.277 39.8378L267.884 31.4162ZM258.235 42.7868C255.954 47.6895 254.927 53.425 254.927 59.8103H264.927C264.927 54.453 265.794 50.2454 267.302 47.0041L258.235 42.7868ZM254.927 59.8103C254.927 66.2361 255.952 71.9974 258.235 76.9047L267.302 72.6874C265.796 69.4508 264.927 65.2216 264.927 59.8103H254.927ZM258.245 76.9263C260.507 81.7303 263.716 85.5976 267.955 88.2622L273.277 79.7958C270.887 78.2938 268.864 76.0057 267.292 72.6658L258.245 76.9263ZM267.955 88.2622C272.114 90.8762 276.775 92.154 281.802 92.154V82.154C278.543 82.154 275.747 81.3484 273.277 79.7958L267.955 88.2622ZM281.802 92.154C284.55 92.154 287.213 91.7849 289.768 91.0214L286.905 81.4401C285.34 81.9076 283.647 82.154 281.802 82.154V92.154ZM289.803 91.0108C292.396 90.2153 294.785 89.0353 296.937 87.4591L291.028 79.3915C289.819 80.2774 288.444 80.9677 286.87 81.4506L289.803 91.0108ZM296.937 87.4591C299.112 85.8662 300.947 83.92 302.43 81.6501L294.058 76.1806C293.221 77.4618 292.215 78.5223 291.028 79.3915L296.937 87.4591ZM302.421 81.6634C303.997 79.268 305.041 76.5863 305.603 73.6881L295.786 71.7847C295.448 73.5266 294.858 74.9642 294.067 76.1673L302.421 81.6634ZM300.678 77.7364L311.758 77.7719L311.79 67.7719L300.71 67.7364L300.678 77.7364ZM306.841 71.9552C306.34 74.9786 305.38 77.7071 303.98 80.1781L312.679 85.11C314.687 81.5677 316.024 77.7148 316.707 73.5886L306.841 71.9552ZM303.973 80.1895C302.597 82.6325 300.832 84.7355 298.657 86.5219L305.004 94.2492C308.133 91.6795 310.7 88.6216 312.685 85.0986L303.973 80.1895ZM298.661 86.5189C296.51 88.2819 294.024 89.6715 291.16 90.6728L294.461 100.112C298.368 98.7463 301.895 96.7979 305.001 94.2522L298.661 86.5189ZM291.16 90.6728C288.363 91.6509 285.235 92.1682 281.731 92.1682V102.168C286.23 102.168 290.488 101.502 294.461 100.112L291.16 90.6728ZM281.731 92.1682C276.259 92.1682 271.56 90.8831 267.489 88.4172L262.308 96.9703C268.086 100.47 274.609 102.168 281.731 102.168V92.1682ZM267.504 88.4264C263.439 85.9439 260.167 82.3723 257.708 77.5369L248.794 82.0694C252.017 88.4082 256.51 93.4304 262.293 96.9612L267.504 88.4264ZM257.716 77.552C255.324 72.8091 254.025 66.9517 254.025 59.8103H244.025C244.025 68.1517 245.544 75.6229 248.787 82.0543L257.716 77.552ZM254.025 59.8103C254.025 52.6473 255.335 46.8001 257.74 42.0912L248.834 37.5435C245.556 43.9615 244.025 51.4429 244.025 59.8103H254.025ZM257.744 42.0836C260.201 37.251 263.468 33.6961 267.525 31.2388L262.344 22.6857C256.552 26.1942 252.054 31.2094 248.83 37.5511L257.744 42.0836ZM267.54 31.2297C271.611 28.7437 276.294 27.4523 281.731 27.4523V17.4523C274.621 17.4523 268.106 19.1675 262.329 22.6948L267.54 31.2297ZM281.731 27.4523C285.104 27.4523 288.164 27.9376 290.945 28.8647L294.108 19.3779C290.213 18.0797 286.076 17.4523 281.731 17.4523V27.4523ZM290.986 28.878C293.796 29.7882 296.277 31.1178 298.467 32.862L304.697 25.0398C301.537 22.5226 297.981 20.6325 294.068 19.3647L290.986 28.878ZM298.488 32.8788C300.644 34.5764 302.441 36.6623 303.886 39.1803L312.56 34.2044C310.5 30.6145 307.871 27.5394 304.676 25.0229L298.488 32.8788ZM303.894 39.1949C305.301 41.6283 306.303 44.4984 306.835 47.8755L316.713 46.3189C316.014 41.8835 314.648 37.817 312.551 34.1898L303.894 39.1949ZM334.904 96.1739H329.904V101.174H334.904V96.1739ZM334.904 23.4466V18.4466H329.904V23.4466H334.904ZM345.877 23.4466H350.877V18.4466H345.877V23.4466ZM345.877 55.0517H340.877V60.0517H345.877V55.0517ZM382.134 55.0517V60.0517H387.134V55.0517H382.134ZM382.134 23.4466V18.4466H377.134V23.4466H382.134ZM393.143 23.4466H398.143V18.4466H393.143V23.4466ZM393.143 96.1739V101.174H398.143V96.1739H393.143ZM382.134 96.1739H377.134V101.174H382.134V96.1739ZM382.134 64.4622H387.134V59.4622H382.134V64.4622ZM345.877 64.4622V59.4622H340.877V64.4622H345.877ZM345.877 96.1739V101.174H350.877V96.1739H345.877ZM339.904 96.1739V23.4466H329.904V96.1739H339.904ZM334.904 28.4466H345.877V18.4466H334.904V28.4466ZM340.877 23.4466V55.0517H350.877V23.4466H340.877ZM345.877 60.0517H382.134V50.0517H345.877V60.0517ZM387.134 55.0517V23.4466H377.134V55.0517H387.134ZM382.134 28.4466H393.143V18.4466H382.134V28.4466ZM388.143 23.4466V96.1739H398.143V23.4466H388.143ZM393.143 91.1739H382.134V101.174H393.143V91.1739ZM387.134 96.1739V64.4622H377.134V96.1739H387.134ZM382.134 59.4622H345.877V69.4622H382.134V59.4622ZM340.877 64.4622V96.1739H350.877V64.4622H340.877ZM345.877 91.1739H334.904V101.174H345.877V91.1739Z" fill="white" mask="url(#path-1-outside-1_16_49)"/>
<path d="M481.288 20.4545H493.101L483.82 76.3722C483.001 81.4091 481.352 85.6918 478.872 89.2202C476.418 92.7486 473.286 95.446 469.476 97.3125C465.692 99.1534 461.371 100.074 456.513 100.074C451.987 100.074 448.063 99.2685 444.739 97.6577C441.44 96.0213 439.011 93.669 437.452 90.6009C435.918 87.5071 435.496 83.7614 436.186 79.3636H447.692C447.385 81.6136 447.577 83.5312 448.267 85.1165C448.983 86.7017 450.134 87.9162 451.719 88.7599C453.304 89.6037 455.222 90.0256 457.472 90.0256C460.028 90.0256 462.317 89.4759 464.337 88.3764C466.357 87.277 468.031 85.679 469.361 83.5824C470.69 81.4858 471.611 78.929 472.122 75.9119L481.288 20.4545ZM503.945 99H491.365L532.671 20.4545H546.363L561.588 99H549.009L537.542 34.7216H536.928L503.945 99ZM511.155 68.2415H551.962L550.275 78.2131H509.468L511.155 68.2415ZM649.367 20.4545L636.327 99H625.435L595.099 41.3949H594.408L584.782 99H572.931L585.971 20.4545H596.94L627.315 78.1364H628.043L637.631 20.4545H649.367ZM730.051 20.4545L717.011 99H706.119L675.782 41.3949H675.092L665.466 99H653.615L666.654 20.4545H677.623L707.998 78.1364H708.727L718.315 20.4545H730.051ZM734.298 99L747.338 20.4545H796.582L794.895 30.6562H757.501L753.513 54.5881H788.337L786.649 64.7514H751.825L747.837 88.7983H785.69L784.003 99H734.298Z" fill="white"/>
</svg>
