<svg width="730" height="120" viewBox="0 0 730 120" fill="none" xmlns="http://www.w3.org/2000/svg">
<mask id="path-1-outside-1_9_10" maskUnits="userSpaceOnUse" x="386" y="23" width="308" height="76" fill="black">
<rect fill="white" x="386" y="23" width="308" height="76"/>
<path d="M420.357 27.0909H430.419V74.5284C430.419 78.8191 429.57 82.4891 427.871 85.5384C426.194 88.5876 423.83 90.9181 420.781 92.5298C417.732 94.1198 414.16 94.9148 410.065 94.9148C406.297 94.9148 402.911 94.2287 399.905 92.8565C396.921 91.4844 394.558 89.4915 392.815 86.8778C391.095 84.2424 390.234 81.0407 390.234 77.2727H400.264C400.264 79.1241 400.689 80.7249 401.538 82.0753C402.41 83.4257 403.597 84.482 405.099 85.2443C406.624 85.9848 408.366 86.3551 410.327 86.3551C412.461 86.3551 414.269 85.9086 415.75 85.0156C417.253 84.1009 418.396 82.7614 419.18 80.9972C419.964 79.233 420.357 77.0767 420.357 74.5284V27.0909ZM450.765 94H440.049L464.127 27.0909H475.79L499.868 94H489.152L470.236 39.2443H469.713L450.765 94ZM452.561 67.7983H487.323V76.2926H452.561V67.7983ZM563.535 27.0909V94H554.256L520.246 44.929H519.626V94H509.531V27.0909H518.874L552.917 76.2273H553.538V27.0909H563.535ZM632.265 27.0909V94H622.987L588.977 44.929H588.356V94H578.261V27.0909H587.605L621.647 76.2273H622.268V27.0909H632.265ZM646.991 94V27.0909H688.94V35.7812H657.087V56.1676H686.751V64.8253H657.087V85.3097H689.332V94H646.991Z"/>
</mask>
<path d="M420.357 27.0909V23.0909H416.357V27.0909H420.357ZM430.419 27.0909H434.419V23.0909H430.419V27.0909ZM427.871 85.5384L424.376 83.5915L424.371 83.6011L424.366 83.6107L427.871 85.5384ZM420.781 92.5298L422.631 96.0766L422.641 96.0714L422.65 96.0662L420.781 92.5298ZM399.905 92.8565L398.234 96.4907L398.244 96.4953L399.905 92.8565ZM392.815 86.8778L389.466 89.0646L389.476 89.0807L389.487 89.0966L392.815 86.8778ZM390.234 77.2727V73.2727H386.234V77.2727H390.234ZM400.264 77.2727H404.264V73.2727H400.264V77.2727ZM401.538 82.0753L398.153 84.2051L398.165 84.2245L398.177 84.2438L401.538 82.0753ZM405.099 85.2443L403.29 88.8116L403.321 88.8273L403.352 88.8424L405.099 85.2443ZM415.75 85.0156L417.815 88.4411L417.823 88.4368L417.83 88.4324L415.75 85.0156ZM419.18 80.9972L415.525 79.3726L415.525 79.3726L419.18 80.9972ZM420.357 31.0909H430.419V23.0909H420.357V31.0909ZM426.419 27.0909V74.5284H434.419V27.0909H426.419ZM426.419 74.5284C426.419 78.2924 425.676 81.2595 424.376 83.5915L431.365 87.4852C433.463 83.7187 434.419 79.3458 434.419 74.5284H426.419ZM424.366 83.6107C423.062 85.982 421.264 87.7502 418.912 88.9934L422.65 96.0662C426.397 94.086 429.326 91.1932 431.376 87.466L424.366 83.6107ZM418.932 88.983C416.553 90.2235 413.638 90.9148 410.065 90.9148V98.9148C414.682 98.9148 418.911 98.0161 422.631 96.0766L418.932 88.983ZM410.065 90.9148C406.79 90.9148 403.982 90.3206 401.566 89.2178L398.244 96.4953C401.839 98.1368 405.805 98.9148 410.065 98.9148V90.9148ZM401.576 89.2224C399.233 88.1448 397.456 86.6279 396.144 84.659L389.487 89.0966C391.659 92.3551 394.609 94.824 398.234 96.4907L401.576 89.2224ZM396.165 84.6911C394.946 82.8248 394.234 80.4193 394.234 77.2727H386.234C386.234 81.6622 387.243 85.6601 389.466 89.0646L396.165 84.6911ZM390.234 81.2727H400.264V73.2727H390.234V81.2727ZM396.264 77.2727C396.264 79.7544 396.841 82.1199 398.153 84.2051L404.924 79.9455C404.537 79.3299 404.264 78.4937 404.264 77.2727H396.264ZM398.177 84.2438C399.452 86.2191 401.187 87.745 403.29 88.8116L406.909 81.677C406.006 81.2191 405.368 80.6322 404.9 79.9068L398.177 84.2438ZM403.352 88.8424C405.5 89.8859 407.856 90.3551 410.327 90.3551V82.3551C408.877 82.3551 407.748 82.0838 406.847 81.6463L403.352 88.8424ZM410.327 90.3551C413.019 90.3551 415.58 89.7889 417.815 88.4411L413.685 81.5901C412.958 82.0283 411.903 82.3551 410.327 82.3551V90.3551ZM417.83 88.4324C420.096 87.0533 421.755 85.0539 422.836 82.6217L415.525 79.3726C415.038 80.4688 414.41 81.1484 413.67 81.5988L417.83 88.4324ZM422.836 82.6217C423.907 80.2104 424.357 77.4659 424.357 74.5284H416.357C416.357 76.6875 416.022 78.2555 415.525 79.3726L422.836 82.6217ZM424.357 74.5284V27.0909H416.357V74.5284H424.357ZM450.765 94V98H453.613L454.545 95.3081L450.765 94ZM440.049 94L436.285 92.6456L434.358 98H440.049V94ZM464.127 27.0909V23.0909H461.315L460.363 25.7365L464.127 27.0909ZM475.79 27.0909L479.554 25.7365L478.602 23.0909H475.79V27.0909ZM499.868 94V98H505.559L503.632 92.6456L499.868 94ZM489.152 94L485.372 95.3061L486.302 98H489.152V94ZM470.236 39.2443L474.017 37.9382L473.086 35.2443H470.236V39.2443ZM469.713 39.2443V35.2443H466.865L465.933 37.9362L469.713 39.2443ZM452.561 67.7983V63.7983H448.561V67.7983H452.561ZM487.323 67.7983H491.323V63.7983H487.323V67.7983ZM487.323 76.2926V80.2926H491.323V76.2926H487.323ZM452.561 76.2926H448.561V80.2926H452.561V76.2926ZM450.765 90H440.049V98H450.765V90ZM443.812 95.3544L467.89 28.4453L460.363 25.7365L436.285 92.6456L443.812 95.3544ZM464.127 31.0909H475.79V23.0909H464.127V31.0909ZM472.026 28.4453L496.105 95.3544L503.632 92.6456L479.554 25.7365L472.026 28.4453ZM499.868 90H489.152V98H499.868V90ZM492.933 92.6939L474.017 37.9382L466.455 40.5504L485.372 95.3061L492.933 92.6939ZM470.236 35.2443H469.713V43.2443H470.236V35.2443ZM465.933 37.9362L446.985 92.6919L454.545 95.3081L473.493 40.5524L465.933 37.9362ZM452.561 71.7983H487.323V63.7983H452.561V71.7983ZM483.323 67.7983V76.2926H491.323V67.7983H483.323ZM487.323 72.2926H452.561V80.2926H487.323V72.2926ZM456.561 76.2926V67.7983H448.561V76.2926H456.561ZM563.535 27.0909H567.535V23.0909H563.535V27.0909ZM563.535 94V98H567.535V94H563.535ZM554.256 94L550.969 96.2785L552.162 98H554.256V94ZM520.246 44.929L523.534 42.6504L522.341 40.929H520.246V44.929ZM519.626 44.929V40.929H515.626V44.929H519.626ZM519.626 94V98H523.626V94H519.626ZM509.531 94H505.531V98H509.531V94ZM509.531 27.0909V23.0909H505.531V27.0909H509.531ZM518.874 27.0909L522.162 24.8129L520.969 23.0909H518.874V27.0909ZM552.917 76.2273L549.629 78.5052L550.822 80.2273H552.917V76.2273ZM553.538 76.2273V80.2273H557.538V76.2273H553.538ZM553.538 27.0909V23.0909H549.538V27.0909H553.538ZM559.535 27.0909V94H567.535V27.0909H559.535ZM563.535 90H554.256V98H563.535V90ZM557.544 91.7215L523.534 42.6504L516.959 47.2075L550.969 96.2785L557.544 91.7215ZM520.246 40.929H519.626V48.929H520.246V40.929ZM515.626 44.929V94H523.626V44.929H515.626ZM519.626 90H509.531V98H519.626V90ZM513.531 94V27.0909H505.531V94H513.531ZM509.531 31.0909H518.874V23.0909H509.531V31.0909ZM515.586 29.3689L549.629 78.5052L556.205 73.9493L522.162 24.8129L515.586 29.3689ZM552.917 80.2273H553.538V72.2273H552.917V80.2273ZM557.538 76.2273V27.0909H549.538V76.2273H557.538ZM553.538 31.0909H563.535V23.0909H553.538V31.0909ZM632.265 27.0909H636.265V23.0909H632.265V27.0909ZM632.265 94V98H636.265V94H632.265ZM622.987 94L619.699 96.2785L620.892 98H622.987V94ZM588.977 44.929L592.265 42.6504L591.071 40.929H588.977V44.929ZM588.356 44.929V40.929H584.356V44.929H588.356ZM588.356 94V98H592.356V94H588.356ZM578.261 94H574.261V98H578.261V94ZM578.261 27.0909V23.0909H574.261V27.0909H578.261ZM587.605 27.0909L590.893 24.8129L589.7 23.0909H587.605V27.0909ZM621.647 76.2273L618.359 78.5052L619.552 80.2273H621.647V76.2273ZM622.268 76.2273V80.2273H626.268V76.2273H622.268ZM622.268 27.0909V23.0909H618.268V27.0909H622.268ZM628.265 27.0909V94H636.265V27.0909H628.265ZM632.265 90H622.987V98H632.265V90ZM626.274 91.7215L592.265 42.6504L585.689 47.2075L619.699 96.2785L626.274 91.7215ZM588.977 40.929H588.356V48.929H588.977V40.929ZM584.356 44.929V94H592.356V44.929H584.356ZM588.356 90H578.261V98H588.356V90ZM582.261 94V27.0909H574.261V94H582.261ZM578.261 31.0909H587.605V23.0909H578.261V31.0909ZM584.317 29.3689L618.359 78.5052L624.935 73.9493L590.893 24.8129L584.317 29.3689ZM621.647 80.2273H622.268V72.2273H621.647V80.2273ZM626.268 76.2273V27.0909H618.268V76.2273H626.268ZM622.268 31.0909H632.265V23.0909H622.268V31.0909ZM646.991 94H642.991V98H646.991V94ZM646.991 27.0909V23.0909H642.991V27.0909H646.991ZM688.94 27.0909H692.94V23.0909H688.94V27.0909ZM688.94 35.7812V39.7812H692.94V35.7812H688.94ZM657.087 35.7812V31.7812H653.087V35.7812H657.087ZM657.087 56.1676H653.087V60.1676H657.087V56.1676ZM686.751 56.1676H690.751V52.1676H686.751V56.1676ZM686.751 64.8253V68.8253H690.751V64.8253H686.751ZM657.087 64.8253V60.8253H653.087V64.8253H657.087ZM657.087 85.3097H653.087V89.3097H657.087V85.3097ZM689.332 85.3097H693.332V81.3097H689.332V85.3097ZM689.332 94V98H693.332V94H689.332ZM650.991 94V27.0909H642.991V94H650.991ZM646.991 31.0909H688.94V23.0909H646.991V31.0909ZM684.94 27.0909V35.7812H692.94V27.0909H684.94ZM688.94 31.7812H657.087V39.7812H688.94V31.7812ZM653.087 35.7812V56.1676H661.087V35.7812H653.087ZM657.087 60.1676H686.751V52.1676H657.087V60.1676ZM682.751 56.1676V64.8253H690.751V56.1676H682.751ZM686.751 60.8253H657.087V68.8253H686.751V60.8253ZM653.087 64.8253V85.3097H661.087V64.8253H653.087ZM657.087 89.3097H689.332V81.3097H657.087V89.3097ZM685.332 85.3097V94H693.332V85.3097H685.332ZM689.332 90H646.991V98H689.332V90Z" fill="white" mask="url(#path-1-outside-1_9_10)"/>
<path d="M71.9105 47.9233H61.044C60.9967 45.5559 60.5587 43.4725 59.7301 41.6733C58.9015 39.8504 57.7652 38.3234 56.321 37.0923C54.9006 35.8376 53.2315 34.8906 51.3139 34.2514C49.3963 33.6122 47.3248 33.2926 45.0994 33.2926C40.8144 33.2926 36.7898 34.3816 33.0256 36.5597C29.2614 38.7377 26.0535 41.91 23.402 46.0767C20.7505 50.2434 18.9276 55.3215 17.9332 61.3111C16.9626 67.1349 17.081 72.0237 18.2884 75.9773C19.4957 79.9309 21.5317 82.9257 24.3963 84.9616C27.2846 86.974 30.7528 87.9801 34.8011 87.9801C37.1686 87.9801 39.4768 87.6723 41.7259 87.0568C43.9986 86.4176 46.1056 85.4825 48.0469 84.2514C49.9882 83.0204 51.7045 81.517 53.196 79.7415C54.7112 77.9422 55.8949 75.8826 56.7472 73.5625H67.7557C66.572 77.161 64.9029 80.4517 62.7486 83.4347C60.5942 86.4176 58.0492 88.9981 55.1136 91.1761C52.178 93.3542 48.9583 95.035 45.4545 96.2188C41.9508 97.4025 38.2457 97.9943 34.3395 97.9943C27.9238 97.9943 22.455 96.4673 17.9332 93.4134C13.4351 90.3357 10.2036 85.956 8.23864 80.2741C6.29735 74.5923 5.96591 67.8215 7.24432 59.9616C8.5464 52.3149 11.0322 45.7571 14.7017 40.2884C18.3949 34.7959 22.893 30.5937 28.196 27.6818C33.5227 24.7462 39.2756 23.2784 45.4545 23.2784C49.3608 23.2784 52.9356 23.8348 56.179 24.9474C59.4224 26.0365 62.2159 27.6463 64.5597 29.777C66.9271 31.884 68.75 34.4645 70.0284 37.5185C71.3068 40.5488 71.9342 44.017 71.9105 47.9233ZM146.085 61.3466C144.806 68.9934 142.321 75.5511 138.627 81.0199C134.958 86.4886 130.46 90.6908 125.133 93.6264C119.83 96.5384 114.101 97.9943 107.946 97.9943C101.53 97.9943 96.0494 96.4673 91.5039 93.4134C86.9821 90.3357 83.7388 85.9678 81.7738 80.3097C79.8088 74.6278 79.4774 67.857 80.7795 59.9972C82.0579 52.3504 84.5318 45.7926 88.2013 40.3239C91.8945 34.8314 96.4045 30.6174 101.731 27.6818C107.082 24.7462 112.858 23.2784 119.061 23.2784C125.429 23.2784 130.862 24.8172 135.36 27.8949C139.882 30.9489 143.126 35.3286 145.091 41.0341C147.056 46.7159 147.387 53.4867 146.085 61.3466ZM135.396 59.9972C136.367 54.197 136.248 49.3201 135.041 45.3665C133.857 41.3892 131.833 38.3826 128.968 36.3466C126.104 34.3106 122.647 33.2926 118.599 33.2926C114.29 33.2926 110.254 34.3816 106.49 36.5597C102.749 38.7377 99.5531 41.91 96.9016 46.0767C94.2501 50.2434 92.439 55.3333 91.4684 61.3466C90.4741 67.1468 90.5806 72.0237 91.788 75.9773C92.9954 79.9309 95.0314 82.9257 97.896 84.9616C100.784 86.974 104.252 87.9801 108.301 87.9801C112.586 87.9801 116.599 86.9029 120.339 84.7486C124.103 82.5705 127.311 79.41 129.963 75.267C132.614 71.1004 134.425 66.0104 135.396 59.9972ZM156.365 97H144.718L182.963 24.2727H195.641L209.739 97H198.091L187.473 37.483H186.905L156.365 97ZM163.042 68.5199H200.826L199.263 77.7528H161.479L163.042 68.5199ZM285.289 47.9233H274.423C274.376 45.5559 273.938 43.4725 273.109 41.6733C272.28 39.8504 271.144 38.3234 269.7 37.0923C268.279 35.8376 266.61 34.8906 264.693 34.2514C262.775 33.6122 260.704 33.2926 258.478 33.2926C254.193 33.2926 250.169 34.3816 246.404 36.5597C242.64 38.7377 239.432 41.91 236.781 46.0767C234.129 50.2434 232.306 55.3215 231.312 61.3111C230.342 67.1349 230.46 72.0237 231.667 75.9773C232.875 79.9309 234.911 82.9257 237.775 84.9616C240.663 86.974 244.132 87.9801 248.18 87.9801C250.547 87.9801 252.856 87.6723 255.105 87.0568C257.377 86.4176 259.484 85.4825 261.426 84.2514C263.367 83.0204 265.083 81.517 266.575 79.7415C268.09 77.9422 269.274 75.8826 270.126 73.5625H281.135C279.951 77.161 278.282 80.4517 276.127 83.4347C273.973 86.4176 271.428 88.9981 268.493 91.1761C265.557 93.3542 262.337 95.035 258.833 96.2188C255.33 97.4025 251.625 97.9943 247.718 97.9943C241.303 97.9943 235.834 96.4673 231.312 93.4134C226.814 90.3357 223.583 85.956 221.618 80.2741C219.676 74.5923 219.345 67.8215 220.623 59.9616C221.925 52.3149 224.411 45.7571 228.081 40.2884C231.774 34.7959 236.272 30.5937 241.575 27.6818C246.902 24.7462 252.654 23.2784 258.833 23.2784C262.74 23.2784 266.315 23.8348 269.558 24.9474C272.801 26.0365 275.595 27.6463 277.939 29.777C280.306 31.884 282.129 34.4645 283.407 37.5185C284.686 40.5488 285.313 44.017 285.289 47.9233ZM290.359 97L302.433 24.2727H313.406L308.15 55.8778H344.407L349.663 24.2727H360.671L348.597 97H337.589L342.844 65.2884H306.587L301.332 97H290.359Z" fill="white"/>
</svg>
