<svg width="764" height="222" viewBox="0 0 764 222" fill="none" xmlns="http://www.w3.org/2000/svg">
<mask id="path-1-outside-1_4_70" maskUnits="userSpaceOnUse" x="-1" y="19" width="749" height="83" fill="black">
<rect fill="white" x="-1" y="19" width="749" height="83"/>
<path d="M36.2571 24.2727H47.1946V75.8352C47.1946 80.4991 46.2713 84.4882 44.4247 87.8026C42.6018 91.117 40.0331 93.6501 36.7188 95.402C33.4044 97.1302 29.5218 97.9943 25.071 97.9943C20.9754 97.9943 17.294 97.2486 14.027 95.7571C10.7836 94.2656 8.21496 92.0994 6.32102 89.2585C4.45076 86.3939 3.51562 82.9138 3.51562 78.8182H14.4176C14.4176 80.8305 14.8793 82.5705 15.8026 84.0384C16.7495 85.5062 18.0398 86.6544 19.6733 87.483C21.3305 88.2879 23.2244 88.6903 25.3551 88.6903C27.6752 88.6903 29.6402 88.205 31.25 87.2344C32.8835 86.2401 34.1264 84.7841 34.9787 82.8665C35.831 80.9489 36.2571 78.6051 36.2571 75.8352V24.2727ZM69.3093 97H57.6616L83.8335 24.2727H96.511L122.683 97H111.035L90.4741 37.483H89.9059L69.3093 97ZM71.2624 68.5199H109.047V77.7528H71.2624V68.5199ZM191.886 24.2727V97H181.8L144.833 43.6619H144.158V97H133.185V24.2727H143.342L180.344 77.6818H181.019V24.2727H191.886ZM266.593 24.2727V97H256.507L219.54 43.6619H218.865V97H207.892V24.2727H218.049L255.051 77.6818H255.726V24.2727H266.593ZM282.599 97V24.2727H328.196V33.7188H293.572V55.8778H325.817V65.2884H293.572V87.554H328.622V97H282.599ZM428.018 24.2727V97H417.933L380.966 43.6619H380.291V97H369.318V24.2727H379.474L416.477 77.6818H417.152V24.2727H428.018ZM507.2 60.6364C507.2 68.4015 505.779 75.0777 502.939 80.6648C500.098 86.2282 496.203 90.5133 491.255 93.5199C486.331 96.5028 480.732 97.9943 474.458 97.9943C468.161 97.9943 462.538 96.5028 457.591 93.5199C452.666 90.5133 448.784 86.2164 445.943 80.6293C443.102 75.0421 441.681 68.3778 441.681 60.6364C441.681 52.8712 443.102 46.2069 445.943 40.6435C448.784 35.0563 452.666 30.7713 457.591 27.7884C462.538 24.7817 468.161 23.2784 474.458 23.2784C480.732 23.2784 486.331 24.7817 491.255 27.7884C496.203 30.7713 500.098 35.0563 502.939 40.6435C505.779 46.2069 507.2 52.8712 507.2 60.6364ZM496.333 60.6364C496.333 54.7178 495.375 49.7344 493.457 45.6861C491.563 41.6141 488.959 38.5365 485.645 36.4531C482.354 34.3461 478.625 33.2926 474.458 33.2926C470.268 33.2926 466.528 34.3461 463.237 36.4531C459.946 38.5365 457.342 41.6141 455.424 45.6861C453.53 49.7344 452.583 54.7178 452.583 60.6364C452.583 66.5549 453.53 71.5502 455.424 75.6222C457.342 79.6705 459.946 82.7481 463.237 84.8551C466.528 86.9384 470.268 87.9801 474.458 87.9801C478.625 87.9801 482.354 86.9384 485.645 84.8551C488.959 82.7481 491.563 79.6705 493.457 75.6222C495.375 71.5502 496.333 66.5549 496.333 60.6364ZM520.881 97V24.2727H546.804C552.438 24.2727 557.114 25.2434 560.831 27.1847C564.571 29.1259 567.365 31.813 569.212 35.2457C571.058 38.6548 571.982 42.5966 571.982 47.071C571.982 51.5218 571.046 55.4399 569.176 58.8253C567.33 62.187 564.536 64.803 560.795 66.6733C557.079 68.5436 552.403 69.4787 546.768 69.4787H527.131V60.0327H545.774C549.325 60.0327 552.214 59.5237 554.439 58.5057C556.688 57.4877 558.333 56.008 559.375 54.0668C560.417 52.1255 560.938 49.7936 560.938 47.071C560.938 44.3248 560.405 41.9455 559.339 39.9332C558.298 37.9209 556.652 36.3821 554.403 35.3168C552.178 34.2277 549.254 33.6832 545.632 33.6832H531.854V97H520.881ZM556.783 64.1875L574.751 97H562.251L544.638 64.1875H556.783ZM608.878 97H585.334V24.2727H609.624C616.75 24.2727 622.869 25.7287 627.983 28.6406C633.097 31.5289 637.015 35.6837 639.737 41.1051C642.483 46.5028 643.857 52.9777 643.857 60.5298C643.857 68.1056 642.472 74.616 639.702 80.0611C636.955 85.5062 632.978 89.6965 627.77 92.6321C622.562 95.544 616.264 97 608.878 97ZM596.307 87.4119H608.274C613.814 87.4119 618.419 86.3703 622.088 84.2869C625.758 82.1799 628.504 79.1378 630.327 75.1605C632.15 71.1596 633.061 66.2827 633.061 60.5298C633.061 54.8243 632.15 49.983 630.327 46.0057C628.527 42.0284 625.84 39.0099 622.266 36.9503C618.691 34.8906 614.252 33.8608 608.949 33.8608H596.307V87.4119ZM668.475 24.2727V97H657.502V24.2727H668.475ZM743.155 24.2727V97H733.07L696.103 43.6619H695.428V97H684.455V24.2727H694.611L731.614 77.6818H732.289V24.2727H743.155Z"/>
</mask>
<path d="M36.2571 24.2727V20.2727H32.2571V24.2727H36.2571ZM47.1946 24.2727H51.1946V20.2727H47.1946V24.2727ZM44.4247 87.8026L40.9304 85.8557L40.9251 85.8653L40.9199 85.8749L44.4247 87.8026ZM36.7188 95.402L38.5681 98.9488L38.5781 98.9436L38.588 98.9384L36.7188 95.402ZM14.027 95.7571L12.3558 99.3913L12.3658 99.3959L14.027 95.7571ZM6.32102 89.2585L2.97168 91.4453L2.98217 91.4614L2.99282 91.4773L6.32102 89.2585ZM3.51562 78.8182V74.8182H-0.484375V78.8182H3.51562ZM14.4176 78.8182H18.4176V74.8182H14.4176V78.8182ZM15.8026 84.0384L12.4167 86.1682L12.4289 86.1876L12.4414 86.2069L15.8026 84.0384ZM19.6733 87.483L17.8638 91.0503L17.8946 91.0659L17.9257 91.081L19.6733 87.483ZM31.25 87.2344L33.3154 90.6599L33.3226 90.6555L33.3298 90.6512L31.25 87.2344ZM34.9787 82.8665L31.3234 81.2419L31.3234 81.2419L34.9787 82.8665ZM36.2571 28.2727H47.1946V20.2727H36.2571V28.2727ZM43.1946 24.2727V75.8352H51.1946V24.2727H43.1946ZM43.1946 75.8352C43.1946 79.9723 42.3775 83.2586 40.9304 85.8557L47.919 89.7494C50.1652 85.7178 51.1946 81.0258 51.1946 75.8352H43.1946ZM40.9199 85.8749C39.4698 88.5114 37.4667 90.4822 34.8495 91.8656L38.588 98.9384C42.5995 96.818 45.7338 93.7225 47.9296 89.7302L40.9199 85.8749ZM34.8694 91.8552C32.2253 93.2339 29 93.9943 25.071 93.9943V101.994C30.0435 101.994 34.5834 101.027 38.5681 98.9488L34.8694 91.8552ZM25.071 93.9943C21.4682 93.9943 18.3653 93.3405 15.6882 92.1184L12.3658 99.3959C16.2228 101.157 20.4826 101.994 25.071 101.994V93.9943ZM15.6982 92.1229C13.0954 90.926 11.1133 89.2358 9.64922 87.0397L2.99282 91.4773C5.31663 94.963 8.47185 97.6052 12.3558 99.3913L15.6982 92.1229ZM9.67036 87.0718C8.30223 84.9763 7.51562 82.2924 7.51562 78.8182H-0.484375C-0.484375 83.5353 0.599284 87.8116 2.97168 91.4453L9.67036 87.0718ZM3.51562 82.8182H14.4176V74.8182H3.51562V82.8182ZM10.4176 78.8182C10.4176 81.4608 11.0312 83.9656 12.4167 86.1682L19.1884 81.9085C18.7273 81.1755 18.4176 80.2001 18.4176 78.8182H10.4176ZM12.4414 86.2069C13.7915 88.2996 15.6303 89.9173 17.8638 91.0503L21.4828 83.9156C20.4493 83.3914 19.7075 82.7127 19.1637 81.8698L12.4414 86.2069ZM17.9257 91.081C20.2067 92.1889 22.7136 92.6903 25.3551 92.6903V84.6903C23.7352 84.6903 22.4543 84.3869 21.4209 83.8849L17.9257 91.081ZM25.3551 92.6903C28.2333 92.6903 30.9512 92.0853 33.3154 90.6599L29.1846 83.8089C28.3291 84.3247 27.1171 84.6903 25.3551 84.6903V92.6903ZM33.3298 90.6512C35.7262 89.1925 37.4848 87.0767 38.6339 84.491L31.3234 81.2419C30.7681 82.4915 30.0409 83.2876 29.1702 83.8176L33.3298 90.6512ZM38.6339 84.491C39.7738 81.9263 40.2571 78.9943 40.2571 75.8352H32.2571C32.2571 78.2159 31.8881 79.9714 31.3234 81.2419L38.6339 84.491ZM40.2571 75.8352V24.2727H32.2571V75.8352H40.2571ZM69.3093 97V101H72.1578L73.0894 98.3081L69.3093 97ZM57.6616 97L53.8979 95.6456L51.971 101H57.6616V97ZM83.8335 24.2727V20.2727H81.0218L80.0697 22.9183L83.8335 24.2727ZM96.511 24.2727L100.275 22.9183L99.3227 20.2727H96.511V24.2727ZM122.683 97V101H128.373L126.447 95.6456L122.683 97ZM111.035 97L107.254 98.3061L108.185 101H111.035V97ZM90.4741 37.483L94.2548 36.1768L93.3242 33.483H90.4741V37.483ZM89.9059 37.483V33.483H87.0574L86.1258 36.1748L89.9059 37.483ZM71.2624 68.5199V64.5199H67.2624V68.5199H71.2624ZM109.047 68.5199H113.047V64.5199H109.047V68.5199ZM109.047 77.7528V81.7528H113.047V77.7528H109.047ZM71.2624 77.7528H67.2624V81.7528H71.2624V77.7528ZM69.3093 93H57.6616V101H69.3093V93ZM61.4253 98.3544L87.5972 25.6271L80.0697 22.9183L53.8979 95.6456L61.4253 98.3544ZM83.8335 28.2727H96.511V20.2727H83.8335V28.2727ZM92.7473 25.6271L118.919 98.3544L126.447 95.6456L100.275 22.9183L92.7473 25.6271ZM122.683 93H111.035V101H122.683V93ZM114.816 95.6939L94.2548 36.1768L86.6933 38.7891L107.254 98.3061L114.816 95.6939ZM90.4741 33.483H89.9059V41.483H90.4741V33.483ZM86.1258 36.1748L65.5293 95.6919L73.0894 98.3081L93.6859 38.7911L86.1258 36.1748ZM71.2624 72.5199H109.047V64.5199H71.2624V72.5199ZM105.047 68.5199V77.7528H113.047V68.5199H105.047ZM109.047 73.7528H71.2624V81.7528H109.047V73.7528ZM75.2624 77.7528V68.5199H67.2624V77.7528H75.2624ZM191.886 24.2727H195.886V20.2727H191.886V24.2727ZM191.886 97V101H195.886V97H191.886ZM181.8 97L178.513 99.2785L179.706 101H181.8V97ZM144.833 43.6619L148.121 41.3834L146.928 39.6619H144.833V43.6619ZM144.158 43.6619V39.6619H140.158V43.6619H144.158ZM144.158 97V101H148.158V97H144.158ZM133.185 97H129.185V101H133.185V97ZM133.185 24.2727V20.2727H129.185V24.2727H133.185ZM143.342 24.2727L146.63 21.9947L145.437 20.2727H143.342V24.2727ZM180.344 77.6818L177.056 79.9598L178.25 81.6818H180.344V77.6818ZM181.019 77.6818V81.6818H185.019V77.6818H181.019ZM181.019 24.2727V20.2727H177.019V24.2727H181.019ZM187.886 24.2727V97H195.886V24.2727H187.886ZM191.886 93H181.8V101H191.886V93ZM185.088 94.7215L148.121 41.3834L141.546 45.9405L178.513 99.2785L185.088 94.7215ZM144.833 39.6619H144.158V47.6619H144.833V39.6619ZM140.158 43.6619V97H148.158V43.6619H140.158ZM144.158 93H133.185V101H144.158V93ZM137.185 97V24.2727H129.185V97H137.185ZM133.185 28.2727H143.342V20.2727H133.185V28.2727ZM140.054 26.5507L177.056 79.9598L183.632 75.4038L146.63 21.9947L140.054 26.5507ZM180.344 81.6818H181.019V73.6818H180.344V81.6818ZM185.019 77.6818V24.2727H177.019V77.6818H185.019ZM181.019 28.2727H191.886V20.2727H181.019V28.2727ZM266.593 24.2727H270.593V20.2727H266.593V24.2727ZM266.593 97V101H270.593V97H266.593ZM256.507 97L253.22 99.2785L254.413 101H256.507V97ZM219.54 43.6619L222.828 41.3834L221.635 39.6619H219.54V43.6619ZM218.865 43.6619V39.6619H214.865V43.6619H218.865ZM218.865 97V101H222.865V97H218.865ZM207.892 97H203.892V101H207.892V97ZM207.892 24.2727V20.2727H203.892V24.2727H207.892ZM218.049 24.2727L221.337 21.9947L220.144 20.2727H218.049V24.2727ZM255.051 77.6818L251.764 79.9598L252.957 81.6818H255.051V77.6818ZM255.726 77.6818V81.6818H259.726V77.6818H255.726ZM255.726 24.2727V20.2727H251.726V24.2727H255.726ZM262.593 24.2727V97H270.593V24.2727H262.593ZM266.593 93H256.507V101H266.593V93ZM259.795 94.7215L222.828 41.3834L216.253 45.9405L253.22 99.2785L259.795 94.7215ZM219.54 39.6619H218.865V47.6619H219.54V39.6619ZM214.865 43.6619V97H222.865V43.6619H214.865ZM218.865 93H207.892V101H218.865V93ZM211.892 97V24.2727H203.892V97H211.892ZM207.892 28.2727H218.049V20.2727H207.892V28.2727ZM214.761 26.5507L251.764 79.9598L258.339 75.4038L221.337 21.9947L214.761 26.5507ZM255.051 81.6818H255.726V73.6818H255.051V81.6818ZM259.726 77.6818V24.2727H251.726V77.6818H259.726ZM255.726 28.2727H266.593V20.2727H255.726V28.2727ZM282.599 97H278.599V101H282.599V97ZM282.599 24.2727V20.2727H278.599V24.2727H282.599ZM328.196 24.2727H332.196V20.2727H328.196V24.2727ZM328.196 33.7188V37.7188H332.196V33.7188H328.196ZM293.572 33.7188V29.7188H289.572V33.7188H293.572ZM293.572 55.8778H289.572V59.8778H293.572V55.8778ZM325.817 55.8778H329.817V51.8778H325.817V55.8778ZM325.817 65.2884V69.2884H329.817V65.2884H325.817ZM293.572 65.2884V61.2884H289.572V65.2884H293.572ZM293.572 87.554H289.572V91.554H293.572V87.554ZM328.622 87.554H332.622V83.554H328.622V87.554ZM328.622 97V101H332.622V97H328.622ZM286.599 97V24.2727H278.599V97H286.599ZM282.599 28.2727H328.196V20.2727H282.599V28.2727ZM324.196 24.2727V33.7188H332.196V24.2727H324.196ZM328.196 29.7188H293.572V37.7188H328.196V29.7188ZM289.572 33.7188V55.8778H297.572V33.7188H289.572ZM293.572 59.8778H325.817V51.8778H293.572V59.8778ZM321.817 55.8778V65.2884H329.817V55.8778H321.817ZM325.817 61.2884H293.572V69.2884H325.817V61.2884ZM289.572 65.2884V87.554H297.572V65.2884H289.572ZM293.572 91.554H328.622V83.554H293.572V91.554ZM324.622 87.554V97H332.622V87.554H324.622ZM328.622 93H282.599V101H328.622V93ZM428.018 24.2727H432.018V20.2727H428.018V24.2727ZM428.018 97V101H432.018V97H428.018ZM417.933 97L414.646 99.2785L415.839 101H417.933V97ZM380.966 43.6619L384.253 41.3834L383.06 39.6619H380.966V43.6619ZM380.291 43.6619V39.6619H376.291V43.6619H380.291ZM380.291 97V101H384.291V97H380.291ZM369.318 97H365.318V101H369.318V97ZM369.318 24.2727V20.2727H365.318V24.2727H369.318ZM379.474 24.2727L382.762 21.9947L381.569 20.2727H379.474V24.2727ZM416.477 77.6818L413.189 79.9598L414.382 81.6818H416.477V77.6818ZM417.152 77.6818V81.6818H421.152V77.6818H417.152ZM417.152 24.2727V20.2727H413.152V24.2727H417.152ZM424.018 24.2727V97H432.018V24.2727H424.018ZM428.018 93H417.933V101H428.018V93ZM421.221 94.7215L384.253 41.3834L377.678 45.9405L414.646 99.2785L421.221 94.7215ZM380.966 39.6619H380.291V47.6619H380.966V39.6619ZM376.291 43.6619V97H384.291V43.6619H376.291ZM380.291 93H369.318V101H380.291V93ZM373.318 97V24.2727H365.318V97H373.318ZM369.318 28.2727H379.474V20.2727H369.318V28.2727ZM376.186 26.5507L413.189 79.9598L419.765 75.4038L382.762 21.9947L376.186 26.5507ZM416.477 81.6818H417.152V73.6818H416.477V81.6818ZM421.152 77.6818V24.2727H413.152V77.6818H421.152ZM417.152 28.2727H428.018V20.2727H417.152V28.2727ZM502.939 80.6648L506.501 82.4839L506.504 82.4778L502.939 80.6648ZM491.255 93.5199L493.328 96.9411L493.333 96.9383L491.255 93.5199ZM457.591 93.5199L455.506 96.9338L455.516 96.9397L455.525 96.9455L457.591 93.5199ZM445.943 80.6293L449.508 78.8163L449.508 78.8163L445.943 80.6293ZM445.943 40.6435L449.505 42.4626L449.508 42.4564L445.943 40.6435ZM457.591 27.7884L459.663 31.2096L459.668 31.2067L457.591 27.7884ZM491.255 27.7884L489.171 31.2023L489.18 31.2082L489.19 31.214L491.255 27.7884ZM502.939 40.6435L499.373 42.4565L499.376 42.4626L502.939 40.6435ZM493.457 45.6861L489.83 47.373L489.836 47.3857L489.842 47.3984L493.457 45.6861ZM485.645 36.4531L483.488 39.8218L483.502 39.8308L483.516 39.8397L485.645 36.4531ZM463.237 36.4531L465.376 39.8328L465.385 39.8273L465.394 39.8218L463.237 36.4531ZM455.424 45.6861L451.806 43.9819L451.801 43.9911L455.424 45.6861ZM455.424 75.6222L451.797 77.3091L451.803 77.3218L451.809 77.3345L455.424 75.6222ZM463.237 84.8551L461.08 88.2238L461.089 88.2293L461.097 88.2348L463.237 84.8551ZM485.645 84.8551L487.784 88.2348L487.79 88.2308L485.645 84.8551ZM493.457 75.6222L489.838 73.9179L489.834 73.9271L493.457 75.6222ZM503.2 60.6364C503.2 67.9191 501.868 73.9446 499.373 78.8518L506.504 82.4778C509.691 76.2107 511.2 68.884 511.2 60.6364H503.2ZM499.376 78.8457C496.845 83.8028 493.442 87.5104 489.178 90.1015L493.333 96.9383C498.964 93.5161 503.35 88.6536 506.501 82.4839L499.376 78.8457ZM489.183 90.0987C484.939 92.6694 480.069 93.9943 474.458 93.9943V101.994C481.395 101.994 487.723 100.336 493.328 96.9411L489.183 90.0987ZM474.458 93.9943C468.821 93.9943 463.925 92.6679 459.656 90.0943L455.525 96.9455C461.152 100.338 467.501 101.994 474.458 101.994V93.9943ZM459.675 90.1059C455.438 87.5187 452.043 83.802 449.508 78.8163L442.377 82.4422C445.524 88.6307 449.895 93.5079 455.506 96.9338L459.675 90.1059ZM449.508 78.8163C447.012 73.9075 445.681 67.8932 445.681 60.6364H437.681C437.681 68.8625 439.191 76.1767 442.377 82.4422L449.508 78.8163ZM445.681 60.6364C445.681 53.353 447.013 47.3424 449.505 42.4626L442.38 38.8244C439.19 45.0715 437.681 52.3895 437.681 60.6364H445.681ZM449.508 42.4564C452.042 37.473 455.433 33.7721 459.663 31.2096L455.518 24.3671C449.9 27.7705 445.525 32.6397 442.377 38.8305L449.508 42.4564ZM459.668 31.2067C463.935 28.6136 468.827 27.2784 474.458 27.2784V19.2784C467.495 19.2784 461.142 20.9498 455.513 24.37L459.668 31.2067ZM474.458 27.2784C480.063 27.2784 484.929 28.6122 489.171 31.2023L493.34 24.3744C487.733 20.9512 481.401 19.2784 474.458 19.2784V27.2784ZM489.19 31.214C493.443 33.7777 496.842 37.4779 499.373 42.4564L506.504 38.8305C503.354 32.6348 498.964 27.7649 493.321 24.3627L489.19 31.214ZM499.376 42.4626C501.868 47.3424 503.2 53.353 503.2 60.6364H511.2C511.2 52.3895 509.691 45.0715 506.501 38.8244L499.376 42.4626ZM500.333 60.6364C500.333 54.3074 499.311 48.7003 497.072 43.9737L489.842 47.3984C491.438 50.7684 492.333 55.1282 492.333 60.6364H500.333ZM497.084 43.9992C494.914 39.3336 491.832 35.6181 487.773 33.0666L483.516 39.8397C486.085 41.4549 488.212 43.8946 489.83 47.373L497.084 43.9992ZM487.801 33.0845C483.824 30.5375 479.337 29.2926 474.458 29.2926V37.2926C477.914 37.2926 480.884 38.1547 483.488 39.8218L487.801 33.0845ZM474.458 29.2926C469.561 29.2926 465.062 30.5351 461.08 33.0845L465.394 39.8218C467.994 38.1571 470.975 37.2926 474.458 37.2926V29.2926ZM461.097 33.0735C457.069 35.6236 453.996 39.3316 451.806 43.9819L459.043 47.3903C460.688 43.8966 462.823 41.4494 465.376 39.8328L461.097 33.0735ZM451.801 43.9911C449.592 48.7127 448.583 54.3132 448.583 60.6364H456.583C456.583 55.1224 457.469 50.7561 459.047 47.3811L451.801 43.9911ZM448.583 60.6364C448.583 66.9607 449.593 72.5688 451.797 77.3091L459.051 73.9352C457.468 70.5316 456.583 66.1491 456.583 60.6364H448.583ZM451.809 77.3345C454 81.9592 457.069 85.6557 461.08 88.2238L465.394 81.4865C462.823 79.8405 460.684 77.3817 459.039 73.9098L451.809 77.3345ZM461.097 88.2348C465.077 90.7542 469.57 91.9801 474.458 91.9801V83.9801C470.966 83.9801 467.978 83.1227 465.376 81.4755L461.097 88.2348ZM474.458 91.9801C479.327 91.9801 483.808 90.7519 487.784 88.2348L483.505 81.4755C480.899 83.125 477.923 83.9801 474.458 83.9801V91.9801ZM487.79 88.2308C491.832 85.6612 494.909 81.9571 497.08 77.3172L489.834 73.9271C488.217 77.3838 486.085 79.835 483.499 81.4795L487.79 88.2308ZM497.076 77.3264C499.31 72.5812 500.333 66.9666 500.333 60.6364H492.333C492.333 66.1433 491.439 70.5192 489.838 73.918L497.076 77.3264ZM520.881 97H516.881V101H520.881V97ZM520.881 24.2727V20.2727H516.881V24.2727H520.881ZM560.831 27.1847L558.979 30.7302L558.988 30.735L560.831 27.1847ZM569.212 35.2457L565.689 37.1407L565.694 37.1509L569.212 35.2457ZM569.176 58.8253L565.675 56.891L565.67 56.8995L569.176 58.8253ZM560.795 66.6733L559.007 63.0956L558.998 63.1001L560.795 66.6733ZM527.131 69.4787H523.131V73.4787H527.131V69.4787ZM527.131 60.0327V56.0327H523.131V60.0327H527.131ZM554.439 58.5057L552.789 54.8616L552.782 54.8649L552.775 54.8682L554.439 58.5057ZM559.339 39.9332L555.787 41.7721L555.796 41.7885L555.804 41.8048L559.339 39.9332ZM554.403 35.3168L552.645 38.9096L552.668 38.9208L552.691 38.9317L554.403 35.3168ZM531.854 33.6832V29.6832H527.854V33.6832H531.854ZM531.854 97V101H535.854V97H531.854ZM556.783 64.1875L560.291 62.2662L559.153 60.1875H556.783V64.1875ZM574.751 97V101H581.502L578.26 95.0787L574.751 97ZM562.251 97L558.727 98.8918L559.859 101H562.251V97ZM544.638 64.1875V60.1875H537.951L541.113 66.0793L544.638 64.1875ZM524.881 97V24.2727H516.881V97H524.881ZM520.881 28.2727H546.804V20.2727H520.881V28.2727ZM546.804 28.2727C552.006 28.2727 555.996 29.1722 558.979 30.7302L562.683 23.6391C558.232 21.3146 552.871 20.2727 546.804 20.2727V28.2727ZM558.988 30.735C562.076 32.3374 564.255 34.474 565.689 37.1407L572.734 33.3508C570.476 29.1519 567.067 25.9145 562.674 23.6343L558.988 30.735ZM565.694 37.1509C567.178 39.8904 567.982 43.1586 567.982 47.071H575.982C575.982 42.0346 574.938 37.4192 572.729 33.3406L565.694 37.1509ZM567.982 47.071C567.982 50.9482 567.172 54.1819 565.675 56.891L572.677 60.7595C574.921 56.6979 575.982 52.0953 575.982 47.071H567.982ZM565.67 56.8995C564.25 59.4844 562.089 61.5543 559.007 63.0956L562.584 70.251C566.983 68.0517 570.409 64.8897 572.682 60.7511L565.67 56.8995ZM558.998 63.1001C556 64.6084 551.989 65.4787 546.768 65.4787V73.4787C552.817 73.4787 558.157 72.4787 562.593 70.2464L558.998 63.1001ZM546.768 65.4787H527.131V73.4787H546.768V65.4787ZM531.131 69.4787V60.0327H523.131V69.4787H531.131ZM527.131 64.0327H545.774V56.0327H527.131V64.0327ZM545.774 64.0327C549.661 64.0327 553.175 63.4826 556.103 62.1432L552.775 54.8682C551.252 55.5647 548.99 56.0327 545.774 56.0327V64.0327ZM556.088 62.1498C559.036 60.8154 561.393 58.7666 562.9 55.958L555.85 52.1755C555.274 53.2495 554.339 54.16 552.789 54.8616L556.088 62.1498ZM562.9 55.958C564.319 53.3136 564.938 50.3002 564.938 47.071H556.938C556.938 49.287 556.515 50.9374 555.85 52.1755L562.9 55.958ZM564.938 47.071C564.938 43.8058 564.302 40.758 562.875 38.0617L555.804 41.8048C556.508 43.1331 556.938 44.8438 556.938 47.071H564.938ZM562.892 38.0944C561.408 35.2275 559.074 33.1029 556.116 31.7018L552.691 38.9317C554.231 39.6613 555.188 40.6143 555.787 41.7721L562.892 38.0944ZM556.162 31.7239C553.195 30.2723 549.604 29.6832 545.632 29.6832V37.6832C548.905 37.6832 551.161 38.1832 552.645 38.9096L556.162 31.7239ZM545.632 29.6832H531.854V37.6832H545.632V29.6832ZM527.854 33.6832V97H535.854V33.6832H527.854ZM531.854 93H520.881V101H531.854V93ZM553.274 66.1088L571.243 98.9213L578.26 95.0787L560.291 62.2662L553.274 66.1088ZM574.751 93H562.251V101H574.751V93ZM565.776 95.1082L548.162 62.2957L541.113 66.0793L558.727 98.8918L565.776 95.1082ZM544.638 68.1875H556.783V60.1875H544.638V68.1875ZM585.334 97H581.334V101H585.334V97ZM585.334 24.2727V20.2727H581.334V24.2727H585.334ZM627.983 28.6406L626.004 32.1166L626.016 32.1235L627.983 28.6406ZM639.737 41.1051L636.163 42.9002L636.167 42.9096L636.172 42.9189L639.737 41.1051ZM639.702 80.0611L636.136 78.2475L636.13 78.2598L639.702 80.0611ZM627.77 92.6321L629.722 96.1235L629.734 96.1167L627.77 92.6321ZM596.307 87.4119H592.307V91.4119H596.307V87.4119ZM622.088 84.2869L624.063 87.7654L624.071 87.7606L624.08 87.7558L622.088 84.2869ZM630.327 75.1605L633.963 76.8271L633.967 76.819L630.327 75.1605ZM630.327 46.0057L626.682 47.6544L626.686 47.6633L626.69 47.6723L630.327 46.0057ZM622.266 36.9503L620.269 40.4162L620.269 40.4162L622.266 36.9503ZM596.307 33.8608V29.8608H592.307V33.8608H596.307ZM608.878 93H585.334V101H608.878V93ZM589.334 97V24.2727H581.334V97H589.334ZM585.334 28.2727H609.624V20.2727H585.334V28.2727ZM609.624 28.2727C616.201 28.2727 621.608 29.6137 626.004 32.1166L629.962 25.1647C624.13 21.8436 617.298 20.2727 609.624 20.2727V28.2727ZM626.016 32.1235C630.414 34.6077 633.784 38.1637 636.163 42.9002L643.312 39.31C640.245 33.2038 635.779 28.45 629.95 25.1578L626.016 32.1235ZM636.172 42.9189C638.571 47.6331 639.857 53.4557 639.857 60.5298H647.857C647.857 52.4998 646.396 45.3726 643.302 39.2913L636.172 42.9189ZM639.857 60.5298C639.857 67.6236 638.56 73.4831 636.136 78.2475L643.267 81.8747C646.383 75.749 647.857 68.5875 647.857 60.5298H639.857ZM636.13 78.2598C633.734 83.0119 630.309 86.6095 625.806 89.1475L629.734 96.1167C635.648 92.7835 640.177 88.0004 643.273 81.8623L636.13 78.2598ZM625.818 89.1407C621.332 91.6486 615.741 93 608.878 93V101C616.787 101 623.791 99.4394 629.722 96.1235L625.818 89.1407ZM596.307 91.4119H608.274V83.4119H596.307V91.4119ZM608.274 91.4119C614.296 91.4119 619.632 90.2812 624.063 87.7654L620.113 80.8084C617.205 82.4593 613.332 83.4119 608.274 83.4119V91.4119ZM624.08 87.7558C628.498 85.2191 631.806 81.5343 633.963 76.8271L626.69 73.4939C625.202 76.7413 623.018 79.1407 620.096 80.8181L624.08 87.7558ZM633.967 76.819C636.088 72.1629 637.061 66.6861 637.061 60.5298H629.061C629.061 65.8793 628.211 70.1562 626.687 73.5021L633.967 76.819ZM637.061 60.5298C637.061 54.4166 636.087 48.9727 633.963 44.3391L626.69 47.6723C628.213 50.9932 629.061 55.232 629.061 60.5298H637.061ZM633.971 44.357C631.848 39.6635 628.607 35.9874 624.263 33.4844L620.269 40.4162C623.074 42.0325 625.207 44.3933 626.682 47.6544L633.971 44.357ZM624.263 33.4844C619.931 30.9886 614.757 29.8608 608.949 29.8608V37.8608C613.747 37.8608 617.451 38.7927 620.269 40.4162L624.263 33.4844ZM608.949 29.8608H596.307V37.8608H608.949V29.8608ZM592.307 33.8608V87.4119H600.307V33.8608H592.307ZM668.475 24.2727H672.475V20.2727H668.475V24.2727ZM668.475 97V101H672.475V97H668.475ZM657.502 97H653.502V101H657.502V97ZM657.502 24.2727V20.2727H653.502V24.2727H657.502ZM664.475 24.2727V97H672.475V24.2727H664.475ZM668.475 93H657.502V101H668.475V93ZM661.502 97V24.2727H653.502V97H661.502ZM657.502 28.2727H668.475V20.2727H657.502V28.2727ZM743.155 24.2727H747.155V20.2727H743.155V24.2727ZM743.155 97V101H747.155V97H743.155ZM733.07 97L729.782 99.2785L730.975 101H733.07V97ZM696.103 43.6619L699.39 41.3834L698.197 39.6619H696.103V43.6619ZM695.428 43.6619V39.6619H691.428V43.6619H695.428ZM695.428 97V101H699.428V97H695.428ZM684.455 97H680.455V101H684.455V97ZM684.455 24.2727V20.2727H680.455V24.2727H684.455ZM694.611 24.2727L697.899 21.9947L696.706 20.2727H694.611V24.2727ZM731.614 77.6818L728.326 79.9598L729.519 81.6818H731.614V77.6818ZM732.289 77.6818V81.6818H736.289V77.6818H732.289ZM732.289 24.2727V20.2727H728.289V24.2727H732.289ZM739.155 24.2727V97H747.155V24.2727H739.155ZM743.155 93H733.07V101H743.155V93ZM736.358 94.7215L699.39 41.3834L692.815 45.9405L729.782 99.2785L736.358 94.7215ZM696.103 39.6619H695.428V47.6619H696.103V39.6619ZM691.428 43.6619V97H699.428V43.6619H691.428ZM695.428 93H684.455V101H695.428V93ZM688.455 97V24.2727H680.455V97H688.455ZM684.455 28.2727H694.611V20.2727H684.455V28.2727ZM691.323 26.5507L728.326 79.9598L734.902 75.4038L697.899 21.9947L691.323 26.5507ZM731.614 81.6818H732.289V73.6818H731.614V81.6818ZM736.289 77.6818V24.2727H728.289V77.6818H736.289ZM732.289 28.2727H743.155V20.2727H732.289V28.2727Z" fill="white" mask="url(#path-1-outside-1_4_70)"/>
<path d="M71.9105 149.923H61.044C60.9967 147.556 60.5587 145.473 59.7301 143.673C58.9015 141.85 57.7652 140.323 56.321 139.092C54.9006 137.838 53.2315 136.891 51.3139 136.251C49.3963 135.612 47.3248 135.293 45.0994 135.293C40.8144 135.293 36.7898 136.382 33.0256 138.56C29.2614 140.738 26.0535 143.91 23.402 148.077C20.7505 152.243 18.9276 157.321 17.9332 163.311C16.9626 169.135 17.081 174.024 18.2884 177.977C19.4957 181.931 21.5317 184.926 24.3963 186.962C27.2846 188.974 30.7528 189.98 34.8011 189.98C37.1686 189.98 39.4768 189.672 41.7259 189.057C43.9986 188.418 46.1056 187.482 48.0469 186.251C49.9882 185.02 51.7045 183.517 53.196 181.741C54.7112 179.942 55.8949 177.883 56.7472 175.562H67.7557C66.572 179.161 64.9029 182.452 62.7486 185.435C60.5942 188.418 58.0492 190.998 55.1136 193.176C52.178 195.354 48.9583 197.035 45.4545 198.219C41.9508 199.402 38.2457 199.994 34.3395 199.994C27.9238 199.994 22.455 198.467 17.9332 195.413C13.4351 192.336 10.2036 187.956 8.23864 182.274C6.29735 176.592 5.96591 169.821 7.24432 161.962C8.5464 154.315 11.0322 147.757 14.7017 142.288C18.3949 136.796 22.893 132.594 28.196 129.682C33.5227 126.746 39.2756 125.278 45.4545 125.278C49.3608 125.278 52.9356 125.835 56.179 126.947C59.4224 128.036 62.2159 129.646 64.5597 131.777C66.9271 133.884 68.75 136.464 70.0284 139.518C71.3068 142.549 71.9342 146.017 71.9105 149.923ZM146.085 163.347C144.806 170.993 142.321 177.551 138.627 183.02C134.958 188.489 130.46 192.691 125.133 195.626C119.83 198.538 114.101 199.994 107.946 199.994C101.53 199.994 96.0494 198.467 91.5039 195.413C86.9821 192.336 83.7388 187.968 81.7738 182.31C79.8088 176.628 79.4774 169.857 80.7795 161.997C82.0579 154.35 84.5318 147.793 88.2013 142.324C91.8945 136.831 96.4045 132.617 101.731 129.682C107.082 126.746 112.858 125.278 119.061 125.278C125.429 125.278 130.862 126.817 135.36 129.895C139.882 132.949 143.126 137.329 145.091 143.034C147.056 148.716 147.387 155.487 146.085 163.347ZM135.396 161.997C136.367 156.197 136.248 151.32 135.041 147.366C133.857 143.389 131.833 140.383 128.968 138.347C126.104 136.311 122.647 135.293 118.599 135.293C114.29 135.293 110.254 136.382 106.49 138.56C102.749 140.738 99.5531 143.91 96.9016 148.077C94.2501 152.243 92.439 157.333 91.4684 163.347C90.4741 169.147 90.5806 174.024 91.788 177.977C92.9954 181.931 95.0314 184.926 97.896 186.962C100.784 188.974 104.252 189.98 108.301 189.98C112.586 189.98 116.599 188.903 120.339 186.749C124.103 184.571 127.311 181.41 129.963 177.267C132.614 173.1 134.425 168.01 135.396 161.997ZM156.365 199H144.718L182.963 126.273H195.641L209.739 199H198.091L187.473 139.483H186.905L156.365 199ZM163.042 170.52H200.826L199.263 179.753H161.479L163.042 170.52ZM285.289 149.923H274.423C274.376 147.556 273.938 145.473 273.109 143.673C272.28 141.85 271.144 140.323 269.7 139.092C268.279 137.838 266.61 136.891 264.693 136.251C262.775 135.612 260.704 135.293 258.478 135.293C254.193 135.293 250.169 136.382 246.404 138.56C242.64 140.738 239.432 143.91 236.781 148.077C234.129 152.243 232.306 157.321 231.312 163.311C230.342 169.135 230.46 174.024 231.667 177.977C232.875 181.931 234.911 184.926 237.775 186.962C240.663 188.974 244.132 189.98 248.18 189.98C250.547 189.98 252.856 189.672 255.105 189.057C257.377 188.418 259.484 187.482 261.426 186.251C263.367 185.02 265.083 183.517 266.575 181.741C268.09 179.942 269.274 177.883 270.126 175.562H281.135C279.951 179.161 278.282 182.452 276.127 185.435C273.973 188.418 271.428 190.998 268.493 193.176C265.557 195.354 262.337 197.035 258.833 198.219C255.33 199.402 251.625 199.994 247.718 199.994C241.303 199.994 235.834 198.467 231.312 195.413C226.814 192.336 223.583 187.956 221.618 182.274C219.676 176.592 219.345 169.821 220.623 161.962C221.925 154.315 224.411 147.757 228.081 142.288C231.774 136.796 236.272 132.594 241.575 129.682C246.902 126.746 252.654 125.278 258.833 125.278C262.74 125.278 266.315 125.835 269.558 126.947C272.801 128.036 275.595 129.646 277.939 131.777C280.306 133.884 282.129 136.464 283.407 139.518C284.686 142.549 285.313 146.017 285.289 149.923ZM290.359 199L302.433 126.273H313.406L308.15 157.878H344.407L349.663 126.273H360.671L348.597 199H337.589L342.844 167.288H306.587L301.332 199H290.359Z" fill="white"/>
</svg>
