<svg width="64" height="64" viewBox="0 0 64 64" fill="none" xmlns="http://www.w3.org/2000/svg">
<mask id="path-1-outside-1_57_2" maskUnits="userSpaceOnUse" x="10" y="8" width="44" height="49" fill="black">
<rect fill="white" x="10" y="8" width="44" height="49"/>
<path d="M12 46.4021C12 45.5979 12.1881 44.8454 12.5643 44.1444C12.9195 43.4227 13.4211 42.8042 14.069 42.2886C14.7378 41.7526 15.5214 41.3299 16.42 41.0206C17.3396 40.7114 18.3323 40.5567 19.3982 40.5567C20.4848 40.5567 21.4775 40.7114 22.3762 41.0206C23.2957 41.3299 24.0794 41.7526 24.7273 42.2886C25.3751 42.8042 25.8767 43.4227 26.232 44.1444C26.5873 44.8454 26.7648 45.5979 26.7648 46.4021C26.7648 47.6804 26.3365 48.8144 25.4796 49.8041C24.6228 50.7938 23.4629 51.4948 22 51.9073C22.397 52.0722 22.8359 52.1959 23.3166 52.2783C23.8182 52.3608 24.2884 52.4021 24.7273 52.4021C25.5841 52.4021 26.3051 52.2475 26.8903 51.9381C27.4963 51.6083 27.9875 51.1753 28.3636 50.6392C28.7398 50.1031 29.0115 49.4846 29.1786 48.7836C29.3459 48.0619 29.4295 47.299 29.4295 46.4948C29.4295 45.5258 29.1996 44.4949 28.7398 43.4021C28.3009 42.3093 27.8098 41.2062 27.2664 40.0928C26.6604 38.8969 26.1065 37.7319 25.605 36.5979C25.1244 35.4433 24.884 34.3815 24.884 33.4124V12.4124H19.3982V10H52V12.4124H46.5141V40.9279C46.5141 43.6908 46.1692 45.9794 45.4796 47.7939C44.8108 49.5877 43.7973 51.0207 42.4389 52.0928C41.1013 53.165 39.419 53.9175 37.3918 54.3505C35.3855 54.7835 33.0344 55 30.3386 55C27.8725 55 25.5319 54.8041 23.3166 54.4124C21.1013 54.0207 19.1473 53.4536 17.4546 52.7114C15.7826 51.9691 14.4556 51.0722 13.4734 50.0207C12.4911 48.9485 12 47.7423 12 46.4021Z"/>
</mask>
<path d="M12 46.4021C12 45.5979 12.1881 44.8454 12.5643 44.1444C12.9195 43.4227 13.4211 42.8042 14.069 42.2886C14.7378 41.7526 15.5214 41.3299 16.42 41.0206C17.3396 40.7114 18.3323 40.5567 19.3982 40.5567C20.4848 40.5567 21.4775 40.7114 22.3762 41.0206C23.2957 41.3299 24.0794 41.7526 24.7273 42.2886C25.3751 42.8042 25.8767 43.4227 26.232 44.1444C26.5873 44.8454 26.7648 45.5979 26.7648 46.4021C26.7648 47.6804 26.3365 48.8144 25.4796 49.8041C24.6228 50.7938 23.4629 51.4948 22 51.9073C22.397 52.0722 22.8359 52.1959 23.3166 52.2783C23.8182 52.3608 24.2884 52.4021 24.7273 52.4021C25.5841 52.4021 26.3051 52.2475 26.8903 51.9381C27.4963 51.6083 27.9875 51.1753 28.3636 50.6392C28.7398 50.1031 29.0115 49.4846 29.1786 48.7836C29.3459 48.0619 29.4295 47.299 29.4295 46.4948C29.4295 45.5258 29.1996 44.4949 28.7398 43.4021C28.3009 42.3093 27.8098 41.2062 27.2664 40.0928C26.6604 38.8969 26.1065 37.7319 25.605 36.5979C25.1244 35.4433 24.884 34.3815 24.884 33.4124V12.4124H19.3982V10H52V12.4124H46.5141V40.9279C46.5141 43.6908 46.1692 45.9794 45.4796 47.7939C44.8108 49.5877 43.7973 51.0207 42.4389 52.0928C41.1013 53.165 39.419 53.9175 37.3918 54.3505C35.3855 54.7835 33.0344 55 30.3386 55C27.8725 55 25.5319 54.8041 23.3166 54.4124C21.1013 54.0207 19.1473 53.4536 17.4546 52.7114C15.7826 51.9691 14.4556 51.0722 13.4734 50.0207C12.4911 48.9485 12 47.7423 12 46.4021Z" fill="#D9D9D9"/>
<path d="M12 46.4021C12 45.5979 12.1881 44.8454 12.5643 44.1444C12.9195 43.4227 13.4211 42.8042 14.069 42.2886C14.7378 41.7526 15.5214 41.3299 16.42 41.0206C17.3396 40.7114 18.3323 40.5567 19.3982 40.5567C20.4848 40.5567 21.4775 40.7114 22.3762 41.0206C23.2957 41.3299 24.0794 41.7526 24.7273 42.2886C25.3751 42.8042 25.8767 43.4227 26.232 44.1444C26.5873 44.8454 26.7648 45.5979 26.7648 46.4021C26.7648 47.6804 26.3365 48.8144 25.4796 49.8041C24.6228 50.7938 23.4629 51.4948 22 51.9073C22.397 52.0722 22.8359 52.1959 23.3166 52.2783C23.8182 52.3608 24.2884 52.4021 24.7273 52.4021C25.5841 52.4021 26.3051 52.2475 26.8903 51.9381C27.4963 51.6083 27.9875 51.1753 28.3636 50.6392C28.7398 50.1031 29.0115 49.4846 29.1786 48.7836C29.3459 48.0619 29.4295 47.299 29.4295 46.4948C29.4295 45.5258 29.1996 44.4949 28.7398 43.4021C28.3009 42.3093 27.8098 41.2062 27.2664 40.0928C26.6604 38.8969 26.1065 37.7319 25.605 36.5979C25.1244 35.4433 24.884 34.3815 24.884 33.4124V12.4124H19.3982V10H52V12.4124H46.5141V40.9279C46.5141 43.6908 46.1692 45.9794 45.4796 47.7939C44.8108 49.5877 43.7973 51.0207 42.4389 52.0928C41.1013 53.165 39.419 53.9175 37.3918 54.3505C35.3855 54.7835 33.0344 55 30.3386 55C27.8725 55 25.5319 54.8041 23.3166 54.4124C21.1013 54.0207 19.1473 53.4536 17.4546 52.7114C15.7826 51.9691 14.4556 51.0722 13.4734 50.0207C12.4911 48.9485 12 47.7423 12 46.4021Z" stroke="black" stroke-width="4" mask="url(#path-1-outside-1_57_2)"/>
</svg>
