<svg width="880" height="172" viewBox="0 0 880 172" fill="none" xmlns="http://www.w3.org/2000/svg">
<path d="M0.0625 160.625C0.0625 159.609 0.296875 158.659 0.765625 157.773C1.20833 156.862 1.83333 156.081 2.64062 155.43C3.47396 154.753 4.45052 154.219 5.57031 153.828C6.71615 153.437 7.95312 153.242 9.28125 153.242C10.6354 153.242 11.8724 153.437 12.9922 153.828C14.138 154.219 15.1146 154.753 15.9219 155.43C16.7292 156.081 17.3542 156.862 17.7969 157.773C18.2396 158.659 18.4609 159.609 18.4609 160.625C18.4609 162.24 17.9271 163.672 16.8594 164.922C15.7917 166.172 14.3464 167.057 12.5234 167.578C13.0182 167.786 13.5651 167.943 14.1641 168.047C14.7891 168.151 15.375 168.203 15.9219 168.203C16.9896 168.203 17.888 168.008 18.6172 167.617C19.3724 167.2 19.9844 166.654 20.4531 165.977C20.9219 165.299 21.2604 164.518 21.4688 163.633C21.6771 162.721 21.7812 161.758 21.7812 160.742C21.7812 159.518 21.4948 158.216 20.9219 156.836C20.375 155.456 19.763 154.062 19.0859 152.656C18.3307 151.146 17.6406 149.674 17.0156 148.242C16.4167 146.784 16.1172 145.443 16.1172 144.219V117.695H9.28125V114.648H49.9062V117.695H43.0703V153.711C43.0703 157.2 42.6406 160.091 41.7812 162.383C40.9479 164.648 39.6849 166.458 37.9922 167.812C36.3255 169.167 34.2292 170.117 31.7031 170.664C29.2031 171.211 26.2734 171.484 22.9141 171.484C19.8411 171.484 16.9245 171.237 14.1641 170.742C11.4036 170.247 8.96875 169.531 6.85938 168.594C4.77604 167.656 3.1224 166.523 1.89844 165.195C0.674479 163.841 0.0625 162.318 0.0625 160.625Z" fill="#D9D9D9"/>
<path d="M58.9422 166.914C61.0516 166.914 62.6661 166.771 63.7859 166.484C64.9318 166.198 65.6609 165.677 65.9734 164.922L86.0906 114.648H103.239L126.794 166.914H133.591V170H89.2937V166.914H96.8328L91.4422 153.437H74.2547L69.6844 164.805C69.6583 164.883 69.6453 164.987 69.6453 165.117C69.6453 165.482 69.8146 165.781 70.1531 166.016C70.5177 166.224 71.0125 166.406 71.6375 166.562C72.2885 166.693 73.0437 166.784 73.9031 166.836C74.7885 166.888 75.7521 166.914 76.7937 166.914V170H58.9422V166.914ZM90.2312 150.352L82.6922 131.914L75.4656 150.352H90.2312Z" fill="#D9D9D9"/>
<path d="M142.431 166.914C143.551 166.914 144.632 166.888 145.673 166.836C146.741 166.758 147.679 166.641 148.486 166.484C149.293 166.328 149.931 166.107 150.4 165.82C150.895 165.534 151.142 165.156 151.142 164.687V123.945L146.377 117.695H141.728V114.648H175.869L200.986 147.734V120C200.986 119.531 200.817 119.154 200.478 118.867C200.166 118.555 199.697 118.32 199.072 118.164C198.447 117.982 197.692 117.865 196.806 117.812C195.921 117.734 194.918 117.695 193.798 117.695V114.648H211.494V117.695C209.254 117.695 207.496 117.839 206.22 118.125C204.944 118.411 204.306 119.036 204.306 120V170H184.502L154.462 128.32V164.492C154.462 165.013 154.671 165.43 155.087 165.742C155.53 166.055 156.116 166.302 156.845 166.484C157.601 166.641 158.486 166.758 159.502 166.836C160.517 166.888 161.598 166.914 162.744 166.914V170H142.431V166.914Z" fill="#D9D9D9"/>
<path d="M222.522 166.914C223.642 166.914 224.722 166.888 225.764 166.836C226.832 166.758 227.769 166.641 228.577 166.484C229.384 166.328 230.022 166.107 230.491 165.82C230.985 165.534 231.233 165.156 231.233 164.687V123.945L226.467 117.695H221.819V114.648H255.959L281.077 147.734V120C281.077 119.531 280.907 119.154 280.569 118.867C280.256 118.555 279.788 118.32 279.163 118.164C278.538 117.982 277.782 117.865 276.897 117.812C276.011 117.734 275.009 117.695 273.889 117.695V114.648H291.584V117.695C289.345 117.695 287.587 117.839 286.311 118.125C285.035 118.411 284.397 119.036 284.397 120V170H264.592L234.553 128.32V164.492C234.553 165.013 234.761 165.43 235.178 165.742C235.621 166.055 236.207 166.302 236.936 166.484C237.691 166.641 238.577 166.758 239.592 166.836C240.608 166.888 241.689 166.914 242.834 166.914V170H222.522V166.914Z" fill="#D9D9D9"/>
<path d="M304.683 166.914H311.519V117.695H304.683V114.648H365.191V133.672H362.534L351.675 117.695H338.472V140.937H344.37L349.527 128.047H352.066V156.953H349.527L344.37 143.984H338.472V166.914H353.042L364.37 149.141H367.066V170H304.683V166.914Z" fill="#D9D9D9"/>
<path d="M418.888 166.914C420.007 166.914 421.088 166.888 422.13 166.836C423.197 166.758 424.135 166.641 424.942 166.484C425.749 166.328 426.388 166.107 426.856 165.82C427.351 165.534 427.598 165.156 427.598 164.687V123.945L422.833 117.695H418.184V114.648H452.325L477.442 147.734V120C477.442 119.531 477.273 119.154 476.934 118.867C476.622 118.555 476.153 118.32 475.528 118.164C474.903 117.982 474.148 117.865 473.263 117.812C472.377 117.734 471.374 117.695 470.255 117.695V114.648H487.95V117.695C485.71 117.695 483.953 117.839 482.677 118.125C481.401 118.411 480.763 119.036 480.763 120V170H460.958L430.919 128.32V164.492C430.919 165.013 431.127 165.43 431.544 165.742C431.986 166.055 432.572 166.302 433.302 166.484C434.057 166.641 434.942 166.758 435.958 166.836C436.973 166.888 438.054 166.914 439.2 166.914V170H418.888V166.914Z" fill="#D9D9D9"/>
<path d="M501.791 142.305C501.791 139.727 502.051 137.214 502.572 134.766C503.119 132.318 503.952 130.013 505.072 127.852C506.218 125.69 507.676 123.711 509.447 121.914C511.218 120.117 513.34 118.568 515.814 117.266C518.288 115.964 521.14 114.961 524.369 114.258C527.598 113.529 531.231 113.164 535.267 113.164C539.304 113.164 542.936 113.529 546.166 114.258C549.395 114.961 552.246 115.964 554.72 117.266C557.22 118.568 559.356 120.117 561.127 121.914C562.897 123.711 564.343 125.69 565.463 127.852C566.582 130.013 567.403 132.318 567.923 134.766C568.47 137.214 568.744 139.727 568.744 142.305C568.744 144.883 568.47 147.409 567.923 149.883C567.403 152.331 566.582 154.635 565.463 156.797C564.343 158.958 562.897 160.937 561.127 162.734C559.356 164.531 557.22 166.081 554.72 167.383C552.246 168.685 549.395 169.687 546.166 170.391C542.936 171.12 539.304 171.484 535.267 171.484C531.231 171.484 527.598 171.12 524.369 170.391C521.14 169.687 518.288 168.685 515.814 167.383C513.34 166.081 511.218 164.531 509.447 162.734C507.676 160.937 506.218 158.958 505.072 156.797C503.952 154.635 503.119 152.331 502.572 149.883C502.051 147.435 501.791 144.909 501.791 142.305ZM535.267 168.789C536.621 168.789 537.741 168.385 538.627 167.578C539.538 166.771 540.267 165.365 540.814 163.359C541.361 161.328 541.739 158.62 541.947 155.234C542.181 151.823 542.298 147.513 542.298 142.305C542.298 137.122 542.181 132.839 541.947 129.453C541.739 126.042 541.361 123.333 540.814 121.328C540.267 119.297 539.538 117.878 538.627 117.07C537.741 116.263 536.621 115.859 535.267 115.859C533.913 115.859 532.78 116.263 531.869 117.07C530.983 117.878 530.267 119.297 529.72 121.328C529.2 123.333 528.822 126.042 528.588 129.453C528.379 132.839 528.275 137.122 528.275 142.305C528.275 147.513 528.379 151.823 528.588 155.234C528.822 158.62 529.2 161.328 529.72 163.359C530.267 165.365 530.983 166.771 531.869 167.578C532.78 168.385 533.913 168.789 535.267 168.789Z" fill="#D9D9D9"/>
<path d="M584.42 166.914H591.256V117.695H584.42V114.648H629.069C632.636 114.648 635.814 114.935 638.6 115.508C641.412 116.081 643.769 116.966 645.67 118.164C647.597 119.336 649.056 120.833 650.045 122.656C651.061 124.479 651.569 126.628 651.569 129.102C651.569 131.263 651.126 133.19 650.241 134.883C649.381 136.575 647.897 138.008 645.787 139.18C643.704 140.352 640.905 141.263 637.389 141.914C633.899 142.539 629.537 142.865 624.303 142.891C628.991 142.917 632.988 143.151 636.295 143.594C639.603 144.01 642.298 144.753 644.381 145.82C646.491 146.862 648.027 148.281 648.991 150.078C649.954 151.849 650.436 154.102 650.436 156.836C650.436 157.591 650.423 158.242 650.397 158.789C650.397 159.31 650.384 159.935 650.358 160.664C650.306 161.419 650.28 162.005 650.28 162.422C650.28 162.812 650.28 163.268 650.28 163.789C650.28 164.596 650.384 165.208 650.592 165.625C650.827 166.042 651.204 166.25 651.725 166.25C652.584 166.25 653.209 165.417 653.6 163.75C653.991 162.083 654.186 159.674 654.186 156.523H657.467V157.773C657.467 160.352 657.22 162.526 656.725 164.297C656.256 166.068 655.397 167.5 654.147 168.594C652.923 169.687 651.269 170.469 649.186 170.937C647.103 171.432 644.459 171.68 641.256 171.68C638.183 171.68 635.631 171.354 633.6 170.703C631.569 170.078 629.941 169.141 628.717 167.891C627.519 166.641 626.673 165.091 626.178 163.242C625.683 161.393 625.436 159.258 625.436 156.836C625.436 154.18 625.293 152.005 625.006 150.312C624.746 148.62 624.329 147.292 623.756 146.328C623.183 145.339 622.428 144.661 621.491 144.297C620.579 143.932 619.485 143.75 618.209 143.75V166.914H625.006V170H584.42V166.914ZM618.209 140.664C619.616 140.664 620.84 140.495 621.881 140.156C622.923 139.818 623.782 139.219 624.459 138.359C625.162 137.5 625.683 136.328 626.022 134.844C626.36 133.333 626.53 131.419 626.53 129.102C626.53 126.784 626.36 124.896 626.022 123.437C625.683 121.953 625.162 120.794 624.459 119.961C623.782 119.102 622.923 118.516 621.881 118.203C620.84 117.865 619.616 117.695 618.209 117.695V140.664Z" fill="#D9D9D9"/>
<path d="M670.917 166.914H677.753V117.695H670.917V114.648H714.472C718.612 114.648 722.349 115.273 725.683 116.523C729.016 117.747 731.855 119.544 734.198 121.914C736.542 124.284 738.339 127.187 739.589 130.625C740.865 134.036 741.503 137.93 741.503 142.305C741.503 146.706 740.865 150.625 739.589 154.062C738.339 157.5 736.542 160.404 734.198 162.773C731.855 165.117 729.016 166.914 725.683 168.164C722.349 169.388 718.612 170 714.472 170H670.917V166.914ZM704.706 166.914C705.93 166.914 707.037 166.797 708.027 166.562C709.042 166.302 709.928 165.833 710.683 165.156C711.438 164.479 712.089 163.568 712.636 162.422C713.183 161.25 713.626 159.753 713.964 157.93C714.329 156.107 714.589 153.919 714.745 151.367C714.928 148.789 715.019 145.768 715.019 142.305C715.019 138.841 714.928 135.833 714.745 133.281C714.589 130.729 714.329 128.542 713.964 126.719C713.626 124.896 713.183 123.398 712.636 122.227C712.089 121.055 711.438 120.143 710.683 119.492C709.928 118.815 709.042 118.346 708.027 118.086C707.037 117.825 705.93 117.695 704.706 117.695V166.914Z" fill="#D9D9D9"/>
<path d="M757.18 166.914H764.016V117.695H757.18V114.648H797.766V117.695H790.969V166.914H797.766V170H757.18V166.914Z" fill="#D9D9D9"/>
<path d="M810.669 166.914C811.789 166.914 812.869 166.888 813.911 166.836C814.979 166.758 815.916 166.641 816.723 166.484C817.531 166.328 818.169 166.107 818.638 165.82C819.132 165.534 819.38 165.156 819.38 164.687V123.945L814.614 117.695H809.966V114.648H844.106L869.223 147.734V120C869.223 119.531 869.054 119.154 868.716 118.867C868.403 118.555 867.934 118.32 867.309 118.164C866.684 117.982 865.929 117.865 865.044 117.812C864.158 117.734 863.156 117.695 862.036 117.695V114.648H879.731V117.695C877.492 117.695 875.734 117.839 874.458 118.125C873.182 118.411 872.544 119.036 872.544 120V170H852.739L822.7 128.32V164.492C822.7 165.013 822.908 165.43 823.325 165.742C823.768 166.055 824.354 166.302 825.083 166.484C825.838 166.641 826.723 166.758 827.739 166.836C828.755 166.888 829.835 166.914 830.981 166.914V170H810.669V166.914Z" fill="#D9D9D9"/>
<path d="M259.32 48.84C254.12 48.84 249.56 47.88 245.64 45.96C241.72 44 238.66 41.26 236.46 37.74C234.3 34.22 233.22 30.12 233.22 25.44C233.22 20.72 234.3 16.62 236.46 13.14C238.66 9.65997 241.76 6.95997 245.76 5.03997C249.76 3.11997 254.5 2.15997 259.98 2.15997C261.3 2.15997 262.4 2.21997 263.28 2.33997C264.16 2.41997 264.98 2.51997 265.74 2.63997C266.5 2.75997 267.36 2.87997 268.32 2.99997C269.32 3.07997 270.56 3.11997 272.04 3.11997L273.84 15.12H273.24C272.8 12.76 271.92 10.68 270.6 8.87997C269.32 7.03997 267.7 5.59997 265.74 4.55997C263.82 3.47997 261.68 2.93997 259.32 2.93997C257 2.93997 254.86 3.49997 252.9 4.61997C250.94 5.73997 249.26 7.29997 247.86 9.29997C246.46 11.34 245.36 13.78 244.56 16.62C243.8 19.42 243.42 22.5 243.42 25.86C243.42 30.3 244.1 34.18 245.46 37.5C246.82 40.78 248.74 43.34 251.22 45.18C253.7 46.98 256.62 47.88 259.98 47.88C263.82 47.88 266.98 46.74 269.46 44.46C271.98 42.14 273.54 38.92 274.14 34.8H274.74L273 47.76C271.12 47.76 269.46 47.84 268.02 48C266.58 48.2 265.18 48.38 263.82 48.54C262.5 48.74 261 48.84 259.32 48.84Z" fill="white"/>
<path d="M293.424 48.84C290.144 48.84 287.264 48.18 284.784 46.86C282.344 45.54 280.444 43.68 279.084 41.28C277.724 38.88 277.044 36.04 277.044 32.76C277.044 29.48 277.724 26.64 279.084 24.24C280.444 21.84 282.344 19.98 284.784 18.66C287.264 17.34 290.144 16.68 293.424 16.68C296.704 16.68 299.564 17.34 302.004 18.66C304.444 19.98 306.344 21.84 307.704 24.24C309.064 26.64 309.744 29.48 309.744 32.76C309.744 36.04 309.064 38.88 307.704 41.28C306.344 43.68 304.444 45.54 302.004 46.86C299.564 48.18 296.704 48.84 293.424 48.84ZM293.364 48.06C294.764 48.06 295.964 47.36 296.964 45.96C297.964 44.56 298.744 42.7 299.304 40.38C299.864 38.02 300.144 35.46 300.144 32.7C300.144 29.7 299.844 27.06 299.244 24.78C298.684 22.46 297.884 20.66 296.844 19.38C295.844 18.06 294.704 17.4 293.424 17.4C292.064 17.4 290.864 18.1 289.824 19.5C288.824 20.9 288.044 22.76 287.484 25.08C286.924 27.4 286.644 29.94 286.644 32.7C286.644 35.74 286.944 38.42 287.544 40.74C288.144 43.06 288.944 44.86 289.944 46.14C290.984 47.42 292.124 48.06 293.364 48.06Z" fill="white"/>
<path d="M320.53 48.84C318.09 48.84 316.13 48.18 314.65 46.86C313.17 45.54 312.43 43.8 312.43 41.64C312.43 40.72 312.59 39.86 312.91 39.06C313.23 38.22 313.83 37.4 314.71 36.6C315.63 35.8 316.89 34.98 318.49 34.14C320.09 33.26 322.21 32.34 324.85 31.38L330.43 29.34V24.84C330.43 22.56 330.07 20.76 329.35 19.44C328.63 18.08 327.63 17.4 326.35 17.4C324.83 17.44 323.53 18.44 322.45 20.4C321.41 22.36 320.71 25.08 320.35 28.56L313.87 24.84C314.55 23.2 315.59 21.76 316.99 20.52C318.39 19.28 319.99 18.32 321.79 17.64C323.63 16.96 325.55 16.62 327.55 16.62C330.95 16.62 333.71 17.58 335.83 19.5C337.99 21.38 339.07 23.96 339.07 27.24V41.7C339.07 44.02 339.85 45.18 341.41 45.18C342.33 45.18 343.23 44.68 344.11 43.68L344.59 44.1C343.55 45.5 342.29 46.64 340.81 47.52C339.33 48.4 337.89 48.84 336.49 48.84C334.97 48.84 333.65 48.32 332.53 47.28C331.45 46.24 330.77 44.86 330.49 43.14C328.53 45.14 326.81 46.6 325.33 47.52C323.89 48.4 322.29 48.84 320.53 48.84ZM325.03 45.12C325.91 45.12 326.75 44.9 327.55 44.46C328.39 44.02 329.33 43.3 330.37 42.3L330.43 30.12L328.03 31.02C325.99 31.78 324.43 32.56 323.35 33.36C322.27 34.12 321.51 34.98 321.07 35.94C320.67 36.9 320.47 38 320.47 39.24C320.47 40.96 320.89 42.38 321.73 43.5C322.61 44.58 323.71 45.12 325.03 45.12Z" fill="white"/>
<path d="M358.054 48.84C355.334 48.84 352.914 48.18 350.794 46.86C348.674 45.5 347.014 43.62 345.814 41.22C344.654 38.82 344.074 36.08 344.074 33C344.074 29.8 344.734 26.98 346.054 24.54C347.374 22.06 349.174 20.14 351.454 18.78C353.774 17.38 356.374 16.68 359.254 16.68C362.614 16.68 365.394 17.6 367.594 19.44C369.834 21.24 371.174 23.7 371.614 26.82L364.414 30.84C364.414 26.76 363.894 23.52 362.854 21.12C361.814 18.76 360.354 17.58 358.474 17.58C357.194 17.58 356.074 18.1 355.114 19.14C354.194 20.18 353.474 21.58 352.954 23.34C352.474 25.1 352.234 27.06 352.234 29.22C352.234 31.98 352.654 34.42 353.494 36.54C354.334 38.62 355.514 40.26 357.034 41.46C358.554 42.62 360.354 43.2 362.434 43.2C364.354 43.2 366.174 42.72 367.894 41.76C369.654 40.8 371.094 39.5 372.214 37.86L372.814 38.04C372.134 40.2 371.054 42.1 369.574 43.74C368.094 45.34 366.354 46.6 364.354 47.52C362.394 48.4 360.294 48.84 358.054 48.84Z" fill="white"/>
<path d="M372.152 48V47.4C373.552 47.4 374.592 47.12 375.272 46.56C375.992 45.96 376.452 45.2 376.652 44.28C376.892 43.36 377.012 42.36 377.012 41.28V8.39997C377.012 6.95997 376.552 5.79997 375.632 4.91997C374.752 4.03997 373.592 3.59997 372.152 3.59997V2.99997H378.272C380.312 2.99997 381.872 2.77997 382.952 2.33997C383.952 1.89997 384.652 1.35997 385.052 0.719971H385.652V23.52C386.732 21.4 388.312 19.74 390.392 18.54C392.472 17.3 394.692 16.68 397.052 16.68C398.932 16.68 400.532 17.12 401.852 18C403.172 18.84 404.172 19.98 404.852 21.42C405.572 22.86 405.932 24.48 405.932 26.28V42.6C405.932 44.08 406.372 45.26 407.252 46.14C408.172 46.98 409.352 47.4 410.792 47.4V48H392.492V47.4C393.932 47.4 395.092 46.98 395.972 46.14C396.892 45.26 397.352 44.08 397.352 42.6V25.68C397.352 24.8 397.232 23.86 396.992 22.86C396.752 21.82 396.312 20.94 395.672 20.22C395.072 19.46 394.212 19.08 393.092 19.08C392.052 19.08 391.052 19.4 390.092 20.04C389.172 20.64 388.332 21.4 387.572 22.32C386.812 23.24 386.172 24.16 385.652 25.08V41.28C385.652 42.36 385.752 43.36 385.952 44.28C386.192 45.2 386.652 45.96 387.332 46.56C388.052 47.12 389.112 47.4 390.512 47.4V48H372.152Z" fill="white"/>
<path d="M410.131 48V47.4H410.191C411.631 47.4 412.791 46.96 413.671 46.08C414.551 45.2 414.991 44.04 414.991 42.6V22.92C414.991 21.4 414.671 20.22 414.031 19.38C413.431 18.54 412.131 18.12 410.131 18.12V17.52H416.251C418.291 17.52 419.851 17.3 420.931 16.86C421.931 16.42 422.631 15.88 423.031 15.24H423.631V42.6C423.631 44.04 424.071 45.2 424.951 46.08C425.831 46.96 426.991 47.4 428.431 47.4H428.491V48H410.131ZM419.251 11.46C417.811 11.46 416.611 11 415.651 10.08C414.731 9.11997 414.271 7.91997 414.271 6.47997C414.271 5.03997 414.731 3.85997 415.651 2.93997C416.611 1.97997 417.811 1.49997 419.251 1.49997C420.651 1.49997 421.811 1.97997 422.731 2.93997C423.691 3.89997 424.171 5.07997 424.171 6.47997C424.171 7.87997 423.691 9.05997 422.731 10.02C421.811 10.98 420.651 11.46 419.251 11.46Z" fill="white"/>
<path d="M427.883 48V47.4H427.943C429.383 47.4 430.543 46.96 431.423 46.08C432.303 45.2 432.743 44.04 432.743 42.6V22.92C432.743 21.4 432.423 20.22 431.783 19.38C431.183 18.54 429.883 18.12 427.883 18.12V17.52H433.823C435.863 17.52 437.423 17.3 438.503 16.86C439.503 16.42 440.203 15.88 440.603 15.24H441.203L441.263 23.64C442.303 21.56 443.883 19.88 446.003 18.6C448.123 17.32 450.363 16.68 452.723 16.68C455.403 16.68 457.543 17.56 459.143 19.32C460.783 21.08 461.603 23.4 461.603 26.28V42.6C461.603 44.04 462.043 45.2 462.923 46.08C463.803 46.96 464.963 47.4 466.403 47.4H466.463V48H448.163V47.4H448.223C449.663 47.4 450.823 46.96 451.703 46.08C452.583 45.2 453.023 44.04 453.023 42.6V25.68C453.023 23.68 452.623 22.08 451.823 20.88C451.063 19.68 450.043 19.08 448.763 19.08C447.523 19.08 446.223 19.62 444.863 20.7C443.543 21.74 442.383 23.16 441.383 24.96V42.6C441.383 44.04 441.823 45.2 442.703 46.08C443.583 46.96 444.743 47.4 446.183 47.4H446.243V48H427.883Z" fill="white"/>
<path d="M480.149 61.44C475.909 61.44 472.469 60.86 469.829 59.7C467.229 58.58 465.929 57.1 465.929 55.26C465.929 53.86 466.589 52.6 467.909 51.48C469.269 50.4 471.109 49.56 473.429 48.96C469.669 48 467.789 46.3 467.789 43.86C467.789 42.54 468.309 41.32 469.349 40.2C470.389 39.04 471.849 38.12 473.729 37.44C471.729 36.56 470.169 35.28 469.049 33.6C467.969 31.92 467.429 29.94 467.429 27.66C467.429 24.34 468.569 21.68 470.849 19.68C473.169 17.68 476.269 16.68 480.149 16.68C481.989 16.68 483.789 16.96 485.549 17.52H496.589L495.989 18.6H487.829C489.429 19.52 490.649 20.76 491.489 22.32C492.369 23.84 492.809 25.62 492.809 27.66C492.809 30.98 491.669 33.66 489.389 35.7C487.149 37.7 484.069 38.7 480.149 38.7C477.989 38.7 476.089 38.38 474.449 37.74C473.169 38.42 472.529 39.22 472.529 40.14C472.529 40.94 473.089 41.48 474.209 41.76C474.769 41.92 475.569 42.06 476.609 42.18C477.649 42.3 478.909 42.38 480.389 42.42L482.489 42.54C487.089 42.7 490.629 43.58 493.109 45.18C495.629 46.78 496.889 48.96 496.889 51.72C496.889 54.8 495.409 57.18 492.449 58.86C489.489 60.58 485.389 61.44 480.149 61.44ZM480.089 37.98C481.329 37.98 482.349 37.04 483.149 35.16C483.869 33.28 484.229 30.78 484.229 27.66C484.229 24.5 483.869 22 483.149 20.16C482.389 18.36 481.389 17.46 480.149 17.46C478.869 17.46 477.869 18.36 477.149 20.16C476.429 22 476.069 24.5 476.069 27.66C476.069 30.82 476.429 33.34 477.149 35.22C477.869 37.06 478.849 37.98 480.089 37.98ZM480.809 60.66C482.649 60.66 484.349 60.38 485.909 59.82C487.469 59.3 488.709 58.56 489.629 57.6C490.589 56.64 491.069 55.54 491.069 54.3C491.069 52.94 490.369 51.86 488.969 51.06C487.489 50.3 485.229 49.9 482.189 49.86L480.089 49.74C478.929 49.7 477.849 49.62 476.849 49.5C475.889 49.42 475.029 49.3 474.269 49.14C473.429 49.42 472.809 49.98 472.409 50.82C472.009 51.66 471.809 52.66 471.809 53.82C471.809 55.9 472.589 57.56 474.149 58.8C475.709 60.04 477.929 60.66 480.809 60.66Z" fill="white"/>
<path d="M510.442 48V47.4H510.502C511.942 47.4 513.102 46.96 513.982 46.08C514.862 45.2 515.302 44.04 515.302 42.6V22.92C515.302 21.4 514.982 20.22 514.342 19.38C513.742 18.54 512.442 18.12 510.442 18.12V17.52H516.382C518.022 17.52 519.282 17.44 520.162 17.28C521.082 17.12 521.762 16.92 522.202 16.68C522.642 16.4 522.962 16.12 523.162 15.84H523.762L523.822 23.64C524.862 21.56 526.442 19.88 528.562 18.6C530.682 17.32 532.922 16.68 535.282 16.68C537.562 16.68 539.462 17.32 540.982 18.6C542.502 19.88 543.482 21.6 543.922 23.76C545.042 21.6 546.642 19.88 548.722 18.6C550.842 17.32 553.122 16.68 555.562 16.68C558.242 16.68 560.382 17.56 561.982 19.32C563.622 21.08 564.442 23.4 564.442 26.28V42.6C564.442 44.04 564.882 45.2 565.762 46.08C566.642 46.96 567.802 47.4 569.242 47.4H569.302V48H551.002V47.4H551.062C552.502 47.4 553.662 46.96 554.542 46.08C555.422 45.2 555.862 44.04 555.862 42.6V25.68C555.862 23.68 555.462 22.08 554.662 20.88C553.862 19.68 552.822 19.08 551.542 19.08C550.302 19.08 549.002 19.64 547.642 20.76C546.282 21.84 545.102 23.26 544.102 25.02C544.142 25.1 544.162 25.2 544.162 25.32C544.162 25.44 544.162 25.54 544.162 25.62V42.6C544.162 44.04 544.602 45.2 545.482 46.08C546.362 46.96 547.522 47.4 548.962 47.4H549.022V48H530.722V47.4H530.782C532.222 47.4 533.382 46.96 534.262 46.08C535.142 45.2 535.582 44.04 535.582 42.6V25.68C535.582 23.68 535.182 22.08 534.382 20.88C533.622 19.68 532.602 19.08 531.322 19.08C530.082 19.08 528.782 19.62 527.422 20.7C526.102 21.74 524.942 23.16 523.942 24.96V42.6C523.942 44.04 524.382 45.2 525.262 46.08C526.142 46.96 527.302 47.4 528.742 47.4H528.802V48H510.442Z" fill="white"/>
<path d="M583.761 48.72C581.001 48.72 578.541 48.04 576.381 46.68C574.261 45.32 572.601 43.44 571.401 41.04C570.201 38.6 569.601 35.82 569.601 32.7C569.601 29.5 570.261 26.7 571.581 24.3C572.901 21.9 574.701 20.04 576.981 18.72C579.301 17.36 581.921 16.68 584.841 16.68C587.281 16.68 589.441 17.16 591.321 18.12C593.241 19.08 594.761 20.44 595.881 22.2C597.041 23.92 597.701 25.92 597.861 28.2L597.921 29.1H577.761V29.4C577.761 33.64 578.701 37.04 580.581 39.6C582.461 42.12 584.981 43.38 588.141 43.38C590.061 43.38 591.881 42.92 593.601 42C595.361 41.04 596.781 39.76 597.861 38.16L598.401 38.34C597.721 40.38 596.661 42.18 595.221 43.74C593.781 45.3 592.081 46.52 590.121 47.4C588.161 48.28 586.041 48.72 583.761 48.72ZM577.821 28.2H590.001C590.001 25.04 589.481 22.48 588.441 20.52C587.441 18.56 586.021 17.58 584.181 17.58C582.421 17.58 580.961 18.54 579.801 20.46C578.641 22.38 577.981 24.96 577.821 28.2Z" fill="white"/>
<path d="M622.384 50.28L622.324 41.76C621.364 43.84 619.924 45.56 618.004 46.92C616.084 48.24 614.024 48.9 611.824 48.9C609.664 48.9 607.724 48.22 606.004 46.86C604.284 45.5 602.924 43.64 601.924 41.28C600.924 38.88 600.424 36.18 600.424 33.18C600.424 29.82 601.044 26.9 602.284 24.42C603.564 21.94 605.324 20.04 607.564 18.72C609.804 17.36 612.384 16.68 615.304 16.68C616.944 16.68 618.284 16.94 619.324 17.46C620.364 17.94 621.304 18.78 622.144 19.98V8.39997C622.144 6.95997 621.684 5.79997 620.764 4.91997C619.884 4.03997 618.724 3.59997 617.284 3.59997V2.99997H623.404C625.404 2.99997 626.924 2.79997 627.964 2.39997C629.004 1.99997 629.744 1.43997 630.184 0.719971H630.784V42.6C630.784 44.04 631.224 45.2 632.104 46.08C632.984 46.96 634.164 47.4 635.644 47.4V48H629.524C627.764 48 626.364 48.18 625.324 48.54C624.324 48.9 623.544 49.48 622.984 50.28H622.384ZM615.124 46.5C616.044 46.5 616.964 46.22 617.884 45.66C618.844 45.06 619.704 44.28 620.464 43.32C621.224 42.36 621.784 41.34 622.144 40.26V25.62C621.944 23.22 621.344 21.3 620.344 19.86C619.384 18.42 618.124 17.7 616.564 17.7C614.484 17.7 612.864 19.02 611.704 21.66C610.584 24.3 610.024 28.2 610.024 33.36C610.024 42.12 611.724 46.5 615.124 46.5Z" fill="white"/>
</svg>
