<svg width="798" height="101" viewBox="0 0 798 101" fill="none" xmlns="http://www.w3.org/2000/svg">
<path d="M231.64 29.72C229.053 29.72 226.707 29.2 224.6 28.16C222.52 27.0933 220.867 25.52 219.64 23.44C218.413 21.36 217.8 18.8133 217.8 15.8C217.8 13.5066 218.173 11.4933 218.92 9.75996C219.667 8.02663 220.68 6.5733 221.96 5.39996C223.267 4.22663 224.76 3.34663 226.44 2.75996C228.147 2.17329 229.947 1.87996 231.84 1.87996C233.36 1.87996 234.76 2.05329 236.04 2.39996C237.32 2.74663 238.52 3.22663 239.64 3.83996L239.8 8.75996H239.4L237.4 5.55996C237.133 5.05329 236.84 4.59996 236.52 4.19996C236.2 3.77329 235.8 3.45329 235.32 3.23996C234.92 3.05329 234.52 2.91996 234.12 2.83996C233.747 2.73329 233.267 2.67996 232.68 2.67996C231.133 2.67996 229.72 3.09329 228.44 3.91996C227.187 4.74663 226.173 6.11996 225.4 8.03996C224.653 9.93329 224.28 12.5333 224.28 15.84C224.28 19.12 224.64 21.72 225.36 23.64C226.08 25.5333 227.053 26.8933 228.28 27.72C229.533 28.52 230.933 28.92 232.48 28.92C233.333 28.92 234.013 28.8666 234.52 28.76C235.027 28.6266 235.533 28.44 236.04 28.2C236.547 27.9866 236.933 27.68 237.2 27.28C237.467 26.8533 237.707 26.4 237.92 25.92L239.68 22H240.08L239.96 27.72C238.84 28.3066 237.587 28.7866 236.2 29.16C234.813 29.5333 233.293 29.72 231.64 29.72Z" fill="white"/>
<path d="M252.022 29.6C249.995 29.6 248.235 29.1866 246.742 28.36C245.248 27.5066 244.088 26.3066 243.262 24.76C242.462 23.2133 242.062 21.4 242.062 19.32C242.062 17.24 242.488 15.44 243.342 13.92C244.222 12.4 245.408 11.2266 246.902 10.4C248.422 9.5733 250.128 9.15996 252.022 9.15996C253.915 9.15996 255.608 9.5733 257.102 10.4C258.595 11.2 259.768 12.36 260.622 13.88C261.502 15.4 261.942 17.2133 261.942 19.32C261.942 21.4266 261.528 23.2533 260.702 24.8C259.902 26.32 258.755 27.5066 257.262 28.36C255.795 29.1866 254.048 29.6 252.022 29.6ZM252.022 28.8C252.955 28.8 253.702 28.5333 254.262 28C254.822 27.4666 255.222 26.52 255.462 25.16C255.728 23.8 255.862 21.88 255.862 19.4C255.862 16.8933 255.728 14.96 255.462 13.6C255.222 12.24 254.822 11.2933 254.262 10.76C253.702 10.2266 252.955 9.95996 252.022 9.95996C251.088 9.95996 250.328 10.2266 249.742 10.76C249.182 11.2933 248.768 12.24 248.502 13.6C248.262 14.96 248.142 16.8933 248.142 19.4C248.142 21.88 248.262 23.8 248.502 25.16C248.768 26.52 249.182 27.4666 249.742 28C250.328 28.5333 251.088 28.8 252.022 28.8Z" fill="white"/>
<path d="M269.304 29.6C267.757 29.6 266.451 29.16 265.384 28.28C264.344 27.4 263.824 26.1333 263.824 24.48C263.824 23.2266 264.464 22.08 265.744 21.04C267.024 19.9733 269.037 19.1733 271.784 18.64C272.211 18.56 272.691 18.48 273.224 18.4C273.757 18.2933 274.317 18.1866 274.904 18.08V14.92C274.904 13.1066 274.677 11.84 274.224 11.12C273.797 10.3733 273.117 9.99996 272.184 9.99996C271.544 9.99996 271.037 10.2133 270.664 10.64C270.291 11.04 270.051 11.7466 269.944 12.76L269.864 13.2C269.811 14.3466 269.531 15.1866 269.024 15.72C268.517 16.2533 267.891 16.52 267.144 16.52C266.451 16.52 265.877 16.3066 265.424 15.88C264.971 15.4533 264.744 14.88 264.744 14.16C264.744 13.0666 265.117 12.1466 265.864 11.4C266.637 10.6533 267.651 10.0933 268.904 9.71996C270.157 9.34663 271.517 9.15996 272.984 9.15996C275.357 9.15996 277.184 9.74663 278.464 10.92C279.771 12.0666 280.424 13.9466 280.424 16.56V25.4C280.424 26.6 280.984 27.2 282.104 27.2H282.984L283.344 27.52C282.837 28.16 282.277 28.6533 281.664 29C281.077 29.3466 280.237 29.52 279.144 29.52C277.971 29.52 277.037 29.2533 276.344 28.72C275.677 28.16 275.237 27.4266 275.024 26.52C274.224 27.3733 273.397 28.1066 272.544 28.72C271.717 29.3066 270.637 29.6 269.304 29.6ZM271.744 27.16C272.277 27.16 272.771 27.04 273.224 26.8C273.704 26.5333 274.264 26.1333 274.904 25.6V18.88C274.637 18.9333 274.371 18.9866 274.104 19.04C273.837 19.0933 273.531 19.1466 273.184 19.2C271.957 19.52 270.971 20.0666 270.224 20.84C269.504 21.5866 269.144 22.6 269.144 23.88C269.144 24.9733 269.397 25.8 269.904 26.36C270.411 26.8933 271.024 27.16 271.744 27.16Z" fill="white"/>
<path d="M294.087 29.6C292.274 29.6 290.621 29.2133 289.127 28.44C287.661 27.64 286.487 26.4933 285.607 25C284.754 23.48 284.327 21.6266 284.327 19.44C284.327 17.28 284.794 15.44 285.727 13.92C286.687 12.3733 287.954 11.2 289.527 10.4C291.127 9.5733 292.874 9.15996 294.767 9.15996C296.314 9.15996 297.621 9.41329 298.687 9.91996C299.754 10.4266 300.567 11.0933 301.127 11.92C301.687 12.72 301.967 13.56 301.967 14.44C301.967 15.1866 301.741 15.7733 301.287 16.2C300.834 16.6 300.247 16.8 299.527 16.8C298.754 16.8 298.127 16.52 297.647 15.96C297.167 15.4 296.887 14.6666 296.807 13.76C296.781 13.1733 296.794 12.68 296.847 12.28C296.901 11.8533 296.901 11.4266 296.847 11C296.741 10.5466 296.567 10.2533 296.327 10.12C296.114 9.95996 295.807 9.87996 295.407 9.87996C293.781 9.87996 292.514 10.5866 291.607 12C290.727 13.4133 290.287 15.6666 290.287 18.76C290.287 21.4533 290.781 23.52 291.767 24.96C292.781 26.3733 294.327 27.08 296.407 27.08C297.661 27.08 298.674 26.8533 299.447 26.4C300.221 25.9466 300.967 25.2666 301.687 24.36L302.087 24.68C301.421 26.2533 300.394 27.4666 299.007 28.32C297.621 29.1733 295.981 29.6 294.087 29.6Z" fill="white"/>
<path d="M303.193 29V28.6L303.673 28.44C304.633 28.12 305.113 27.4533 305.113 26.44V5.07996C305.113 4.51996 305.02 4.10663 304.833 3.83996C304.647 3.57329 304.287 3.37329 303.753 3.23996L303.153 3.07996V2.67996L310.193 0.959961L310.833 1.31996L310.673 6.95996V11.96C311.607 11.1866 312.607 10.5333 313.673 9.99996C314.767 9.43996 315.967 9.15996 317.273 9.15996C319.007 9.15996 320.38 9.65329 321.393 10.64C322.433 11.6266 322.953 13.1466 322.953 15.2V26.48C322.953 27.0133 323.06 27.44 323.273 27.76C323.487 28.08 323.86 28.32 324.393 28.48L324.713 28.6V29H315.353V28.6L315.833 28.48C316.793 28.16 317.273 27.48 317.273 26.44V13.88C317.273 12.8133 317.087 12.08 316.713 11.68C316.367 11.28 315.74 11.08 314.833 11.08C314.247 11.08 313.607 11.2 312.913 11.44C312.22 11.6533 311.513 12.04 310.793 12.6V26.52C310.793 27.56 311.273 28.2266 312.233 28.52L312.553 28.6V29H303.193Z" fill="white"/>
<path d="M331.077 7.07996C330.17 7.07996 329.397 6.79996 328.757 6.23996C328.143 5.6533 327.837 4.91996 327.837 4.03996C327.837 3.13329 328.143 2.39996 328.757 1.83996C329.397 1.27996 330.17 0.99996 331.077 0.99996C331.983 0.99996 332.743 1.27996 333.357 1.83996C333.97 2.39996 334.277 3.13329 334.277 4.03996C334.277 4.91996 333.97 5.6533 333.357 6.23996C332.743 6.79996 331.983 7.07996 331.077 7.07996ZM326.357 29V28.6L326.917 28.44C327.45 28.28 327.81 28.04 327.997 27.72C328.21 27.4 328.317 26.9733 328.317 26.44V13.92C328.317 13.36 328.21 12.9466 327.997 12.68C327.81 12.3866 327.45 12.1866 326.917 12.08L326.357 11.96V11.56L333.677 9.19996L334.077 9.59996L333.957 15.28V26.48C333.957 27.0133 334.05 27.44 334.237 27.76C334.45 28.08 334.81 28.32 335.317 28.48L335.717 28.6V29H326.357Z" fill="white"/>
<path d="M337.487 29V28.6L338.047 28.44C338.981 28.1733 339.448 27.52 339.448 26.48V13.96C339.448 13.3733 339.354 12.9466 339.168 12.68C338.981 12.3866 338.621 12.1866 338.087 12.08L337.487 11.92V11.52L344.328 9.19996L344.728 9.59996L345.047 12C345.981 11.1733 347.034 10.4933 348.207 9.95996C349.381 9.42663 350.541 9.15996 351.688 9.15996C353.447 9.15996 354.794 9.63996 355.728 10.6C356.688 11.56 357.168 13.0266 357.168 15V26.52C357.168 27.56 357.674 28.2133 358.688 28.48L359.047 28.6V29H349.608V28.6L350.128 28.44C351.061 28.1466 351.527 27.4933 351.527 26.48V13.72C351.527 12.0133 350.674 11.16 348.967 11.16C347.794 11.16 346.514 11.7466 345.128 12.92V26.52C345.128 27.56 345.594 28.2133 346.527 28.48L346.888 28.6V29H337.487Z" fill="white"/>
<path d="M369.332 22.08C367.492 22.08 365.932 21.7733 364.652 21.16V22.52C364.652 23.3466 365.066 23.84 365.892 24L373.413 25.4C374.666 25.64 375.799 25.96 376.812 26.36C377.826 26.7333 378.639 27.28 379.253 28C379.866 28.6933 380.172 29.6533 380.172 30.88C380.172 32.1866 379.746 33.3866 378.892 34.48C378.039 35.6 376.772 36.4933 375.092 37.16C373.439 37.8533 371.372 38.2 368.892 38.2C366.759 38.2 365.066 37.9733 363.812 37.52C362.559 37.0933 361.666 36.5333 361.133 35.84C360.626 35.1466 360.372 34.4133 360.372 33.64C360.372 32.68 360.692 31.7066 361.332 30.72C361.999 29.76 362.812 28.9866 363.772 28.4C362.946 28.08 362.346 27.6666 361.973 27.16C361.599 26.6533 361.413 26.1066 361.413 25.52C361.413 24.9866 361.546 24.4933 361.812 24.04C362.106 23.56 362.453 23.08 362.853 22.6L364.172 20.92C362.226 19.8 361.253 18.04 361.253 15.64C361.253 13.72 361.933 12.16 363.293 10.96C364.679 9.75996 366.706 9.15996 369.372 9.15996C370.732 9.15996 371.919 9.31996 372.932 9.63996C373.972 9.95996 374.826 10.4133 375.492 11C376.346 10.8666 377.146 10.6533 377.892 10.36C378.666 10.04 379.359 9.6133 379.973 9.07996L380.533 9.47996V11.52H376.013C376.973 12.5866 377.453 13.96 377.453 15.64C377.453 17.5066 376.759 19.0533 375.372 20.28C374.012 21.48 371.999 22.08 369.332 22.08ZM369.293 21.28C370.359 21.28 371.132 20.84 371.612 19.96C372.119 19.08 372.372 17.6133 372.372 15.56C372.372 13.5066 372.119 12.0666 371.612 11.24C371.132 10.3866 370.386 9.95996 369.372 9.95996C368.386 9.95996 367.639 10.4 367.133 11.28C366.626 12.1333 366.372 13.5866 366.372 15.64C366.372 17.6933 366.599 19.1466 367.052 20C367.532 20.8533 368.279 21.28 369.293 21.28ZM363.332 32.36C363.332 33.9333 363.812 35.12 364.772 35.92C365.759 36.72 367.306 37.12 369.413 37.12C371.626 37.12 373.293 36.76 374.413 36.04C375.533 35.32 376.092 34.3066 376.092 33C376.092 32.2533 375.813 31.6533 375.253 31.2C374.719 30.7466 373.799 30.4 372.492 30.16L365.253 28.8C365.039 28.7466 364.826 28.6933 364.612 28.64C364.239 29.1733 363.933 29.7733 363.693 30.44C363.453 31.1333 363.332 31.7733 363.332 32.36Z" fill="white"/>
<path d="M390.573 29V28.6L391.133 28.44C391.64 28.3066 391.987 28.08 392.173 27.76C392.387 27.44 392.507 27.0133 392.533 26.48V13.96C392.533 13.3733 392.44 12.9466 392.253 12.68C392.067 12.3866 391.707 12.1866 391.173 12.08L390.573 11.92V11.52L397.413 9.19996L397.813 9.59996L398.133 12.32C399.013 11.44 400.013 10.6933 401.133 10.08C402.28 9.46663 403.467 9.15996 404.693 9.15996C405.973 9.15996 407 9.42663 407.773 9.95996C408.547 10.4666 409.133 11.2666 409.533 12.36C410.573 11.3733 411.693 10.6 412.893 10.04C414.12 9.45329 415.307 9.15996 416.453 9.15996C418.347 9.15996 419.733 9.6133 420.613 10.52C421.52 11.4266 421.973 12.8533 421.973 14.8V26.52C421.973 27.56 422.453 28.2133 423.413 28.48L423.853 28.6V29H414.613V28.6L415.013 28.48C415.52 28.32 415.867 28.08 416.053 27.76C416.267 27.44 416.373 27.0133 416.373 26.48V14.24C416.373 13.12 416.173 12.36 415.773 11.96C415.373 11.5333 414.733 11.32 413.853 11.32C413.16 11.32 412.48 11.48 411.813 11.8C411.173 12.0933 410.493 12.5466 409.773 13.16C409.907 13.5866 409.987 14.0533 410.013 14.56C410.067 15.0666 410.093 15.6 410.093 16.16V26.52C410.12 27.56 410.6 28.2133 411.533 28.48L411.893 28.6V29H402.613V28.6L403.173 28.44C403.68 28.28 404.027 28.0533 404.213 27.76C404.427 27.44 404.533 27.0133 404.533 26.48V14.28C404.533 13.2133 404.333 12.4533 403.933 12C403.56 11.5466 402.907 11.32 401.973 11.32C401.36 11.32 400.747 11.48 400.133 11.8C399.52 12.0933 398.88 12.5333 398.213 13.12V26.52C398.213 27.56 398.68 28.2133 399.613 28.48L399.973 28.6V29H390.573Z" fill="white"/>
<path d="M435.457 9.15996C437.191 9.15996 438.671 9.51996 439.897 10.24C441.124 10.9333 442.057 11.8933 442.697 13.12C443.364 14.32 443.697 15.6933 443.697 17.24C443.697 17.5333 443.684 17.84 443.657 18.16C443.631 18.4533 443.577 18.72 443.497 18.96H431.577C431.604 21.84 432.111 23.92 433.097 25.2C434.111 26.4533 435.604 27.08 437.577 27.08C438.911 27.08 439.991 26.8666 440.817 26.44C441.644 26.0133 442.417 25.3866 443.137 24.56L443.537 24.92C442.711 26.3866 441.604 27.5333 440.217 28.36C438.857 29.1866 437.217 29.6 435.297 29.6C433.404 29.6 431.724 29.2 430.257 28.4C428.791 27.5733 427.644 26.4 426.817 24.88C425.991 23.36 425.577 21.5466 425.577 19.44C425.577 17.2533 426.057 15.4 427.017 13.88C427.977 12.3333 429.204 11.16 430.697 10.36C432.217 9.55996 433.804 9.15996 435.457 9.15996ZM435.337 9.95996C434.564 9.95996 433.897 10.2 433.337 10.68C432.804 11.1333 432.377 11.96 432.057 13.16C431.764 14.3333 431.604 16 431.577 18.16H438.417C438.684 15.2533 438.577 13.16 438.097 11.88C437.617 10.6 436.697 9.95996 435.337 9.95996Z" fill="white"/>
<path d="M454.171 29.6C452.597 29.6 451.184 29.2533 449.931 28.56C448.677 27.84 447.677 26.7466 446.931 25.28C446.211 23.7866 445.851 21.88 445.851 19.56C445.851 17.2133 446.264 15.28 447.091 13.76C447.917 12.2133 449.011 11.0666 450.371 10.32C451.731 9.54663 453.211 9.15996 454.811 9.15996C455.744 9.15996 456.637 9.25329 457.491 9.43996C458.344 9.62663 459.104 9.90663 459.771 10.28V5.07996C459.771 4.51996 459.677 4.10663 459.491 3.83996C459.331 3.57329 458.971 3.38663 458.411 3.27996L457.651 3.11996V2.71996L464.931 0.959961L465.371 1.31996L465.211 6.91996V26.48C465.211 27.0133 465.304 27.4533 465.491 27.8C465.677 28.12 466.024 28.3466 466.531 28.48L466.891 28.6V29L460.051 29.44L459.691 28C458.971 28.48 458.144 28.8666 457.211 29.16C456.304 29.4533 455.291 29.6 454.171 29.6ZM456.491 28.12C457.611 28.12 458.637 27.7866 459.571 27.12V11.24C458.584 10.6 457.571 10.28 456.531 10.28C455.251 10.28 454.157 11.0266 453.251 12.52C452.344 13.9866 451.891 16.3066 451.891 19.48C451.891 22.6533 452.317 24.8933 453.171 26.2C454.024 27.48 455.131 28.12 456.491 28.12Z" fill="white"/>
<path d="M4.64258 99.9414H4.49609C4.45703 99.9414 4.38867 99.9511 4.29102 99.9707C4.19336 99.9707 4.04688 99.9804 3.85156 100C3.67578 100 3.50977 100 3.35352 100C2.74805 100.019 2.24023 100.019 1.83008 100C1.45898 99.9804 1.07812 99.9023 0.6875 99.7656C0.433594 99.6679 0.296875 99.5214 0.277344 99.3261C0.199219 99.0918 0.140625 98.4179 0.101562 97.3046C0.101562 96.5039 0.150391 95.0488 0.248047 92.9394C0.345703 90.83 0.394531 89.5996 0.394531 89.248C0.394531 88.7988 0.453125 88.5449 0.570312 88.4863C0.707031 88.4082 0.873047 88.3593 1.06836 88.3398C1.3418 88.3007 1.5957 88.2812 1.83008 88.2812H11.5859C13.4414 88.2812 14.7793 88.2129 15.5996 88.0761C18.0996 87.5683 19.418 86.2695 19.5547 84.1796C19.6328 83.3203 19.6719 80.4199 19.6719 75.4785V70.7617C19.6719 67.9492 19.6328 66.3769 19.5547 66.0449C19.5156 64.8339 19.4961 63.4082 19.4961 61.7675C19.5352 61.1816 19.5547 60.5371 19.5547 59.8339V59.4238C19.5547 59.2089 19.5645 59.0625 19.584 58.9843C19.6035 58.8867 19.6621 58.789 19.7598 58.6914C19.877 58.5742 20.5215 58.5156 21.6934 58.5156C21.9277 58.4765 22.3086 58.4472 22.8359 58.4277C23.1875 58.4082 23.5684 58.3984 23.9785 58.3984C24.7988 58.3593 25.6289 58.3398 26.4688 58.3398H28.9883C34.1055 58.2226 36.9863 58.1347 37.6309 58.0761C37.6699 58.9746 37.6895 60 37.6895 61.1523C37.6895 62.3046 37.709 63.33 37.748 64.2285C37.8652 67.0019 37.9141 69.375 37.8945 71.3476C37.8945 79.8242 37.8652 84.5996 37.8066 85.6738C37.709 89.2089 37.5039 91.4062 37.1914 92.2656C36.5469 94.1406 35.2676 95.7812 33.3535 97.1875C30.4824 99.2773 26.3613 100.156 20.9902 99.8242C20.1504 99.6679 17.4258 99.6484 12.8164 99.7656C8.16797 99.8828 5.44336 99.9414 4.64258 99.9414ZM2.50391 99.0332L2.5918 99.1796C3.1582 99.1796 5.53125 99.1601 9.71094 99.1211C13.8906 99.082 16.2344 99.0625 16.7422 99.0625C18.0703 99.0625 19.2617 99.0722 20.3164 99.0918C21.3711 99.1113 22.543 99.1211 23.832 99.1211C26.3516 99.1211 28.4316 98.7793 30.0723 98.0957C32.3184 97.1386 33.9395 95.9961 34.9355 94.6679C36.0879 93.2226 36.7031 91.1718 36.7812 88.5156C36.7812 87.6171 36.8203 86.5332 36.8984 85.2636C36.9766 83.9941 37.0156 82.9296 37.0156 82.0703C37.0156 78.2812 36.9961 75.8593 36.957 74.8046C36.957 73.3984 36.9668 72.0605 36.9863 70.791C37.0254 68.8769 37.0254 67.539 36.9863 66.7773C36.8691 64.1601 36.8105 61.582 36.8105 59.0429C35.4238 59.082 32.9922 59.1406 29.5156 59.2187C26 59.3164 23.2852 59.4043 21.3711 59.4824H20.4922V60.1855C20.4531 60.7714 20.4336 61.4355 20.4336 62.1777C20.3555 63.6035 20.375 64.9023 20.4922 66.0742C20.5312 66.8945 20.5508 69.5898 20.5508 74.1601L20.6094 78.1152C20.6289 80.7519 20.5996 82.08 20.5215 82.0996C20.5215 82.3535 20.5117 82.6269 20.4922 82.9199C20.4531 83.3691 20.4238 83.6621 20.4043 83.7988C20.3848 83.8379 20.3652 83.9453 20.3457 84.1211C20.3262 84.2968 20.3066 84.4433 20.2871 84.5605C20.2285 84.9316 20.1699 85.2148 20.1113 85.4101C20.0527 85.6054 19.9648 85.8398 19.8477 86.1132C19.7305 86.3476 19.5938 86.6015 19.4375 86.875C19.3008 87.0898 19.0957 87.3046 18.8223 87.5195C17.6895 88.5546 15.6484 89.0722 12.6992 89.0722C10.3945 89.1113 7.83594 89.1308 5.02344 89.1308H2.88477C1.81055 89.1308 1.24414 89.1699 1.18555 89.248V91.416C1.18555 91.7871 1.17578 92.1386 1.15625 92.4707C1.13672 92.8027 1.12695 93.164 1.12695 93.5546C1.04883 94.8242 1.00977 95.9082 1.00977 96.8066C1.00977 97.9004 1.0293 98.5449 1.06836 98.7402C1.08789 98.9355 1.23438 99.0332 1.50781 99.0332H2.50391Z" fill="#D9D9D9"/>
<path d="M106.4 99.5312L106.078 99.7656C103.793 99.7656 101.732 99.7461 99.8961 99.707C99.0758 99.707 98.607 99.6875 98.4898 99.6484L98.4313 99.5312C98.3727 99.4531 98.2848 99.3261 98.1676 99.1504C98.0699 98.9746 97.9625 98.7988 97.8453 98.623C97.4938 98.0566 97.1715 97.5781 96.8785 97.1875C95.8434 95.5078 95.2281 94.541 95.0328 94.2871C94.4859 93.5254 94.2027 93.1152 94.1832 93.0566C94.1637 93.0371 94.1051 92.9492 94.0074 92.7929C93.9098 92.6367 93.8512 92.5488 93.8316 92.5293C93.7145 92.4902 93.4117 92.4707 92.9234 92.4707C90.4234 92.5879 87.9625 92.6269 85.5406 92.5879C84.3688 92.5488 83.0211 92.5293 81.4977 92.5293C79.9742 92.5293 78.607 92.5097 77.3961 92.4707H75.4625C74.1539 92.4707 73.4605 92.4902 73.3824 92.5293C73.1676 92.6269 72.9039 92.9882 72.5914 93.6132C72.5719 93.6523 72.4352 93.8671 72.1813 94.2578C71.9078 94.6679 71.732 94.9414 71.6539 95.0781C71.3414 95.5664 71.0094 96.0644 70.6578 96.5722C70.3453 97.0214 69.9938 97.539 69.6031 98.125L68.8707 99.2089C68.734 99.4433 68.5875 99.5898 68.4313 99.6484C68.275 99.6875 67.6695 99.707 66.6148 99.707H64.3297C63.5875 99.707 62.9039 99.6972 62.2789 99.6777C61.6539 99.6582 60.941 99.6484 60.1402 99.6484C54.7691 99.6484 50.8531 99.58 48.3922 99.4433C49.857 96.8847 50.8141 95.1855 51.2633 94.3457C52.1617 92.705 52.6598 91.8066 52.7574 91.6504C53.0504 91.2207 53.402 90.7324 53.8121 90.1855C54.2223 89.6582 54.5543 89.1699 54.8082 88.7207C59.2809 81.9238 61.859 77.998 62.5426 76.9433C63.2848 75.7714 64.4371 74.0429 65.9996 71.7578C67.6207 69.375 68.8902 67.4121 69.8082 65.8691C70.2184 65.0683 70.8141 64.082 71.5953 62.9101C72.4547 61.6211 73.0699 60.6543 73.441 60.0097C73.9879 58.916 74.4273 58.291 74.7594 58.1347H76.2535C76.6051 58.1347 76.9176 58.1445 77.191 58.164C77.4645 58.1836 77.777 58.1933 78.1285 58.1933C78.9684 58.1933 80.2574 58.2226 81.9957 58.2812C83.734 58.3398 85.0426 58.3691 85.9215 58.3691H89.525C90.2477 58.3691 90.8629 58.3496 91.3707 58.3105C91.4098 58.3105 91.6051 58.2812 91.9566 58.2226C92.3082 58.164 92.484 58.1738 92.484 58.2519C92.6793 58.2519 92.8355 58.4375 92.9527 58.8086C93.109 59.0039 93.2848 59.248 93.4801 59.541C93.6754 59.8339 93.8512 60.0781 94.0074 60.2734C95.2965 62.0117 95.9605 62.9199 95.9996 62.998C96.3902 63.7207 97.0836 64.8046 98.0797 66.25C98.6656 67.1093 99.3199 68.0957 100.043 69.2089C100.16 69.4629 100.394 69.8437 100.746 70.3515C101.117 70.8789 101.351 71.2402 101.449 71.4355C101.664 71.7675 101.927 72.2363 102.24 72.8418C102.455 73.2519 102.679 73.6621 102.914 74.0722C103.402 74.8339 104.134 75.8886 105.111 77.2363C106.029 78.5254 106.625 79.4043 106.898 79.873C107.464 80.6933 107.845 81.2402 108.041 81.5136C108.177 81.7089 108.402 82.0312 108.714 82.4804C109.027 82.9101 109.261 83.2324 109.418 83.4472C109.75 83.916 110.111 84.4726 110.502 85.1171C111.634 86.9921 112.855 88.9843 114.164 91.0937C114.691 91.8164 115.336 92.7636 116.097 93.9355C116.937 95.2246 117.582 96.1621 118.031 96.748L118.382 97.1875C118.695 97.6171 118.871 97.8613 118.91 97.9199C119.046 98.1347 119.183 98.3593 119.32 98.5937C119.457 98.8671 119.486 99.0722 119.408 99.2089C119.33 99.3457 119.154 99.4336 118.88 99.4726C117.904 99.5117 114.681 99.5312 109.213 99.5312H106.4ZM99.0465 98.8574L114.427 98.7988H117.884C115.677 95.7714 113.568 92.6464 111.556 89.4238C111.4 89.2285 110.97 88.5254 110.267 87.3144C109.525 86.0449 108.939 85.1074 108.509 84.5019C108.216 84.1113 107.777 83.4179 107.191 82.4218C107.074 82.207 106.82 81.8554 106.429 81.3671C106.078 80.9375 105.843 80.6152 105.726 80.4004C105.355 79.7949 104.798 78.9746 104.056 77.9394C103.373 76.9824 102.894 76.2988 102.621 75.8886C102.289 75.4004 101.849 74.6386 101.302 73.6035C100.755 72.5683 100.316 71.8066 99.984 71.3183C99.6715 70.8496 99.2906 70.2734 98.8414 69.5898C98.5289 69.0429 98.0016 68.2519 97.2594 67.2168C97.025 66.8652 96.5563 66.1328 95.8531 65.0195C95.0328 63.7109 94.4762 62.8418 94.1832 62.4121C94.0855 62.2558 93.8316 61.9043 93.4215 61.3574C93.0113 60.8105 92.7379 60.4589 92.6012 60.3027C92.2105 59.6386 92.0055 59.2968 91.9859 59.2773C91.9469 59.2382 91.5465 59.2187 90.7848 59.2187C88.8902 59.2968 86.9566 59.2968 84.984 59.2187C83.8707 59.2187 82.8746 59.2089 81.9957 59.1894C81.1168 59.1699 80.1402 59.1601 79.066 59.1601C78.6168 59.1601 78.2066 59.1504 77.8355 59.1308C77.4645 59.1113 77.025 59.1015 76.5172 59.1015H75.2281C75.0328 59.1211 74.8277 59.2871 74.6129 59.5996C74.5738 59.6386 74.525 59.7168 74.4664 59.8339C74.4273 59.9121 74.3688 60.0097 74.2906 60.1269C74.1148 60.4199 73.1578 61.9824 71.4195 64.8144C70.0719 67.0019 69.1637 68.5058 68.6949 69.3261C68.5191 69.6191 67.5816 71.0058 65.8824 73.4863C65.4137 74.1699 64.8473 75 64.1832 75.9765C63.5387 76.9336 63.1188 77.5586 62.9234 77.8515C61.4781 80.1171 60.3941 81.8164 59.6715 82.9492C59.359 83.4375 58.8219 84.2285 58.0602 85.3222C57.2398 86.5136 56.6148 87.4804 56.1852 88.2226C56.0094 88.4961 55.4625 89.2871 54.5445 90.5957C53.6852 91.7871 53.0699 92.7539 52.6988 93.4961C52.4449 94.1211 51.9762 95 51.2926 96.1328C50.609 97.2656 50.1109 98.1445 49.7984 98.7695C50.15 98.7695 51.6148 98.789 54.193 98.8281C56.7711 98.8671 58.2164 98.8867 58.5289 98.8867H67.4059C67.8941 98.8867 68.2164 98.7793 68.3727 98.5644C68.4703 98.4277 68.6168 98.2031 68.8121 97.8906C68.8316 97.8711 68.9 97.7636 69.0172 97.5683C69.1344 97.373 69.232 97.2168 69.3102 97.0996C69.5055 96.7675 69.652 96.5429 69.7496 96.4257C69.8082 96.3281 70.3063 95.5273 71.2438 94.0234C71.3805 93.8671 71.5465 93.6132 71.7418 93.2617C71.9371 92.9101 72.1031 92.6562 72.2398 92.5C72.4742 91.9921 72.6891 91.6992 72.8844 91.6211H92.3082L92.8941 91.5625C93.2848 91.5234 93.5484 91.5039 93.6852 91.5039C93.9391 91.5039 94.1148 91.5429 94.2125 91.6211C94.2516 91.6211 94.4273 91.8652 94.7398 92.3535C94.7984 92.4316 94.9254 92.6171 95.1207 92.9101C95.1988 93.0273 95.3258 93.2324 95.5016 93.5254C95.9508 94.0918 96.5758 95 97.3766 96.25C98.2555 97.6562 98.8121 98.5254 99.0465 98.8574ZM87.8844 82.1289L78.9195 82.1582C79.9352 80.5371 80.6578 79.4336 81.0875 78.8476C81.2633 78.6328 81.6051 78.1347 82.1129 77.3535C82.6793 76.5527 83.0309 76.1425 83.1676 76.123C83.4996 76.0254 83.9684 76.4355 84.5738 77.3535C84.8863 77.8222 85.3648 78.5546 86.0094 79.5507C86.2438 79.8437 86.5563 80.2734 86.9469 80.8398C87.3375 81.4062 87.65 81.8359 87.8844 82.1289ZM80.5016 81.3086L86.1852 81.3379C85.9703 81.0449 85.5602 80.4199 84.9547 79.4629C84.2906 78.4082 83.7633 77.6464 83.3727 77.1777C82.318 78.5839 81.3609 79.9609 80.5016 81.3086Z" fill="#D9D9D9"/>
<path d="M193.48 100.117L193.509 99.9414C190.755 99.9414 187.386 99.9023 183.402 99.8242C182.425 99.8242 181.566 99.8339 180.823 99.8535C180.081 99.873 179.222 99.8828 178.245 99.8828C177.308 99.8828 176.644 99.7265 176.253 99.414C175.296 98.6132 174.642 98.0859 174.29 97.832C173.489 97.2851 170.941 95.2636 166.644 91.7675C165.335 90.7324 164.075 89.7461 162.864 88.8086C161.048 87.4023 159.847 86.455 159.261 85.9668C156.8 83.916 155.433 82.7929 155.159 82.5976C155.101 82.5586 154.954 82.4609 154.72 82.3046C154.505 82.1289 154.261 81.9433 153.988 81.748C153.734 81.5332 153.46 81.3183 153.167 81.1035C152.093 80.2832 151.341 79.6972 150.911 79.3457C150.931 80.7519 150.902 82.8906 150.823 85.7617C150.823 87.1679 150.833 88.4277 150.853 89.541C150.872 90.6543 150.882 91.914 150.882 93.3203V96.8652C150.882 97.4902 150.902 98.0175 150.941 98.4472V99.707C150.843 99.8632 150.198 99.9414 149.007 99.9414C148.284 99.9414 147.64 99.9511 147.073 99.9707C146.507 99.9902 145.892 100 145.228 100C142.923 100.039 140.286 100.059 137.318 100.059H133.831C133.519 100.019 133.314 99.9902 133.216 99.9707C133.118 99.9316 132.991 99.8632 132.835 99.7656C132.659 99.6484 132.571 99.4629 132.571 99.2089C132.571 99.1699 132.591 98.9355 132.63 98.5058C132.669 98.0761 132.689 97.8515 132.689 97.832V93.789C132.689 92.8515 132.679 92.0019 132.659 91.2402C132.64 90.4785 132.63 89.6289 132.63 88.6914C132.63 88.2617 132.659 87.3242 132.718 85.8789C132.777 84.3164 132.796 83.2031 132.777 82.539C132.738 80.9765 132.767 78.6914 132.864 75.6836C132.864 72.2461 132.825 69.8144 132.747 68.3886C132.708 67.998 132.708 67.4218 132.747 66.6601C132.747 66.4648 132.747 66.25 132.747 66.0156C132.767 65.7812 132.777 65.6054 132.777 65.4882C132.796 65.3515 132.806 65.2539 132.806 65.1953V61.8261C132.806 61.7285 132.777 61.5136 132.718 61.1816C132.659 60.8691 132.63 60.5859 132.63 60.332C132.63 60.0976 132.679 59.9023 132.777 59.7461C132.855 59.6093 133.021 59.5214 133.275 59.4824C133.587 59.4433 133.88 59.4238 134.154 59.4238H134.827C136.292 59.3261 138.734 59.2578 142.152 59.2187C143.46 59.2187 144.632 59.2285 145.667 59.248C146.702 59.2675 147.864 59.2773 149.154 59.2773C150.325 59.2773 151.185 59.5019 151.732 59.9511C152.142 60.2441 152.542 60.5371 152.933 60.83C153.714 61.416 154.154 61.748 154.251 61.8261C155.775 63.1152 158.001 64.873 160.931 67.0996C163.978 69.4043 165.736 70.7617 166.204 71.1718C166.693 71.5234 167.571 72.2558 168.841 73.3691C170.071 74.4433 171.087 75.2636 171.888 75.83C172.396 76.1816 173.402 76.9629 174.905 78.1738C176.351 79.3261 177.191 80 177.425 80.1953C177.425 78.5546 177.415 77.0898 177.396 75.8007C177.376 74.5117 177.366 73.0566 177.366 71.4355C177.327 70.4004 177.327 68.9453 177.366 67.0703C177.366 66.6015 177.366 66.0742 177.366 65.4882C177.386 64.8828 177.396 64.414 177.396 64.082C177.415 63.75 177.425 63.4961 177.425 63.3203C177.425 62.9296 177.415 62.5879 177.396 62.2949C177.376 62.0019 177.366 61.6796 177.366 61.3281C177.366 60.4882 177.386 60.0097 177.425 59.8925C177.542 59.6191 177.904 59.4824 178.509 59.4824H180.736C180.95 59.4824 181.253 59.4921 181.644 59.5117C182.034 59.5117 182.581 59.5214 183.284 59.541C184.007 59.541 184.642 59.541 185.189 59.541C187.415 59.5605 188.909 59.5312 189.671 59.4531C190.55 59.3554 191.849 59.2968 193.568 59.2773C194.525 59.2773 195.062 59.3066 195.179 59.3652C195.335 59.4629 195.423 59.6191 195.443 59.8339C195.482 60.6933 195.501 63.6328 195.501 68.6523C195.501 70.2734 195.511 71.7382 195.53 73.0468C195.55 74.3554 195.56 75.83 195.56 77.4707C195.521 80.2441 195.501 83.3496 195.501 86.7871L195.677 94.9023C195.677 95.9765 195.638 97.2558 195.56 98.7402C195.56 99.4629 195.394 99.9023 195.062 100.059C194.866 100.098 194.339 100.117 193.48 100.117ZM193.157 99.0918L193.099 99.2968C194.095 99.2968 194.613 99.2773 194.652 99.2382C194.691 99.1992 194.71 98.5839 194.71 97.3925C194.808 95.9472 194.837 94.8437 194.798 94.082C194.72 92.7539 194.681 90.5273 194.681 87.4023V70C194.681 68.2031 194.671 66.582 194.652 65.1367C194.632 63.6914 194.622 62.041 194.622 60.1855C193.978 60.1855 192.806 60.2148 191.107 60.2734C189.544 60.332 188.236 60.3418 187.181 60.3027C182.864 60.205 180.081 60.1757 178.831 60.2148C178.519 60.2539 178.343 60.2832 178.304 60.3027C178.265 60.3418 178.245 60.5175 178.245 60.83C178.245 61.2207 178.255 61.5722 178.275 61.8847C178.294 62.1972 178.304 62.5488 178.304 62.9394C178.343 63.8574 178.314 65.166 178.216 66.8652C178.216 67.1386 178.226 67.4121 178.245 67.6855C178.265 67.9589 178.275 68.2324 178.275 68.5058C178.275 68.8769 178.265 69.1992 178.245 69.4726C178.226 69.7461 178.216 70.0683 178.216 70.4394C178.216 71.1425 178.226 71.7578 178.245 72.2851C178.265 72.8125 178.275 73.3984 178.275 74.0429C178.275 78.125 178.255 80.7324 178.216 81.8652C178.021 81.7089 177.747 81.4941 177.396 81.2207C177.044 80.9277 176.556 80.5371 175.931 80.0488C175.306 79.5605 174.73 79.1015 174.202 78.6718C172.288 77.2265 170.794 76.0546 169.72 75.1562C168.724 74.2968 167.669 73.4179 166.556 72.5195C165.501 71.6601 164.232 70.6543 162.747 69.5019C161.946 68.8769 160.863 68.0468 159.495 67.0117C158.343 66.1328 156.458 64.6386 153.841 62.5293C153.626 62.3925 152.923 61.8652 151.732 60.9472C151.068 60.3418 150.687 60.039 150.589 60.039H148.538C148.265 60.039 146.859 60.0195 144.32 59.9804C141.78 59.9414 140.101 59.9218 139.28 59.9218C137.796 59.9218 136.4 59.9804 135.091 60.0976C134.173 60.0976 133.675 60.1367 133.597 60.2148C133.577 60.2929 133.577 60.4199 133.597 60.5957C133.636 60.791 133.665 61.0058 133.685 61.2402C133.704 61.416 133.714 61.5918 133.714 61.7675V64.8437C133.714 65.0781 133.685 65.5273 133.626 66.1914C133.568 66.7968 133.558 67.3046 133.597 67.7148C133.636 68.8867 133.655 70.166 133.655 71.5527C133.655 71.7089 133.655 71.9238 133.655 72.1972C133.675 72.4707 133.685 72.8613 133.685 73.3691C133.704 73.8769 133.714 74.3359 133.714 74.7461C133.734 76.3476 133.734 77.5879 133.714 78.4668C133.714 79.6386 133.724 80.7617 133.743 81.8359C133.763 83.4375 133.763 84.5605 133.743 85.205C133.704 86.8066 133.685 90.3906 133.685 95.957V98.3007C133.568 98.6718 133.548 98.9257 133.626 99.0625C133.665 99.1015 134.163 99.1211 135.12 99.1211C136.468 99.1211 137.698 99.1308 138.812 99.1504C139.925 99.1699 141.185 99.1796 142.591 99.1796C144.232 99.1015 145.638 99.0625 146.81 99.0625H148.538C149.573 99.0625 150.101 99.0234 150.12 98.9453V91.1523C150.12 90.9765 150.101 89.5605 150.062 86.9043C150.023 84.9121 150.023 83.1836 150.062 81.7187C150.101 80.1171 150.169 78.7011 150.267 77.4707C150.892 78.0761 151.898 78.9355 153.284 80.0488C155.433 81.5918 156.81 82.6464 157.415 83.2129C159.915 85.2832 162.347 87.1972 164.71 88.955C166.273 90.0879 168.968 92.2949 172.796 95.5761C173.206 95.8691 173.89 96.3964 174.847 97.1582C175.804 97.9199 176.488 98.4472 176.898 98.7402C177.152 98.9355 177.679 99.0332 178.48 99.0332C179.378 98.9941 180.433 98.9746 181.644 98.9746C183.304 98.9355 185.325 98.9453 187.708 99.0039C190.306 99.0625 192.122 99.0918 193.157 99.0918Z" fill="#D9D9D9"/>
<path d="M271.653 100.117L271.682 99.9414C268.929 99.9414 265.559 99.9023 261.575 99.8242C260.598 99.8242 259.739 99.8339 258.997 99.8535C258.255 99.873 257.395 99.8828 256.419 99.8828C255.481 99.8828 254.817 99.7265 254.427 99.414C253.47 98.6132 252.815 98.0859 252.464 97.832C251.663 97.2851 249.114 95.2636 244.817 91.7675C243.509 90.7324 242.249 89.7461 241.038 88.8086C239.221 87.4023 238.02 86.455 237.434 85.9668C234.973 83.916 233.606 82.7929 233.333 82.5976C233.274 82.5586 233.128 82.4609 232.893 82.3046C232.679 82.1289 232.434 81.9433 232.161 81.748C231.907 81.5332 231.634 81.3183 231.341 81.1035C230.266 80.2832 229.514 79.6972 229.085 79.3457C229.104 80.7519 229.075 82.8906 228.997 85.7617C228.997 87.1679 229.007 88.4277 229.026 89.541C229.046 90.6543 229.055 91.914 229.055 93.3203V96.8652C229.055 97.4902 229.075 98.0175 229.114 98.4472V99.707C229.016 99.8632 228.372 99.9414 227.18 99.9414C226.458 99.9414 225.813 99.9511 225.247 99.9707C224.68 99.9902 224.065 100 223.401 100C221.096 100.039 218.46 100.059 215.491 100.059H212.005C211.692 100.019 211.487 99.9902 211.389 99.9707C211.292 99.9316 211.165 99.8632 211.009 99.7656C210.833 99.6484 210.745 99.4629 210.745 99.2089C210.745 99.1699 210.764 98.9355 210.804 98.5058C210.843 98.0761 210.862 97.8515 210.862 97.832V93.789C210.862 92.8515 210.852 92.0019 210.833 91.2402C210.813 90.4785 210.804 89.6289 210.804 88.6914C210.804 88.2617 210.833 87.3242 210.891 85.8789C210.95 84.3164 210.97 83.2031 210.95 82.539C210.911 80.9765 210.94 78.6914 211.038 75.6836C211.038 72.2461 210.999 69.8144 210.921 68.3886C210.882 67.998 210.882 67.4218 210.921 66.6601C210.921 66.4648 210.921 66.25 210.921 66.0156C210.94 65.7812 210.95 65.6054 210.95 65.4882C210.97 65.3515 210.979 65.2539 210.979 65.1953V61.8261C210.979 61.7285 210.95 61.5136 210.891 61.1816C210.833 60.8691 210.804 60.5859 210.804 60.332C210.804 60.0976 210.852 59.9023 210.95 59.7461C211.028 59.6093 211.194 59.5214 211.448 59.4824C211.761 59.4433 212.054 59.4238 212.327 59.4238H213.001C214.466 59.3261 216.907 59.2578 220.325 59.2187C221.634 59.2187 222.805 59.2285 223.841 59.248C224.876 59.2675 226.038 59.2773 227.327 59.2773C228.499 59.2773 229.358 59.5019 229.905 59.9511C230.315 60.2441 230.716 60.5371 231.106 60.83C231.887 61.416 232.327 61.748 232.425 61.8261C233.948 63.1152 236.175 64.873 239.104 67.0996C242.151 69.4043 243.909 70.7617 244.378 71.1718C244.866 71.5234 245.745 72.2558 247.014 73.3691C248.245 74.4433 249.261 75.2636 250.061 75.83C250.569 76.1816 251.575 76.9629 253.079 78.1738C254.524 79.3261 255.364 80 255.598 80.1953C255.598 78.5546 255.589 77.0898 255.569 75.8007C255.55 74.5117 255.54 73.0566 255.54 71.4355C255.501 70.4004 255.501 68.9453 255.54 67.0703C255.54 66.6015 255.54 66.0742 255.54 65.4882C255.559 64.8828 255.569 64.414 255.569 64.082C255.589 63.75 255.598 63.4961 255.598 63.3203C255.598 62.9296 255.589 62.5879 255.569 62.2949C255.55 62.0019 255.54 61.6796 255.54 61.3281C255.54 60.4882 255.559 60.0097 255.598 59.8925C255.716 59.6191 256.077 59.4824 256.682 59.4824H258.909C259.124 59.4824 259.427 59.4921 259.817 59.5117C260.208 59.5117 260.755 59.5214 261.458 59.541C262.18 59.541 262.815 59.541 263.362 59.541C265.589 59.5605 267.083 59.5312 267.845 59.4531C268.723 59.3554 270.022 59.2968 271.741 59.2773C272.698 59.2773 273.235 59.3066 273.352 59.3652C273.509 59.4629 273.596 59.6191 273.616 59.8339C273.655 60.6933 273.675 63.6328 273.675 68.6523C273.675 70.2734 273.684 71.7382 273.704 73.0468C273.723 74.3554 273.733 75.83 273.733 77.4707C273.694 80.2441 273.675 83.3496 273.675 86.7871L273.85 94.9023C273.85 95.9765 273.811 97.2558 273.733 98.7402C273.733 99.4629 273.567 99.9023 273.235 100.059C273.04 100.098 272.513 100.117 271.653 100.117ZM271.331 99.0918L271.272 99.2968C272.268 99.2968 272.786 99.2773 272.825 99.2382C272.864 99.1992 272.884 98.5839 272.884 97.3925C272.981 95.9472 273.011 94.8437 272.971 94.082C272.893 92.7539 272.854 90.5273 272.854 87.4023V70C272.854 68.2031 272.845 66.582 272.825 65.1367C272.805 63.6914 272.796 62.041 272.796 60.1855C272.151 60.1855 270.979 60.2148 269.28 60.2734C267.718 60.332 266.409 60.3418 265.354 60.3027C261.038 60.205 258.255 60.1757 257.005 60.2148C256.692 60.2539 256.516 60.2832 256.477 60.3027C256.438 60.3418 256.419 60.5175 256.419 60.83C256.419 61.2207 256.429 61.5722 256.448 61.8847C256.468 62.1972 256.477 62.5488 256.477 62.9394C256.516 63.8574 256.487 65.166 256.389 66.8652C256.389 67.1386 256.399 67.4121 256.419 67.6855C256.438 67.9589 256.448 68.2324 256.448 68.5058C256.448 68.8769 256.438 69.1992 256.419 69.4726C256.399 69.7461 256.389 70.0683 256.389 70.4394C256.389 71.1425 256.399 71.7578 256.419 72.2851C256.438 72.8125 256.448 73.3984 256.448 74.0429C256.448 78.125 256.429 80.7324 256.389 81.8652C256.194 81.7089 255.921 81.4941 255.569 81.2207C255.218 80.9277 254.729 80.5371 254.104 80.0488C253.479 79.5605 252.903 79.1015 252.376 78.6718C250.462 77.2265 248.968 76.0546 247.893 75.1562C246.897 74.2968 245.843 73.4179 244.729 72.5195C243.675 71.6601 242.405 70.6543 240.921 69.5019C240.12 68.8769 239.036 68.0468 237.669 67.0117C236.516 66.1328 234.632 64.6386 232.014 62.5293C231.8 62.3925 231.096 61.8652 229.905 60.9472C229.241 60.3418 228.86 60.039 228.762 60.039H226.712C226.438 60.039 225.032 60.0195 222.493 59.9804C219.954 59.9414 218.274 59.9218 217.454 59.9218C215.97 59.9218 214.573 59.9804 213.264 60.0976C212.346 60.0976 211.848 60.1367 211.77 60.2148C211.751 60.2929 211.751 60.4199 211.77 60.5957C211.809 60.791 211.839 61.0058 211.858 61.2402C211.878 61.416 211.887 61.5918 211.887 61.7675V64.8437C211.887 65.0781 211.858 65.5273 211.8 66.1914C211.741 66.7968 211.731 67.3046 211.77 67.7148C211.809 68.8867 211.829 70.166 211.829 71.5527C211.829 71.7089 211.829 71.9238 211.829 72.1972C211.848 72.4707 211.858 72.8613 211.858 73.3691C211.878 73.8769 211.887 74.3359 211.887 74.7461C211.907 76.3476 211.907 77.5879 211.887 78.4668C211.887 79.6386 211.897 80.7617 211.917 81.8359C211.936 83.4375 211.936 84.5605 211.917 85.205C211.878 86.8066 211.858 90.3906 211.858 95.957V98.3007C211.741 98.6718 211.721 98.9257 211.8 99.0625C211.839 99.1015 212.337 99.1211 213.294 99.1211C214.641 99.1211 215.872 99.1308 216.985 99.1504C218.098 99.1699 219.358 99.1796 220.764 99.1796C222.405 99.1015 223.811 99.0625 224.983 99.0625H226.712C227.747 99.0625 228.274 99.0234 228.294 98.9453V91.1523C228.294 90.9765 228.274 89.5605 228.235 86.9043C228.196 84.9121 228.196 83.1836 228.235 81.7187C228.274 80.1171 228.343 78.7011 228.44 77.4707C229.065 78.0761 230.071 78.9355 231.458 80.0488C233.606 81.5918 234.983 82.6464 235.589 83.2129C238.089 85.2832 240.52 87.1972 242.884 88.955C244.446 90.0879 247.141 92.2949 250.97 95.5761C251.38 95.8691 252.063 96.3964 253.02 97.1582C253.977 97.9199 254.661 98.4472 255.071 98.7402C255.325 98.9355 255.852 99.0332 256.653 99.0332C257.552 98.9941 258.606 98.9746 259.817 98.9746C261.477 98.9355 263.499 98.9453 265.882 99.0039C268.479 99.0625 270.296 99.0918 271.331 99.0918Z" fill="#D9D9D9"/>
<path d="M334.299 100.234L334.182 100.264C332.932 100.264 329.827 100.166 324.866 99.9707C322.444 99.873 319.397 99.9316 315.725 100.146C313.069 100.244 310.403 100.186 307.727 99.9707C306.282 99.9316 303.088 99.9121 298.147 99.9121C296.897 99.9121 295.344 99.873 293.489 99.7949C293.391 99.7949 292.991 99.7754 292.288 99.7363C291.584 99.6972 291.204 99.6777 291.145 99.6777H289.241C289.026 99.58 288.909 99.3359 288.889 98.9453C288.811 98.1054 288.811 97.2461 288.889 96.3671C288.928 95.625 288.948 94.8339 288.948 93.9941V91.6504C289.104 87.4902 289.163 84.3554 289.123 82.2461C289.084 81.5429 289.065 80.7421 289.065 79.8437C289.065 78.9453 289.045 78.125 289.006 77.3828V72.4609C289.123 71.3281 289.182 68.3398 289.182 63.4961C289.143 62.832 289.123 62.0703 289.123 61.2109C289.123 59.9609 289.143 59.2382 289.182 59.0429C289.26 58.8476 289.319 58.7304 289.358 58.6914H291.204C292.629 58.6914 295.413 58.6425 299.553 58.5449C303.694 58.4472 306.506 58.3984 307.991 58.3984C308.362 58.3984 308.704 58.4082 309.016 58.4277C309.329 58.4472 309.68 58.457 310.071 58.457H312.239C313.079 58.5351 314.377 58.5351 316.135 58.457H320.705C322.073 58.4179 323.625 58.3984 325.364 58.3984C325.891 58.3984 327.278 58.4472 329.524 58.5449C331.77 58.6425 333.352 58.6914 334.27 58.6914C336.047 58.6914 337.639 58.7011 339.045 58.7207C340.452 58.7402 342.024 58.75 343.762 58.75C344.133 58.75 344.368 58.8281 344.465 58.9843C344.563 59.1015 344.621 59.2578 344.641 59.4531C344.661 59.5898 344.67 59.8046 344.67 60.0976V60.625C344.788 61.4843 344.846 62.7734 344.846 64.4921V70H343.938L340.774 70.0586C339.192 70.0976 337.961 70.0976 337.082 70.0586C332.375 69.9804 329.416 69.9804 328.205 70.0586C327.815 70.1367 326.477 70.1464 324.192 70.0879C321.965 70.0293 320.627 70 320.178 70C319.67 70 318.909 70.0293 317.893 70.0879C316.877 70.1464 316.116 70.1757 315.608 70.1757C313.987 70.1757 312.493 70.1953 311.125 70.2343C310.422 70.2734 309.641 70.2929 308.782 70.2929H307.288C307.248 70.332 307.229 70.4492 307.229 70.6445V71.0254C307.229 72.1582 307.248 72.8613 307.288 73.1347C307.327 73.291 307.346 73.3984 307.346 73.457C307.385 73.4179 307.463 73.4179 307.58 73.457H308.137C308.567 73.4961 309.065 73.5156 309.631 73.5156C313.811 73.5156 316.946 73.457 319.036 73.3398C320.325 73.2617 323.215 73.2031 327.707 73.164C328.586 73.164 329.377 73.1738 330.08 73.1933C330.784 73.2129 331.545 73.2226 332.366 73.2226C332.522 73.2226 333.225 73.2031 334.475 73.164C335.725 73.125 336.418 73.1054 336.555 73.1054C336.77 73.1054 337.366 73.1543 338.342 73.2519C339.065 73.2519 339.446 73.2714 339.485 73.3105C339.524 73.3496 339.543 73.789 339.543 74.6289C339.543 75.4296 339.563 76.1621 339.602 76.8261V81.748C339.602 82.5097 339.582 83.1836 339.543 83.7695V84.4433C339.504 84.58 339.416 84.6582 339.28 84.6777C339.084 84.7754 338.762 84.8339 338.313 84.8535C338.02 84.873 337.786 84.8828 337.61 84.8828C337.024 84.9218 336.379 84.9414 335.676 84.9414C334.114 84.9414 331.301 84.8925 327.239 84.7949C323.176 84.6972 320.627 84.6484 319.592 84.6484C318.596 84.6484 317.102 84.707 315.11 84.8242C313.118 84.9414 311.623 85 310.627 85H307.082C307.043 85.1171 307.024 85.5273 307.024 86.2304C306.868 87.5195 306.848 88.2226 306.965 88.3398C307.004 88.3789 307.268 88.3984 307.756 88.3984C308.186 88.4375 308.713 88.457 309.338 88.457C314.416 88.457 317.405 88.4375 318.303 88.3984C320.823 88.2812 323.342 88.2226 325.862 88.2226C326.291 88.2226 326.965 88.2519 327.883 88.3105C328.782 88.3691 329.475 88.3984 329.963 88.3984C331.252 88.3593 332.717 88.3398 334.358 88.3398C334.573 88.3398 336.008 88.3203 338.664 88.2812C340.657 88.2421 342.2 88.2421 343.293 88.2812C343.977 88.2812 344.358 88.3203 344.436 88.3984C344.475 88.4375 344.495 88.955 344.495 89.9511C344.495 90.83 344.485 91.6113 344.465 92.2949C344.446 92.9785 344.436 93.7597 344.436 94.6386V99.2968C344.416 99.5117 344.387 99.6386 344.348 99.6777C344.329 99.6972 344.25 99.707 344.114 99.707C343.918 99.7461 343.664 99.7656 343.352 99.7656C343.059 99.7656 342.795 99.7851 342.561 99.8242C341.467 99.9023 340.12 99.9804 338.518 100.059C338.401 100.059 337.952 100.078 337.17 100.117C336.584 100.156 336.057 100.186 335.588 100.205C335.276 100.225 334.846 100.234 334.299 100.234ZM323.664 99.0625V99.2089C324.543 99.2089 326.389 99.2675 329.202 99.3847C331.916 99.5019 334.104 99.5117 335.764 99.414C336.409 99.414 336.995 99.4043 337.522 99.3847C338.303 99.3652 339.006 99.3359 339.631 99.2968C340.256 99.2578 340.842 99.2285 341.389 99.2089C341.838 99.1308 342.19 99.0918 342.444 99.0918C342.561 99.0918 342.698 99.082 342.854 99.0625C343.069 99.0429 343.225 99.0136 343.323 98.9746L343.557 98.916C343.518 98.8769 343.547 98.7988 343.645 98.6816C343.684 98.5254 343.704 98.3789 343.704 98.2421C343.704 97.9882 343.694 97.7929 343.674 97.6562C343.655 97.5195 343.645 97.373 343.645 97.2168V92.2949C343.645 91.9824 343.655 91.7187 343.674 91.5039C343.694 91.289 343.704 91.0254 343.704 90.7129V89.541C343.723 89.3261 343.635 89.2089 343.44 89.1894H337.493C337.493 89.3066 335.598 89.3457 331.809 89.3066L326.038 89.1894C324.67 89.1504 323.088 89.1308 321.291 89.1308C321.213 89.1308 320.422 89.1796 318.918 89.2773C317.571 89.3554 316.536 89.3847 315.813 89.3652H309.28C308.205 89.3652 307.239 89.3457 306.379 89.3066L306.204 89.248C306.086 89.248 306.008 89.2285 305.969 89.1894V88.164C305.969 88.0859 305.989 87.6562 306.028 86.875C306.067 86.0937 306.086 85.6347 306.086 85.498V84.3554C306.204 84.3164 306.379 84.2968 306.614 84.2968C307.375 84.2578 308.489 84.2285 309.954 84.2089C310.93 84.1894 311.907 84.1796 312.883 84.1796C313.723 84.1796 314.983 84.1504 316.663 84.0918C317.288 84.0722 318.02 84.0527 318.86 84.0332C319.719 83.9941 320.246 83.9746 320.442 83.9746C321.282 83.955 322.541 83.955 324.221 83.9746C327.698 84.1308 331.36 84.2089 335.207 84.2089H336.233C336.799 84.2089 337.2 84.1992 337.434 84.1796C337.805 84.1406 338.147 84.082 338.459 84.0039L338.752 83.8867V81.1914C338.791 80.3125 338.791 79.0527 338.752 77.4121C338.752 76.9824 338.743 76.5234 338.723 76.0351C338.723 75.5273 338.713 75.1367 338.694 74.8632C338.694 74.5703 338.694 74.3554 338.694 74.2187C338.459 74.2187 338.079 74.1894 337.551 74.1308C337.024 74.0722 336.614 74.0429 336.321 74.0429C335.246 74.0429 334.28 74.0625 333.42 74.1015C332.776 74.1406 331.34 74.1113 329.114 74.0136H324.133C323.371 74.0136 320.871 74.1015 316.633 74.2773C312.473 74.4531 309.241 74.4629 306.936 74.3066C306.682 74.1894 306.526 74.0722 306.467 73.955C306.409 73.8379 306.379 72.9004 306.379 71.1425C306.379 70.1464 306.418 69.6093 306.496 69.5312C306.536 69.4921 306.77 69.4726 307.2 69.4726C307.532 69.4531 308.049 69.4238 308.752 69.3847C310.354 69.3847 312.288 69.3457 314.553 69.2675C316.819 69.1894 318.743 69.1504 320.325 69.1504C320.891 69.1308 321.711 69.1308 322.786 69.1504C324.231 69.1894 325.051 69.2089 325.246 69.2089L330.637 69.0332C331.028 69.0332 332.825 69.0527 336.028 69.0918C339.231 69.1308 341.038 69.1504 341.448 69.1504H343.821V67.8906C343.821 64.707 343.801 62.666 343.762 61.7675C343.762 60.8105 343.704 60.1953 343.586 59.9218L343.059 59.6289H340.774C340.559 59.6289 339.592 59.6093 337.873 59.5703C336.155 59.5312 335.188 59.5117 334.973 59.5117C334.055 59.5117 332.258 59.4629 329.582 59.3652C326.907 59.2675 325.09 59.2187 324.133 59.2187C319.192 59.2968 315.471 59.3261 312.971 59.3066C308.362 59.2089 305.286 59.2089 303.743 59.3066C300.364 59.4629 296.545 59.5507 292.288 59.5703H290.002V68.916C289.963 70.7519 289.944 74.7949 289.944 81.0449C289.944 82.3535 289.914 84.3164 289.856 86.9336C289.797 89.5507 289.768 91.5136 289.768 92.8222V95.7812C289.612 97.6562 289.641 98.6718 289.856 98.8281H292.493C293.098 98.9062 294.094 98.9453 295.481 98.9453C297.004 98.9843 298.938 99.0039 301.282 99.0039C304.172 99.0039 306.272 99.0429 307.58 99.1211C308.967 99.1992 312.454 99.2382 318.039 99.2382C321.77 99.1211 323.645 99.0625 323.664 99.0625Z" fill="#D9D9D9"/>
<path d="M450.099 100.117L450.129 99.9414C447.375 99.9414 444.005 99.9023 440.021 99.8242C439.045 99.8242 438.185 99.8339 437.443 99.8535C436.701 99.873 435.841 99.8828 434.865 99.8828C433.927 99.8828 433.263 99.7265 432.873 99.414C431.916 98.6132 431.261 98.0859 430.91 97.832C430.109 97.2851 427.56 95.2636 423.263 91.7675C421.955 90.7324 420.695 89.7461 419.484 88.8086C417.668 87.4023 416.466 86.455 415.88 85.9668C413.42 83.916 412.052 82.7929 411.779 82.5976C411.72 82.5586 411.574 82.4609 411.339 82.3046C411.125 82.1289 410.88 81.9433 410.607 81.748C410.353 81.5332 410.08 81.3183 409.787 81.1035C408.712 80.2832 407.961 79.6972 407.531 79.3457C407.55 80.7519 407.521 82.8906 407.443 85.7617C407.443 87.1679 407.453 88.4277 407.472 89.541C407.492 90.6543 407.502 91.914 407.502 93.3203V96.8652C407.502 97.4902 407.521 98.0175 407.56 98.4472V99.707C407.462 99.8632 406.818 99.9414 405.627 99.9414C404.904 99.9414 404.259 99.9511 403.693 99.9707C403.127 99.9902 402.511 100 401.847 100C399.543 100.039 396.906 100.059 393.937 100.059H390.451C390.138 100.019 389.933 99.9902 389.836 99.9707C389.738 99.9316 389.611 99.8632 389.455 99.7656C389.279 99.6484 389.191 99.4629 389.191 99.2089C389.191 99.1699 389.211 98.9355 389.25 98.5058C389.289 98.0761 389.308 97.8515 389.308 97.832V93.789C389.308 92.8515 389.298 92.0019 389.279 91.2402C389.259 90.4785 389.25 89.6289 389.25 88.6914C389.25 88.2617 389.279 87.3242 389.337 85.8789C389.396 84.3164 389.416 83.2031 389.396 82.539C389.357 80.9765 389.386 78.6914 389.484 75.6836C389.484 72.2461 389.445 69.8144 389.367 68.3886C389.328 67.998 389.328 67.4218 389.367 66.6601C389.367 66.4648 389.367 66.25 389.367 66.0156C389.386 65.7812 389.396 65.6054 389.396 65.4882C389.416 65.3515 389.425 65.2539 389.425 65.1953V61.8261C389.425 61.7285 389.396 61.5136 389.337 61.1816C389.279 60.8691 389.25 60.5859 389.25 60.332C389.25 60.0976 389.298 59.9023 389.396 59.7461C389.474 59.6093 389.64 59.5214 389.894 59.4824C390.207 59.4433 390.5 59.4238 390.773 59.4238H391.447C392.912 59.3261 395.353 59.2578 398.771 59.2187C400.08 59.2187 401.252 59.2285 402.287 59.248C403.322 59.2675 404.484 59.2773 405.773 59.2773C406.945 59.2773 407.804 59.5019 408.351 59.9511C408.761 60.2441 409.162 60.5371 409.552 60.83C410.334 61.416 410.773 61.748 410.871 61.8261C412.394 63.1152 414.621 64.873 417.55 67.0996C420.597 69.4043 422.355 70.7617 422.824 71.1718C423.312 71.5234 424.191 72.2558 425.461 73.3691C426.691 74.4433 427.707 75.2636 428.507 75.83C429.015 76.1816 430.021 76.9629 431.525 78.1738C432.97 79.3261 433.81 80 434.045 80.1953C434.045 78.5546 434.035 77.0898 434.015 75.8007C433.996 74.5117 433.986 73.0566 433.986 71.4355C433.947 70.4004 433.947 68.9453 433.986 67.0703C433.986 66.6015 433.986 66.0742 433.986 65.4882C434.005 64.8828 434.015 64.414 434.015 64.082C434.035 63.75 434.045 63.4961 434.045 63.3203C434.045 62.9296 434.035 62.5879 434.015 62.2949C433.996 62.0019 433.986 61.6796 433.986 61.3281C433.986 60.4882 434.005 60.0097 434.045 59.8925C434.162 59.6191 434.523 59.4824 435.129 59.4824H437.355C437.57 59.4824 437.873 59.4921 438.263 59.5117C438.654 59.5117 439.201 59.5214 439.904 59.541C440.627 59.541 441.261 59.541 441.808 59.541C444.035 59.5605 445.529 59.5312 446.291 59.4531C447.17 59.3554 448.468 59.2968 450.187 59.2773C451.144 59.2773 451.681 59.3066 451.798 59.3652C451.955 59.4629 452.043 59.6191 452.062 59.8339C452.101 60.6933 452.121 63.6328 452.121 68.6523C452.121 70.2734 452.13 71.7382 452.15 73.0468C452.17 74.3554 452.179 75.83 452.179 77.4707C452.14 80.2441 452.121 83.3496 452.121 86.7871L452.296 94.9023C452.296 95.9765 452.257 97.2558 452.179 98.7402C452.179 99.4629 452.013 99.9023 451.681 100.059C451.486 100.098 450.959 100.117 450.099 100.117ZM449.777 99.0918L449.718 99.2968C450.714 99.2968 451.232 99.2773 451.271 99.2382C451.31 99.1992 451.33 98.5839 451.33 97.3925C451.427 95.9472 451.457 94.8437 451.418 94.082C451.339 92.7539 451.3 90.5273 451.3 87.4023V70C451.3 68.2031 451.291 66.582 451.271 65.1367C451.252 63.6914 451.242 62.041 451.242 60.1855C450.597 60.1855 449.425 60.2148 447.726 60.2734C446.164 60.332 444.855 60.3418 443.8 60.3027C439.484 60.205 436.701 60.1757 435.451 60.2148C435.138 60.2539 434.962 60.2832 434.923 60.3027C434.884 60.3418 434.865 60.5175 434.865 60.83C434.865 61.2207 434.875 61.5722 434.894 61.8847C434.914 62.1972 434.923 62.5488 434.923 62.9394C434.962 63.8574 434.933 65.166 434.836 66.8652C434.836 67.1386 434.845 67.4121 434.865 67.6855C434.884 67.9589 434.894 68.2324 434.894 68.5058C434.894 68.8769 434.884 69.1992 434.865 69.4726C434.845 69.7461 434.836 70.0683 434.836 70.4394C434.836 71.1425 434.845 71.7578 434.865 72.2851C434.884 72.8125 434.894 73.3984 434.894 74.0429C434.894 78.125 434.875 80.7324 434.836 81.8652C434.64 81.7089 434.367 81.4941 434.015 81.2207C433.664 80.9277 433.175 80.5371 432.55 80.0488C431.925 79.5605 431.349 79.1015 430.822 78.6718C428.908 77.2265 427.414 76.0546 426.339 75.1562C425.343 74.2968 424.289 73.4179 423.175 72.5195C422.121 71.6601 420.851 70.6543 419.367 69.5019C418.566 68.8769 417.482 68.0468 416.115 67.0117C414.962 66.1328 413.078 64.6386 410.461 62.5293C410.246 62.3925 409.543 61.8652 408.351 60.9472C407.687 60.3418 407.306 60.039 407.209 60.039H405.158C404.884 60.039 403.478 60.0195 400.939 59.9804C398.4 59.9414 396.72 59.9218 395.9 59.9218C394.416 59.9218 393.019 59.9804 391.711 60.0976C390.793 60.0976 390.295 60.1367 390.216 60.2148C390.197 60.2929 390.197 60.4199 390.216 60.5957C390.255 60.791 390.285 61.0058 390.304 61.2402C390.324 61.416 390.334 61.5918 390.334 61.7675V64.8437C390.334 65.0781 390.304 65.5273 390.246 66.1914C390.187 66.7968 390.177 67.3046 390.216 67.7148C390.255 68.8867 390.275 70.166 390.275 71.5527C390.275 71.7089 390.275 71.9238 390.275 72.1972C390.295 72.4707 390.304 72.8613 390.304 73.3691C390.324 73.8769 390.334 74.3359 390.334 74.7461C390.353 76.3476 390.353 77.5879 390.334 78.4668C390.334 79.6386 390.343 80.7617 390.363 81.8359C390.382 83.4375 390.382 84.5605 390.363 85.205C390.324 86.8066 390.304 90.3906 390.304 95.957V98.3007C390.187 98.6718 390.168 98.9257 390.246 99.0625C390.285 99.1015 390.783 99.1211 391.74 99.1211C393.087 99.1211 394.318 99.1308 395.431 99.1504C396.545 99.1699 397.804 99.1796 399.211 99.1796C400.851 99.1015 402.257 99.0625 403.429 99.0625H405.158C406.193 99.0625 406.72 99.0234 406.74 98.9453V91.1523C406.74 90.9765 406.72 89.5605 406.681 86.9043C406.642 84.9121 406.642 83.1836 406.681 81.7187C406.72 80.1171 406.789 78.7011 406.886 77.4707C407.511 78.0761 408.517 78.9355 409.904 80.0488C412.052 81.5918 413.429 82.6464 414.035 83.2129C416.535 85.2832 418.966 87.1972 421.33 88.955C422.892 90.0879 425.587 92.2949 429.416 95.5761C429.826 95.8691 430.509 96.3964 431.466 97.1582C432.423 97.9199 433.107 98.4472 433.517 98.7402C433.771 98.9355 434.298 99.0332 435.099 99.0332C435.998 98.9941 437.052 98.9746 438.263 98.9746C439.923 98.9355 441.945 98.9453 444.328 99.0039C446.925 99.0625 448.742 99.0918 449.777 99.0918Z" fill="#D9D9D9"/>
<path d="M495.519 100.234L495.284 100.322C494.874 100.322 493.048 100.303 489.806 100.264C486.564 100.225 484.747 100.205 484.357 100.205C480.001 100.303 476.866 99.9804 474.952 99.2382C473.155 98.5937 471.837 97.8613 470.997 97.041C469.884 95.9472 469.064 94.8242 468.536 93.6718C468.165 92.6953 467.902 91.6699 467.745 90.5957C467.609 89.5214 467.521 88.2421 467.482 86.7578C467.462 85.2929 467.433 84.2382 467.394 83.5937C467.355 82.9296 467.335 82.4121 467.335 82.041C467.335 81.2793 467.345 80.6738 467.364 80.2246C467.404 79.3261 467.423 78.8086 467.423 78.6718C467.423 76.3086 467.462 74.6289 467.54 73.6328C467.657 70.1953 467.989 67.832 468.536 66.5429C468.751 65.9179 469.044 65.3613 469.415 64.873C470.294 63.5839 471.378 62.5 472.667 61.6211C473.546 61.0937 475.021 60.5371 477.091 59.9511C477.814 59.7363 478.634 59.5898 479.552 59.5117C480.47 59.414 481.183 59.3554 481.691 59.3359C482.218 59.3164 483.077 59.3164 484.269 59.3359C485.07 59.3554 485.812 59.3652 486.495 59.3652C488.507 59.3652 490.323 59.375 491.945 59.3945C493.566 59.414 495.382 59.4238 497.394 59.4238C498.78 59.4629 500.46 59.4531 502.433 59.3945C504.601 59.3359 506.027 59.3066 506.71 59.3066C507.96 59.3066 509.064 59.3164 510.021 59.3359C511.407 59.3554 512.706 59.3847 513.917 59.4238C515.167 59.4629 516.271 59.4921 517.228 59.5117C520.743 59.6289 523.79 60.3613 526.368 61.7089C527.657 62.373 528.712 63.4179 529.532 64.8437C530.372 66.2695 530.89 67.7441 531.085 69.2675L531.173 70.7617C531.193 71.2695 531.222 71.8261 531.261 72.4316C531.3 73.2519 531.32 73.7207 531.32 73.8379C531.32 73.916 531.349 74.3066 531.407 75.0097C531.466 75.7129 531.495 76.2402 531.495 76.5918C531.495 80.9082 531.437 84.1894 531.32 86.4355C531.222 88.2324 531.154 89.3066 531.114 89.6582C531.056 90.2441 530.88 91.123 530.587 92.2949C530.294 93.5058 529.845 94.4921 529.239 95.2539C528.087 96.6992 526.945 97.7441 525.812 98.3886C524.405 99.1308 522.745 99.6679 520.831 100C520.48 100.039 518.917 100.117 516.144 100.234C515.46 100.273 514.503 100.273 513.273 100.234L510.812 100.176H500.704C499.767 100.176 498.917 100.186 498.155 100.205C497.394 100.225 496.515 100.234 495.519 100.234ZM485.675 99.3554V99.3847C486.573 99.3847 488.185 99.414 490.509 99.4726C492.618 99.5312 494.405 99.541 495.87 99.5019H505.773C505.987 99.5019 506.798 99.4824 508.204 99.4433C509.611 99.4043 510.392 99.3847 510.548 99.3847C511.544 99.3847 512.433 99.3945 513.214 99.414C513.995 99.4336 514.855 99.4433 515.792 99.4433C518.722 99.3261 520.304 99.2382 520.538 99.1796C522.628 98.6718 524.191 98.1347 525.226 97.5683C527.648 96.2597 529.2 94.0332 529.884 90.8886C529.982 90.4394 530.079 88.9746 530.177 86.4941C530.177 86.3769 530.196 85.791 530.236 84.7363C530.275 83.6816 530.294 83.0761 530.294 82.9199C530.392 81.416 530.392 79.3066 530.294 76.5918C530.196 73.5644 530.148 71.7675 530.148 71.2011C530.148 68.2519 529.122 65.7031 527.071 63.5546C526.31 62.7734 525.089 62.0703 523.409 61.4453C521.808 60.957 520.216 60.6543 518.634 60.5371C516.954 60.4394 514.962 60.3711 512.657 60.332C510.548 60.2929 508.204 60.2929 505.626 60.332C503.907 60.3515 501.915 60.3613 499.65 60.3613C496.72 60.3222 493.468 60.3027 489.894 60.3027C484.015 60.3027 480.704 60.3222 479.962 60.3613C476.427 60.6933 473.741 61.6308 471.905 63.1738C469.757 64.9511 468.575 67.5195 468.361 70.8789C468.263 72.0117 468.204 73.6523 468.185 75.8007C468.165 77.9492 468.136 79.4433 468.097 80.2832C468.097 82.0019 468.116 83.5644 468.155 84.9707C468.175 85.5175 468.204 86.3281 468.243 87.4023C468.263 88.457 468.292 89.248 468.331 89.7754C468.605 93.1543 470.07 95.6738 472.726 97.3339C473.722 97.998 475.079 98.5156 476.798 98.8867C478.419 99.2382 479.767 99.414 480.841 99.414C482.286 99.375 483.898 99.3554 485.675 99.3554ZM500.206 90.039L500.177 90.0976C495.372 90.0976 492.267 90.0781 490.861 90.039C489.005 89.9609 487.716 89.5214 486.993 88.7207C485.9 87.6269 485.304 86.582 485.206 85.5859C485.128 85.4492 485.089 84.7168 485.089 83.3886V81.1035C484.991 79.58 484.991 78.0371 485.089 76.4746C485.187 74.6191 485.46 73.33 485.909 72.6074C486.534 71.6504 487.501 70.9179 488.81 70.4101C489.415 70.2148 490.109 70.0683 490.89 69.9707C491.632 69.8925 492.267 69.8339 492.794 69.7949C493.282 69.7754 494.044 69.7754 495.079 69.7949C495.763 69.8144 496.407 69.8242 497.013 69.8242H501.818C502.052 69.8242 502.784 69.7949 504.015 69.7363C505.265 69.6777 506.007 69.6875 506.241 69.7656C508.273 69.9804 509.591 70.1953 510.196 70.4101C511.505 70.9179 512.501 71.8554 513.185 73.2226C513.341 73.5156 513.448 73.8379 513.507 74.1894C513.566 74.5605 513.595 74.8828 513.595 75.1562C513.595 75.5859 513.585 75.9668 513.566 76.2988C513.546 76.6308 513.536 76.9531 513.536 77.2656V81.8652C513.536 84.0918 513.37 85.6152 513.038 86.4355C512.511 87.7246 511.476 88.7207 509.933 89.4238C509.171 89.7558 507.57 89.9414 505.128 89.9804C504.21 89.9804 503.39 89.9902 502.667 90.0097C501.945 90.0293 501.124 90.039 500.206 90.039ZM492.237 89.1308V89.1601C492.374 89.1601 492.618 89.1699 492.97 89.1894C493.341 89.1894 493.878 89.1992 494.581 89.2187C495.284 89.2187 495.968 89.2187 496.632 89.2187C499.073 89.2578 500.529 89.2578 500.997 89.2187H505.099C506.993 89.2187 508.292 89.1211 508.995 88.9257C510.421 88.5742 511.417 87.8515 511.984 86.7578C512.433 85.9765 512.657 84.7949 512.657 83.2129C512.755 81.2207 512.784 79.7265 512.745 78.7304C512.745 78.1054 512.755 77.4414 512.775 76.7382C512.814 75.6836 512.784 75.0195 512.687 74.7461C512.57 73.6718 511.847 72.6464 510.519 71.6699C510.011 71.2988 508.839 71.0156 507.003 70.8203C506.339 70.7812 503.556 70.7617 498.654 70.7617C494.415 70.7617 491.808 70.83 490.831 70.9668C489.21 71.2011 488.038 71.6601 487.316 72.3437C486.632 72.9882 486.222 74.1406 486.085 75.8007C486.007 76.4648 485.948 78.0761 485.909 80.6347V82.7441C485.909 83.8183 485.958 84.6972 486.056 85.3808C486.075 85.9668 486.3 86.5625 486.73 87.1679C487.14 87.7539 487.599 88.2129 488.107 88.5449C488.732 88.9355 490.109 89.1308 492.237 89.1308Z" fill="#D9D9D9"/>
<path d="M550.255 99.8828L550.343 99.9121C550.206 99.9121 549.649 99.8925 548.673 99.8535C547.696 99.8144 547.159 99.7949 547.061 99.7949C547.1 98.1933 547.12 96.9043 547.12 95.9277C547.12 93.9941 547.11 92.4707 547.091 91.3574C547.071 90.2441 547.061 88.9746 547.061 87.5488L547.003 81.1328C547.003 76.8164 547.022 74.6582 547.061 74.6582C547.1 72.9785 547.1 70.6152 547.061 67.5683C547.061 66.8066 547.052 65.9472 547.032 64.9902C547.032 64.0332 547.022 63.3007 547.003 62.7929C547.003 62.2656 547.003 61.8554 547.003 61.5625C547.003 61.4843 546.973 61.2402 546.915 60.83C546.856 60.4589 546.846 60.1171 546.886 59.8046C546.905 59.5507 546.983 59.3261 547.12 59.1308C547.257 58.8183 547.755 58.6621 548.614 58.6621C548.614 58.623 549.63 58.623 551.661 58.6621H582.042L595.343 58.8379C597.12 58.8574 599.171 59.5214 601.495 60.83C602.882 61.5136 604.288 62.7148 605.714 64.4336C606.807 65.9179 607.52 68.0859 607.852 70.9375C607.989 72.4218 607.96 73.6035 607.764 74.4824C607.511 75.6347 607.1 76.7773 606.534 77.9101C605.382 80.3515 604.102 82.0996 602.696 83.1543C600.977 84.4238 598.956 85.1953 596.632 85.4687C598.038 86.9921 599.141 88.2031 599.942 89.1015C601.466 90.8007 602.647 92.0703 603.487 92.9101C605.147 94.5898 606.407 95.8203 607.266 96.6015C608.595 97.9296 609.444 98.955 609.815 99.6777H588.165C587.559 99.6777 587.198 99.6582 587.081 99.6191C586.983 99.5996 586.807 99.4336 586.554 99.1211C586.495 99.0625 586.436 99.0039 586.378 98.9453C586.339 98.8671 586.3 98.8086 586.261 98.7695C586.241 98.7304 586.221 98.6914 586.202 98.6523L586.173 98.623C585.411 97.7636 584.952 97.2265 584.796 97.0117C584.757 96.9726 584.337 96.4843 583.536 95.5468C583.126 95.0781 582.745 94.6191 582.393 94.1699C581.905 93.6035 581.143 92.6953 580.108 91.4453C579.132 90.2539 578.311 89.3066 577.647 88.6035C577.628 88.5839 577.208 88.0664 576.388 87.0507L575.362 86.0254H565.899C565.509 86.0254 565.284 86.123 565.225 86.3183C565.206 86.6699 565.235 87.4902 565.313 88.7793C565.313 89.8144 565.274 91.1132 565.196 92.6757C565.157 93.3398 565.138 94.0429 565.138 94.7851C565.138 95.5273 565.118 96.2304 565.079 96.8945C565.079 97.2851 565.069 97.6367 565.05 97.9492C565.03 98.4179 565.001 98.7695 564.962 99.0039C564.962 99.3359 564.923 99.5117 564.845 99.5312C564.805 99.5703 564.727 99.5898 564.61 99.5898C564.141 99.6679 562.598 99.707 559.981 99.707C558.907 99.707 557.286 99.7363 555.118 99.7949C552.95 99.8535 551.329 99.8828 550.255 99.8828ZM547.882 98.8867V98.9746C547.96 98.9746 548.067 98.9843 548.204 99.0039C548.36 99.0039 548.575 99.0136 548.848 99.0332C549.141 99.0332 549.395 99.0332 549.61 99.0332C550.489 99.0527 551.163 99.0527 551.632 99.0332H555.968C556.788 99.0332 557.52 99.0234 558.165 99.0039C558.809 98.9843 559.532 98.9746 560.333 98.9746C560.997 98.9355 561.7 98.916 562.442 98.916H563.878C564.014 98.8183 564.102 98.7304 564.141 98.6523C564.22 98.4765 564.259 98.1445 564.259 97.6562V96.8066C564.298 96.0839 564.298 95.3808 564.259 94.6972C564.259 94.2089 564.288 93.4765 564.346 92.5C564.405 91.5234 564.434 90.791 564.434 90.3027V85.8203C564.434 85.5468 564.493 85.3711 564.61 85.2929C564.727 85.2539 565.255 85.2343 566.192 85.2343C567.813 85.2343 569.268 85.2441 570.557 85.2636C571.846 85.2832 573.311 85.2929 574.952 85.2929H575.802C575.958 85.3906 576.221 85.6933 576.593 86.2011C576.612 86.2207 577.462 87.1875 579.141 89.1015C579.415 89.4531 580.108 90.3027 581.221 91.6504C582.081 92.6855 582.862 93.5742 583.565 94.3164C585.264 96.3281 586.143 97.3925 586.202 97.5097C586.3 97.6074 586.466 97.8222 586.7 98.1543C586.973 98.5449 587.227 98.789 587.462 98.8867C587.579 98.9257 588.018 98.9453 588.78 98.9453C592.042 98.8281 595.264 98.8281 598.448 98.9453C599.679 98.9648 601.417 98.9648 603.663 98.9453C604.249 98.9453 604.884 98.9453 605.567 98.9453C606.27 98.9257 606.807 98.916 607.179 98.916C607.569 98.8964 607.862 98.8867 608.057 98.8867C607.315 98.0468 606.173 96.8554 604.63 95.3125C603.028 93.7109 601.827 92.4511 601.026 91.5332C599.874 90.2832 598.868 89.1992 598.009 88.2812C597.149 87.3632 596.143 86.2793 594.991 85.0293C597.784 84.3847 599.366 84.0039 599.737 83.8867C601.651 83.0273 603.165 81.8847 604.278 80.4589C605.294 79.0527 606.134 77.1777 606.798 74.8339C607.188 73.4082 607.149 71.4257 606.68 68.8867C606.466 67.9882 606.114 67.0898 605.626 66.1914C605.391 65.6445 604.776 64.8242 603.78 63.7304C602.706 62.5976 601.124 61.6015 599.034 60.7421C597.608 60.1953 595.587 59.8437 592.97 59.6875C592.11 59.6484 591.427 59.6289 590.919 59.6289C589.884 59.6289 589.063 59.6386 588.458 59.6582C587.852 59.6777 587.149 59.6875 586.348 59.6875C584.923 59.6875 580.548 59.6582 573.223 59.5996C565.763 59.541 561.358 59.5507 560.011 59.6289C556.827 59.6289 554.747 59.6484 553.77 59.6875C552.911 59.6875 552.13 59.6679 551.427 59.6289C551.427 59.6093 551.124 59.6093 550.518 59.6289H549.698C548.702 59.6289 548.145 59.6484 548.028 59.6875C547.872 59.7851 547.784 59.9414 547.764 60.1562C547.725 60.3906 547.725 60.7324 547.764 61.1816L547.823 61.8261V64.2285C547.823 66.6894 547.843 68.916 547.882 70.9082V84.6191C547.882 87.4707 547.901 90.0488 547.94 92.3535C547.96 93.1152 547.96 94.2089 547.94 95.6347C547.901 97.5488 547.882 98.6328 547.882 98.8867ZM570.44 75.6836L567.774 75.6543H566.221C565.343 75.6543 564.845 75.6347 564.727 75.5957C564.649 75.5761 564.561 75.4882 564.464 75.332C564.425 75.0586 564.405 74.6972 564.405 74.248C564.405 73.7011 564.415 73.2031 564.434 72.7539C564.454 72.3046 564.464 71.7968 564.464 71.2304V69.6777C564.561 69.541 564.708 69.4531 564.903 69.414C565.567 69.414 566.153 69.3945 566.661 69.3554H569.239C569.317 69.3554 569.415 69.3554 569.532 69.3554C569.649 69.3359 569.815 69.3261 570.03 69.3261C570.264 69.3066 570.479 69.2968 570.675 69.2968C571.397 69.2773 571.964 69.2773 572.374 69.2968C573.643 69.375 575.841 69.414 578.966 69.414C579.278 69.414 580.216 69.3847 581.778 69.3261C583.36 69.2675 584.298 69.2773 584.591 69.3554C586.856 69.5117 588.145 70.4785 588.458 72.2558C588.575 73.0957 588.341 73.8281 587.755 74.4531C587.169 75.0781 586.436 75.4296 585.557 75.5078C584.796 75.6054 583.663 75.6054 582.159 75.5078H574.278C571.759 75.625 570.479 75.6836 570.44 75.6836ZM565.313 74.7754L565.284 74.7461C565.675 74.7461 567.471 74.7265 570.675 74.6875C573.878 74.6484 575.704 74.6289 576.153 74.6289H582.159C582.179 74.6289 582.54 74.6484 583.243 74.6875C583.946 74.7265 584.386 74.7461 584.561 74.7461C584.874 74.7461 585.255 74.6972 585.704 74.5996C586.134 74.5019 586.475 74.3554 586.729 74.1601C587.335 73.6718 587.579 73.0468 587.462 72.2851C587.345 71.5234 586.944 70.9765 586.261 70.6445C585.538 70.2734 584.034 70.1269 581.749 70.205C581.358 70.2832 579.659 70.2929 576.651 70.2343C573.702 70.1757 572.003 70.1464 571.554 70.1464C570.05 70.1464 568.233 70.1855 566.104 70.2636C565.733 70.2636 565.509 70.2832 565.43 70.3222C565.352 70.3418 565.313 70.5468 565.313 70.9375V74.7754Z" fill="#D9D9D9"/>
<path d="M659.336 99.5898L659.248 99.6191C659.034 99.6191 658.125 99.5996 656.524 99.5605C654.922 99.5214 654.014 99.5019 653.799 99.5019C652.159 99.541 650.323 99.5605 648.291 99.5605C646.963 99.58 645.088 99.58 642.666 99.5605C642.041 99.5605 641.348 99.5605 640.586 99.5605C639.844 99.541 639.258 99.5312 638.828 99.5312C638.418 99.5117 638.106 99.5019 637.891 99.5019H632.793C629.649 99.3847 628.067 99.3164 628.047 99.2968C627.539 99.2968 626.719 99.3457 625.586 99.4433C624.903 99.4433 624.551 99.375 624.532 99.2382C624.512 99.2187 624.483 98.6425 624.444 97.5097C624.366 96.2793 624.327 95.3027 624.327 94.58C624.327 93.2129 624.405 90.0879 624.561 85.205C624.698 80.6347 624.756 77.1093 624.737 74.6289C624.62 68.6132 624.58 65.1074 624.62 64.1113C624.62 63.3691 624.629 62.6074 624.649 61.8261C624.668 60.6543 624.698 59.7461 624.737 59.1015C624.737 58.8476 624.756 58.7011 624.795 58.6621L624.854 58.4863L625.088 58.4277C625.205 58.33 625.557 58.3007 626.143 58.3398C626.534 58.3593 626.914 58.3691 627.286 58.3691C627.52 58.3691 627.862 58.3398 628.311 58.2812C628.741 58.2226 629.082 58.1933 629.336 58.1933H631.68C631.856 58.1933 632.725 58.1738 634.287 58.1347C635.85 58.0957 636.719 58.0761 636.895 58.0761C637.618 58.0761 639.2 58.0273 641.641 57.9296C643.848 57.8515 645.547 57.8222 646.739 57.8418H666.836C671.602 57.8418 674.844 57.9687 676.563 58.2226C679.805 58.6523 682.471 60.1074 684.561 62.5879C685.596 63.916 686.26 65.2539 686.553 66.6015C686.631 66.914 686.778 68.4961 686.993 71.3476C687.207 73.5156 687.393 76.0156 687.549 78.8476C687.588 80.6445 687.588 82.4316 687.549 84.2089C687.452 86.6308 687.354 88.1347 687.256 88.7207C686.905 90.498 686.377 91.875 685.674 92.8515C684.522 94.3359 683.604 95.3808 682.92 95.9863C681.787 97.1191 680.469 97.9589 678.965 98.5058C678.321 98.7597 676.797 99.0136 674.395 99.2675C672.715 99.4824 671.114 99.541 669.59 99.4433C669.102 99.4238 668.223 99.4238 666.953 99.4433C666.114 99.4629 665.235 99.4726 664.317 99.4726C664.121 99.4726 663.282 99.4921 661.797 99.5312C660.313 99.5703 659.493 99.5898 659.336 99.5898ZM655.586 98.6523L655.528 98.623C655.743 98.623 656.446 98.6523 657.637 98.7109C658.868 98.7695 659.6 98.7597 659.834 98.6816C660.498 98.6425 661.963 98.623 664.229 98.623C665.83 98.623 667.256 98.6035 668.506 98.5644C668.682 98.5644 669.317 98.5839 670.411 98.623C671.231 98.6425 671.846 98.6425 672.256 98.623C675.733 98.4863 678.145 98.0468 679.493 97.3046C681.133 96.4257 682.793 94.9414 684.473 92.8515C685.235 91.8359 685.762 90.7031 686.055 89.4531C686.27 88.6718 686.416 87.5 686.495 85.9375C686.651 82.7343 686.651 80.0683 686.495 77.9394C686.358 75.4199 686.221 73.4277 686.084 71.9629C686.084 71.9043 686.075 71.8066 686.055 71.6699C686.055 71.5136 686.045 71.3086 686.026 71.0546C686.026 70.7812 686.026 70.5273 686.026 70.2929C685.987 69.414 685.957 68.7695 685.938 68.3593C685.899 67.9101 685.801 67.3828 685.645 66.7773C685.469 66.1523 685.264 65.5859 685.03 65.0781C683.916 62.8711 682.237 61.2304 679.991 60.1562C678.33 59.375 675.85 58.9355 672.549 58.8379C666.768 58.8183 660.996 58.8183 655.235 58.8379C647.305 58.8379 642.022 58.8964 639.385 59.0136C636.885 59.0527 634.053 59.0722 630.889 59.0722C630.459 59.0722 630.127 59.082 629.893 59.1015C629.541 59.1406 629.161 59.1699 628.75 59.1894C628.203 59.2285 627.881 59.248 627.784 59.248C627.276 59.2871 626.7 59.3066 626.055 59.3066C625.801 59.3457 625.655 59.3847 625.616 59.4238C625.557 59.4824 625.528 59.6093 625.528 59.8046V59.9218C625.489 60.2343 625.469 60.5957 625.469 61.0058C625.489 62.08 625.489 63.6132 625.469 65.6054C625.469 66.0937 625.459 66.6601 625.44 67.3046C625.44 67.9296 625.43 68.4179 625.411 68.7695C625.411 69.1015 625.411 69.3652 625.411 69.5605C625.411 69.9121 625.43 71.3769 625.469 73.955C625.508 76.5332 625.528 77.9882 625.528 78.3203C625.528 79.7265 625.479 82.4121 625.381 86.3769C625.284 90.3418 625.235 93.0078 625.235 94.375C625.235 95.5664 625.274 96.9531 625.352 98.5351C627.227 98.4179 629.571 98.4375 632.383 98.5937C634.571 98.6328 637.051 98.6523 639.825 98.6523H655.586ZM654.151 88.5449L654.18 88.457C652.09 88.457 649.043 88.3398 645.039 88.1054C644.59 88.1054 644.121 88.1152 643.633 88.1347C642.911 88.1543 642.442 88.125 642.227 88.0468C642.012 88.0078 641.895 87.8027 641.875 87.4316V85.3222C641.875 81.8652 641.797 78.5254 641.641 75.3027C641.563 73.9746 641.582 72.2949 641.7 70.2636C641.7 70.0879 641.709 69.8632 641.729 69.5898C641.748 69.1992 641.807 68.955 641.905 68.8574H642.52C643.008 68.8379 643.477 68.8379 643.926 68.8574C645.313 68.8964 647.041 68.8867 649.112 68.8281C651.377 68.7695 652.871 68.7402 653.594 68.7402C656.778 68.8183 659.952 68.8964 663.116 68.9746H664.17C664.834 68.9746 665.264 68.9843 665.459 69.0039C665.811 69.0429 666.162 69.1113 666.514 69.2089C666.944 69.3261 667.266 69.4824 667.481 69.6777C668.321 70.3027 668.975 71.3183 669.444 72.7246C669.659 73.3691 669.805 74.7265 669.883 76.7968C670 79.6875 670.02 81.416 669.942 81.9824C669.707 83.8769 669.248 85.3125 668.565 86.289C667.842 87.2656 666.612 87.8613 664.873 88.0761C663.662 88.291 661.787 88.4082 659.248 88.4277C659.014 88.4277 658.155 88.4472 656.67 88.4863C655.186 88.5254 654.346 88.5449 654.151 88.5449ZM642.784 87.1972L642.696 87.2558C646.114 87.3535 648.516 87.4511 649.903 87.5488C650.86 87.5683 653.682 87.539 658.37 87.4609C659.209 87.4609 659.952 87.4511 660.596 87.4316C661.241 87.4121 661.953 87.4023 662.735 87.4023C664.239 87.4023 665.557 87.1777 666.69 86.7285C668.213 86.0449 668.975 83.9648 668.975 80.4882C668.975 80.3906 668.965 80.2441 668.946 80.0488C668.946 79.8535 668.936 79.58 668.916 79.2285C668.916 78.8769 668.916 78.5644 668.916 78.291C668.877 77.1777 668.877 76.3281 668.916 75.7421C668.916 74.3359 668.682 73.1543 668.213 72.1972C667.647 70.9668 666.924 70.2441 666.045 70.0293C665.323 69.873 663.975 69.7949 662.002 69.7949C659.229 69.6777 656.387 69.6191 653.477 69.6191C653.164 69.6191 651.719 69.6386 649.141 69.6777C646.563 69.7168 645.137 69.7363 644.864 69.7363C644.61 69.7363 644.385 69.7265 644.19 69.707C643.995 69.6875 643.789 69.6777 643.575 69.6777H643.135C642.92 69.6777 642.764 69.7558 642.666 69.9121C642.588 70.1269 642.549 70.9277 642.549 72.3144C642.51 73.6425 642.549 75.0586 642.666 76.5625C642.745 77.4023 642.784 80.9472 642.784 87.1972Z" fill="#D9D9D9"/>
<path d="M709.15 100L705.898 99.8828C704.453 99.8828 703.652 99.8632 703.496 99.8242C703.145 99.6679 702.969 99.2871 702.969 98.6816V96.0449C703.047 93.291 703.047 89.0918 702.969 83.4472V65.3125C702.969 64.1015 702.949 63.0273 702.91 62.0898V59.1308C702.988 58.5644 703.281 58.3007 703.789 58.3398C704.141 58.3007 704.629 58.3007 705.254 58.3398L706.484 58.3984C708.164 58.3984 710.215 58.4375 712.637 58.5156C712.676 58.5156 714.551 58.457 718.262 58.3398C718.301 58.3398 718.35 58.3398 718.408 58.3398C718.467 58.3203 718.555 58.3105 718.672 58.3105C718.789 58.291 718.887 58.2812 718.965 58.2812C719.316 58.2421 719.639 58.2421 719.932 58.2812C720.244 58.3203 720.469 58.3789 720.605 58.457C720.879 58.5742 721.016 59.0332 721.016 59.8339C721.094 61.2402 721.094 63.291 721.016 65.9863C720.938 68.6816 720.908 70.6543 720.928 71.9043C720.967 75.6933 720.986 79.9414 720.986 84.6484V98.1543C720.947 98.3886 720.908 98.623 720.869 98.8574C720.83 99.0722 720.801 99.2285 720.781 99.3261L720.752 99.4726C720.479 99.8242 719.893 99.9609 718.994 99.8828C718.955 99.8828 718.76 99.8632 718.408 99.8242C718.154 99.7851 717.92 99.7851 717.705 99.8242C717.49 99.8242 717.295 99.8339 717.119 99.8535C716.943 99.873 716.738 99.8828 716.504 99.8828C715.566 99.9609 713.115 100 709.15 100ZM703.906 99.0332L711.318 99.0918C712.607 99.0918 714.873 99.0136 718.115 98.8574C718.174 98.8574 718.398 98.8769 718.789 98.916C719.18 98.955 719.385 98.9746 719.404 98.9746C719.717 98.9746 719.932 98.955 720.049 98.916C720.068 98.8964 720.127 98.7793 720.225 98.5644C720.264 98.291 720.283 97.0507 720.283 94.8437V86.8457C720.283 83.955 720.303 81.3183 720.342 78.9355C720.381 78.0566 720.352 76.7773 720.254 75.0976C720.176 73.6132 720.137 72.4121 720.137 71.4941C720.215 68.7793 720.254 66.5234 720.254 64.7265C720.215 64.7265 720.215 64.082 720.254 62.7929V60.83C720.469 59.9511 720.469 59.4043 720.254 59.1894C720.059 58.9746 719.59 58.9746 718.848 59.1894C713.672 59.3066 708.633 59.2871 703.73 59.1308C703.73 59.4238 703.75 60.8007 703.789 63.2617C703.828 65.7226 703.848 67.08 703.848 67.3339C703.848 67.705 703.877 68.9648 703.936 71.1132C703.994 73.2812 703.984 74.541 703.906 74.8925C703.867 76.0644 703.848 78.7011 703.848 82.8027C703.848 87.5488 703.887 90.5078 703.965 91.6796C703.965 91.6992 703.955 91.7968 703.936 91.9726C703.936 92.1289 703.926 92.3925 703.906 92.7636C703.906 93.1152 703.906 93.4961 703.906 93.9062C703.867 95.7812 703.848 96.9043 703.848 97.2754C703.848 98.0175 703.867 98.6035 703.906 99.0332Z" fill="#D9D9D9"/>
<path d="M795.439 100.117L795.468 99.9414C792.714 99.9414 789.345 99.9023 785.361 99.8242C784.384 99.8242 783.525 99.8339 782.783 99.8535C782.041 99.873 781.181 99.8828 780.205 99.8828C779.267 99.8828 778.603 99.7265 778.213 99.414C777.255 98.6132 776.601 98.0859 776.25 97.832C775.449 97.2851 772.9 95.2636 768.603 91.7675C767.295 90.7324 766.035 89.7461 764.824 88.8086C763.007 87.4023 761.806 86.455 761.22 85.9668C758.759 83.916 757.392 82.7929 757.119 82.5976C757.06 82.5586 756.914 82.4609 756.679 82.3046C756.464 82.1289 756.22 81.9433 755.947 81.748C755.693 81.5332 755.42 81.3183 755.127 81.1035C754.052 80.2832 753.3 79.6972 752.871 79.3457C752.89 80.7519 752.861 82.8906 752.783 85.7617C752.783 87.1679 752.793 88.4277 752.812 89.541C752.832 90.6543 752.841 91.914 752.841 93.3203V96.8652C752.841 97.4902 752.861 98.0175 752.9 98.4472V99.707C752.802 99.8632 752.158 99.9414 750.966 99.9414C750.244 99.9414 749.599 99.9511 749.033 99.9707C748.466 99.9902 747.851 100 747.187 100C744.882 100.039 742.246 100.059 739.277 100.059H735.791C735.478 100.019 735.273 99.9902 735.175 99.9707C735.078 99.9316 734.951 99.8632 734.795 99.7656C734.619 99.6484 734.531 99.4629 734.531 99.2089C734.531 99.1699 734.55 98.9355 734.589 98.5058C734.629 98.0761 734.648 97.8515 734.648 97.832V93.789C734.648 92.8515 734.638 92.0019 734.619 91.2402C734.599 90.4785 734.589 89.6289 734.589 88.6914C734.589 88.2617 734.619 87.3242 734.677 85.8789C734.736 84.3164 734.755 83.2031 734.736 82.539C734.697 80.9765 734.726 78.6914 734.824 75.6836C734.824 72.2461 734.785 69.8144 734.707 68.3886C734.668 67.998 734.668 67.4218 734.707 66.6601C734.707 66.4648 734.707 66.25 734.707 66.0156C734.726 65.7812 734.736 65.6054 734.736 65.4882C734.755 65.3515 734.765 65.2539 734.765 65.1953V61.8261C734.765 61.7285 734.736 61.5136 734.677 61.1816C734.619 60.8691 734.589 60.5859 734.589 60.332C734.589 60.0976 734.638 59.9023 734.736 59.7461C734.814 59.6093 734.98 59.5214 735.234 59.4824C735.547 59.4433 735.839 59.4238 736.113 59.4238H736.787C738.252 59.3261 740.693 59.2578 744.111 59.2187C745.42 59.2187 746.591 59.2285 747.627 59.248C748.662 59.2675 749.824 59.2773 751.113 59.2773C752.285 59.2773 753.144 59.5019 753.691 59.9511C754.101 60.2441 754.502 60.5371 754.892 60.83C755.673 61.416 756.113 61.748 756.211 61.8261C757.734 63.1152 759.961 64.873 762.89 67.0996C765.937 69.4043 767.695 70.7617 768.164 71.1718C768.652 71.5234 769.531 72.2558 770.8 73.3691C772.031 74.4433 773.047 75.2636 773.847 75.83C774.355 76.1816 775.361 76.9629 776.865 78.1738C778.31 79.3261 779.15 80 779.384 80.1953C779.384 78.5546 779.375 77.0898 779.355 75.8007C779.336 74.5117 779.326 73.0566 779.326 71.4355C779.287 70.4004 779.287 68.9453 779.326 67.0703C779.326 66.6015 779.326 66.0742 779.326 65.4882C779.345 64.8828 779.355 64.414 779.355 64.082C779.375 63.75 779.384 63.4961 779.384 63.3203C779.384 62.9296 779.375 62.5879 779.355 62.2949C779.336 62.0019 779.326 61.6796 779.326 61.3281C779.326 60.4882 779.345 60.0097 779.384 59.8925C779.502 59.6191 779.863 59.4824 780.468 59.4824H782.695C782.91 59.4824 783.213 59.4921 783.603 59.5117C783.994 59.5117 784.541 59.5214 785.244 59.541C785.966 59.541 786.601 59.541 787.148 59.541C789.375 59.5605 790.869 59.5312 791.63 59.4531C792.509 59.3554 793.808 59.2968 795.527 59.2773C796.484 59.2773 797.021 59.3066 797.138 59.3652C797.295 59.4629 797.382 59.6191 797.402 59.8339C797.441 60.6933 797.461 63.6328 797.461 68.6523C797.461 70.2734 797.47 71.7382 797.49 73.0468C797.509 74.3554 797.519 75.83 797.519 77.4707C797.48 80.2441 797.461 83.3496 797.461 86.7871L797.636 94.9023C797.636 95.9765 797.597 97.2558 797.519 98.7402C797.519 99.4629 797.353 99.9023 797.021 100.059C796.826 100.098 796.298 100.117 795.439 100.117ZM795.117 99.0918L795.058 99.2968C796.054 99.2968 796.572 99.2773 796.611 99.2382C796.65 99.1992 796.67 98.5839 796.67 97.3925C796.767 95.9472 796.797 94.8437 796.757 94.082C796.679 92.7539 796.64 90.5273 796.64 87.4023V70C796.64 68.2031 796.63 66.582 796.611 65.1367C796.591 63.6914 796.582 62.041 796.582 60.1855C795.937 60.1855 794.765 60.2148 793.066 60.2734C791.504 60.332 790.195 60.3418 789.14 60.3027C784.824 60.205 782.041 60.1757 780.791 60.2148C780.478 60.2539 780.302 60.2832 780.263 60.3027C780.224 60.3418 780.205 60.5175 780.205 60.83C780.205 61.2207 780.214 61.5722 780.234 61.8847C780.254 62.1972 780.263 62.5488 780.263 62.9394C780.302 63.8574 780.273 65.166 780.175 66.8652C780.175 67.1386 780.185 67.4121 780.205 67.6855C780.224 67.9589 780.234 68.2324 780.234 68.5058C780.234 68.8769 780.224 69.1992 780.205 69.4726C780.185 69.7461 780.175 70.0683 780.175 70.4394C780.175 71.1425 780.185 71.7578 780.205 72.2851C780.224 72.8125 780.234 73.3984 780.234 74.0429C780.234 78.125 780.214 80.7324 780.175 81.8652C779.98 81.7089 779.707 81.4941 779.355 81.2207C779.004 80.9277 778.515 80.5371 777.89 80.0488C777.265 79.5605 776.689 79.1015 776.162 78.6718C774.248 77.2265 772.754 76.0546 771.679 75.1562C770.683 74.2968 769.629 73.4179 768.515 72.5195C767.461 71.6601 766.191 70.6543 764.707 69.5019C763.906 68.8769 762.822 68.0468 761.455 67.0117C760.302 66.1328 758.418 64.6386 755.8 62.5293C755.586 62.3925 754.882 61.8652 753.691 60.9472C753.027 60.3418 752.646 60.039 752.548 60.039H750.498C750.224 60.039 748.818 60.0195 746.279 59.9804C743.74 59.9414 742.06 59.9218 741.24 59.9218C739.755 59.9218 738.359 59.9804 737.05 60.0976C736.132 60.0976 735.634 60.1367 735.556 60.2148C735.537 60.2929 735.537 60.4199 735.556 60.5957C735.595 60.791 735.625 61.0058 735.644 61.2402C735.664 61.416 735.673 61.5918 735.673 61.7675V64.8437C735.673 65.0781 735.644 65.5273 735.586 66.1914C735.527 66.7968 735.517 67.3046 735.556 67.7148C735.595 68.8867 735.615 70.166 735.615 71.5527C735.615 71.7089 735.615 71.9238 735.615 72.1972C735.634 72.4707 735.644 72.8613 735.644 73.3691C735.664 73.8769 735.673 74.3359 735.673 74.7461C735.693 76.3476 735.693 77.5879 735.673 78.4668C735.673 79.6386 735.683 80.7617 735.703 81.8359C735.722 83.4375 735.722 84.5605 735.703 85.205C735.664 86.8066 735.644 90.3906 735.644 95.957V98.3007C735.527 98.6718 735.507 98.9257 735.586 99.0625C735.625 99.1015 736.123 99.1211 737.08 99.1211C738.427 99.1211 739.658 99.1308 740.771 99.1504C741.884 99.1699 743.144 99.1796 744.55 99.1796C746.191 99.1015 747.597 99.0625 748.769 99.0625H750.498C751.533 99.0625 752.06 99.0234 752.08 98.9453V91.1523C752.08 90.9765 752.06 89.5605 752.021 86.9043C751.982 84.9121 751.982 83.1836 752.021 81.7187C752.06 80.1171 752.129 78.7011 752.226 77.4707C752.851 78.0761 753.857 78.9355 755.244 80.0488C757.392 81.5918 758.769 82.6464 759.375 83.2129C761.875 85.2832 764.306 87.1972 766.67 88.955C768.232 90.0879 770.927 92.2949 774.755 95.5761C775.166 95.8691 775.849 96.3964 776.806 97.1582C777.763 97.9199 778.447 98.4472 778.857 98.7402C779.111 98.9355 779.638 99.0332 780.439 99.0332C781.338 98.9941 782.392 98.9746 783.603 98.9746C785.263 98.9355 787.285 98.9453 789.668 99.0039C792.265 99.0625 794.082 99.0918 795.117 99.0918Z" fill="#D9D9D9"/>
</svg>
