<svg width="64" height="64" viewBox="0 0 64 64" fill="none" xmlns="http://www.w3.org/2000/svg">
<path d="M17.541 52.8652H17.3945C17.3555 52.8652 17.2871 52.875 17.1895 52.8945C17.0918 52.8945 16.9453 52.9043 16.75 52.9238C16.5742 52.9238 16.4082 52.9238 16.252 52.9238C15.6465 52.9434 15.1387 52.9434 14.7285 52.9238C14.3574 52.9043 13.9766 52.8262 13.5859 52.6895C13.332 52.5918 13.1953 52.4453 13.1758 52.25C13.0977 52.0156 13.0391 51.3418 13 50.2285C13 49.4277 13.0488 47.9727 13.1465 45.8633C13.2441 43.7539 13.293 42.5234 13.293 42.1719C13.293 41.7227 13.3516 41.4688 13.4688 41.4102C13.6055 41.332 13.7715 41.2832 13.9668 41.2637C14.2402 41.2246 14.4941 41.2051 14.7285 41.2051H24.4844C26.3398 41.2051 27.6777 41.1367 28.498 41C30.998 40.4922 32.3164 39.1934 32.4531 37.1035C32.5312 36.2441 32.5703 33.3438 32.5703 28.4023V23.6855C32.5703 20.873 32.5312 19.3008 32.4531 18.9688C32.4141 17.7578 32.3945 16.332 32.3945 14.6914C32.4336 14.1055 32.4531 13.4609 32.4531 12.7578V12.3477C32.4531 12.1328 32.4629 11.9863 32.4824 11.9082C32.502 11.8105 32.5605 11.7129 32.6582 11.6152C32.7754 11.498 33.4199 11.4395 34.5918 11.4395C34.8262 11.4004 35.207 11.3711 35.7344 11.3516C36.0859 11.332 36.4668 11.3223 36.877 11.3223C37.6973 11.2832 38.5273 11.2637 39.3672 11.2637H41.8867C47.0039 11.1465 49.8848 11.0586 50.5293 11C50.5684 11.8984 50.5879 12.9238 50.5879 14.0762C50.5879 15.2285 50.6074 16.2539 50.6465 17.1523C50.7637 19.9258 50.8125 22.2988 50.793 24.2715C50.793 32.748 50.7637 37.5234 50.7051 38.5977C50.6074 42.1328 50.4023 44.3301 50.0898 45.1895C49.4453 47.0645 48.166 48.7051 46.252 50.1113C43.3809 52.2012 39.2598 53.0801 33.8887 52.748C33.0488 52.5918 30.3242 52.5723 25.7148 52.6895C21.0664 52.8066 18.3418 52.8652 17.541 52.8652ZM15.4023 51.957L15.4902 52.1035C16.0566 52.1035 18.4297 52.084 22.6094 52.0449C26.7891 52.0059 29.1328 51.9863 29.6406 51.9863C30.9688 51.9863 32.1602 51.9961 33.2148 52.0156C34.2695 52.0352 35.4414 52.0449 36.7305 52.0449C39.25 52.0449 41.3301 51.7031 42.9707 51.0195C45.2168 50.0625 46.8379 48.9199 47.834 47.5918C48.9863 46.1465 49.6016 44.0957 49.6797 41.4395C49.6797 40.541 49.7188 39.457 49.7969 38.1875C49.875 36.918 49.9141 35.8535 49.9141 34.9941C49.9141 31.2051 49.8945 28.7832 49.8555 27.7285C49.8555 26.3223 49.8652 24.9844 49.8848 23.7148C49.9238 21.8008 49.9238 20.4629 49.8848 19.7012C49.7676 17.084 49.709 14.5059 49.709 11.9668C48.3223 12.0059 45.8906 12.0645 42.4141 12.1426C38.8984 12.2402 36.1836 12.3281 34.2695 12.4062H33.3906V13.1094C33.3516 13.6953 33.332 14.3594 33.332 15.1016C33.2539 16.5273 33.2734 17.8262 33.3906 18.998C33.4297 19.8184 33.4492 22.5137 33.4492 27.084L33.5078 31.0391C33.5273 33.6758 33.498 35.0039 33.4199 35.0234C33.4199 35.2773 33.4102 35.5508 33.3906 35.8438C33.3516 36.293 33.3223 36.5859 33.3027 36.7227C33.2832 36.7617 33.2637 36.8691 33.2441 37.0449C33.2246 37.2207 33.2051 37.3672 33.1855 37.4844C33.127 37.8555 33.0684 38.1387 33.0098 38.334C32.9512 38.5293 32.8633 38.7637 32.7461 39.0371C32.6289 39.2715 32.4922 39.5254 32.3359 39.7988C32.1992 40.0137 31.9941 40.2285 31.7207 40.4434C30.5879 41.4785 28.5469 41.9961 25.5977 41.9961C23.293 42.0352 20.7344 42.0547 17.9219 42.0547H15.7832C14.709 42.0547 14.1426 42.0938 14.084 42.1719V44.3398C14.084 44.7109 14.0742 45.0625 14.0547 45.3945C14.0352 45.7266 14.0254 46.0879 14.0254 46.4785C13.9473 47.748 13.9082 48.832 13.9082 49.7305C13.9082 50.8242 13.9277 51.4688 13.9668 51.6641C13.9863 51.8594 14.1328 51.957 14.4062 51.957H15.4023Z" fill="#D9D9D9" stroke="white" stroke-width="2"/>
</svg>
