<svg width="150" height="150" viewBox="0 0 150 150" fill="none" xmlns="http://www.w3.org/2000/svg">
<mask id="path-1-outside-1_16_52" maskUnits="userSpaceOnUse" x="0" y="32" width="75" height="85" fill="black">
<rect fill="white" y="32" width="75" height="85"/>
<path d="M68.3949 61.9233H57.3153C56.8892 59.5559 56.0961 57.4725 54.9361 55.6733C53.776 53.8741 52.3556 52.3471 50.6747 51.0923C48.9938 49.8376 47.1117 48.8906 45.0284 48.2514C42.9688 47.6122 40.7789 47.2926 38.4588 47.2926C34.2685 47.2926 30.5161 48.3461 27.2017 50.4531C23.911 52.5601 21.3068 55.6496 19.3892 59.7216C17.4953 63.7936 16.5483 68.7652 16.5483 74.6364C16.5483 80.5549 17.4953 85.5502 19.3892 89.6222C21.3068 93.6941 23.9228 96.7718 27.2372 98.8551C30.5516 100.938 34.2803 101.98 38.4233 101.98C40.7197 101.98 42.8977 101.672 44.9574 101.057C47.0407 100.418 48.9228 99.4825 50.6037 98.2514C52.2846 97.0204 53.705 95.517 54.8651 93.7415C56.0488 91.9422 56.8655 89.8826 57.3153 87.5625L68.3949 87.598C67.803 91.1728 66.6548 94.4635 64.9503 97.4702C63.2694 100.453 61.1032 103.034 58.4517 105.212C55.8239 107.366 52.8172 109.035 49.4318 110.219C46.0464 111.402 42.3532 111.994 38.3523 111.994C32.0549 111.994 26.4441 110.503 21.5199 107.52C16.5956 104.513 12.7131 100.216 9.87216 94.6293C7.05492 89.0421 5.64631 82.3778 5.64631 74.6364C5.64631 66.8712 7.06676 60.2069 9.90767 54.6435C12.7486 49.0563 16.6312 44.7713 21.5554 41.7884C26.4796 38.7817 32.0786 37.2784 38.3523 37.2784C42.2112 37.2784 45.8097 37.8348 49.1477 38.9474C52.5095 40.0365 55.5279 41.6463 58.2031 43.777C60.8783 45.884 63.0919 48.4645 64.8438 51.5185C66.5956 54.5488 67.7794 58.017 68.3949 61.9233Z"/>
</mask>
<path d="M68.3949 61.9233V66.9233H74.2445L73.3339 61.145L68.3949 61.9233ZM57.3153 61.9233L52.3944 62.8091L53.135 66.9233H57.3153V61.9233ZM50.6747 51.0923L53.6657 47.0856L53.6657 47.0856L50.6747 51.0923ZM45.0284 48.2514L43.5464 53.0267L43.5541 53.0291L43.5618 53.0315L45.0284 48.2514ZM27.2017 50.4531L24.5193 46.2336L24.5124 46.2379L24.5056 46.2423L27.2017 50.4531ZM19.3892 59.7216L14.8657 57.5913L14.8606 57.6021L14.8556 57.6129L19.3892 59.7216ZM19.3892 89.6222L14.8556 91.7308L14.8606 91.7416L14.8657 91.7524L19.3892 89.6222ZM27.2372 98.8551L24.5764 103.088L24.5764 103.088L27.2372 98.8551ZM44.9574 101.057L46.3891 105.847L46.4066 105.842L46.424 105.837L44.9574 101.057ZM50.6037 98.2514L47.6493 94.2176L50.6037 98.2514ZM54.8651 93.7415L50.688 90.9934L50.6836 91.0001L50.6792 91.0067L54.8651 93.7415ZM57.3153 87.5625L57.3314 82.5625L53.1942 82.5493L52.4067 86.6108L57.3153 87.5625ZM68.3949 87.598L73.3277 88.4147L74.2876 82.6169L68.4109 82.598L68.3949 87.598ZM64.9503 97.4702L60.6007 95.0042L60.5943 95.0156L64.9503 97.4702ZM58.4517 105.212L61.6217 109.078L61.6254 109.075L58.4517 105.212ZM49.4318 110.219L51.0821 114.939L51.0821 114.939L49.4318 110.219ZM21.5199 107.52L18.9143 111.787L18.9218 111.792L18.9293 111.796L21.5199 107.52ZM9.87216 94.6293L5.40762 96.8805L5.41141 96.888L5.41523 96.8955L9.87216 94.6293ZM9.90767 54.6435L14.3607 56.9174L14.3646 56.9097L9.90767 54.6435ZM21.5554 41.7884L24.146 46.0649L24.1535 46.0603L24.161 46.0558L21.5554 41.7884ZM49.1477 38.9474L47.5666 43.6909L47.5867 43.6976L47.6068 43.7041L49.1477 38.9474ZM58.2031 43.777L55.0881 47.6881L55.0987 47.6965L55.1094 47.705L58.2031 43.777ZM64.8438 51.5185L60.5067 54.0064L60.5109 54.0137L60.5151 54.021L64.8438 51.5185ZM68.3949 56.9233H57.3153V66.9233H68.3949V56.9233ZM62.2363 61.0375C61.7077 58.1009 60.6975 55.3822 59.1384 52.9639L50.7338 58.3827C51.4947 59.5629 52.0707 61.0108 52.3944 62.8091L62.2363 61.0375ZM59.1384 52.9639C57.662 50.674 55.8344 48.7045 53.6657 47.0856L47.6838 55.0991C48.8768 55.9896 49.8901 57.0741 50.7338 58.3827L59.1384 52.9639ZM53.6657 47.0856C51.5071 45.4742 49.1055 44.2723 46.495 43.4714L43.5618 53.0315C45.118 53.509 46.4806 54.201 47.6838 55.0991L53.6657 47.0856ZM46.5104 43.4761C43.9358 42.6771 41.2433 42.2926 38.4588 42.2926V52.2926C40.3144 52.2926 42.0017 52.5473 43.5464 53.0267L46.5104 43.4761ZM38.4588 42.2926C33.3848 42.2926 28.6898 43.5823 24.5193 46.2336L29.8841 54.6727C32.3424 53.1099 35.1521 52.2926 38.4588 52.2926V42.2926ZM24.5056 46.2423C20.3074 48.9304 17.1222 52.7998 14.8657 57.5913L23.9127 61.8518C25.4914 58.4995 27.5146 56.1899 29.8978 54.6639L24.5056 46.2423ZM14.8556 57.6129C12.5753 62.5156 11.5483 68.2512 11.5483 74.6364H21.5483C21.5483 69.2791 22.4152 65.0715 23.9228 61.8302L14.8556 57.6129ZM11.5483 74.6364C11.5483 81.0622 12.5731 86.8235 14.8556 91.7308L23.9228 87.5135C22.4174 84.2769 21.5483 80.0477 21.5483 74.6364H11.5483ZM14.8657 91.7524C17.1281 96.5564 20.3372 100.424 24.5764 103.088L29.8981 94.6219C27.5085 93.1199 25.4856 90.8319 23.9127 87.4919L14.8657 91.7524ZM24.5764 103.088C28.7351 105.702 33.3963 106.98 38.4233 106.98V96.9801C35.1643 96.9801 32.3681 96.1745 29.8981 94.6219L24.5764 103.088ZM38.4233 106.98C41.1715 106.98 43.8342 106.611 46.3891 105.847L43.5257 96.2662C41.9612 96.7337 40.2679 96.9801 38.4233 96.9801V106.98ZM46.424 105.837C49.0167 105.041 51.406 103.861 53.558 102.285L47.6493 94.2176C46.4396 95.1036 45.0648 95.7938 43.4908 96.2768L46.424 105.837ZM53.558 102.285C55.733 100.692 57.5679 98.7461 59.0509 96.4762L50.6792 91.0067C49.8422 92.288 48.8361 93.3484 47.6493 94.2176L53.558 102.285ZM59.0421 96.4896C60.6181 94.0941 61.662 91.4124 62.2239 88.5142L52.4067 86.6108C52.069 88.3527 51.4795 89.7903 50.688 90.9934L59.0421 96.4896ZM57.2993 92.5625L68.3789 92.598L68.4109 82.598L57.3314 82.5625L57.2993 92.5625ZM63.462 86.7813C62.9615 89.8048 62.0015 92.5332 60.6007 95.0042L69.2999 99.9361C71.3081 96.3938 72.6446 92.5409 73.3277 88.4147L63.462 86.7813ZM60.5943 95.0156C59.2176 97.4586 57.4527 99.5616 55.278 101.348L61.6254 109.075C64.7537 106.506 67.3212 103.448 69.3063 99.9248L60.5943 95.0156ZM55.2817 101.345C53.1313 103.108 50.6453 104.498 47.7815 105.499L51.0821 114.939C54.9892 113.572 58.5165 111.624 61.6217 109.078L55.2817 101.345ZM47.7815 105.499C44.9842 106.477 41.8557 106.994 38.3523 106.994V116.994C42.8507 116.994 47.1086 116.328 51.0821 114.939L47.7815 105.499ZM38.3523 106.994C32.8798 106.994 28.1811 105.709 24.1105 103.243L18.9293 111.796C24.7072 115.296 31.2301 116.994 38.3523 116.994V106.994ZM24.1255 103.252C20.0597 100.77 16.7878 97.1984 14.3291 92.363L5.41523 96.8955C8.63838 103.234 13.1316 108.257 18.9143 111.787L24.1255 103.252ZM14.3367 92.3781C11.9452 87.6352 10.6463 81.7778 10.6463 74.6364H0.646307C0.646307 82.9779 2.16466 90.449 5.40762 96.8805L14.3367 92.3781ZM10.6463 74.6364C10.6463 67.4734 11.9562 61.6262 14.3607 56.9173L5.45464 52.3696C2.17736 58.7876 0.646307 66.269 0.646307 74.6364H10.6463ZM14.3646 56.9097C16.8218 52.0771 20.0894 48.5223 24.146 46.0649L18.9648 37.5118C13.1729 41.0204 8.67532 46.0356 5.45075 52.3772L14.3646 56.9097ZM24.161 46.0558C28.2325 43.5698 32.9148 42.2784 38.3523 42.2784V32.2784C31.2424 32.2784 24.7268 33.9936 18.9498 37.5209L24.161 46.0558ZM38.3523 42.2784C41.7255 42.2784 44.7852 42.7637 47.5666 43.6909L50.7289 34.204C46.8341 32.9058 42.6969 32.2784 38.3523 32.2784V42.2784ZM47.6068 43.7041C50.4167 44.6143 52.8982 45.9439 55.0881 47.6881L61.3182 39.8659C58.1577 37.3487 54.6023 35.4586 50.6886 34.1908L47.6068 43.7041ZM55.1094 47.705C57.2647 49.4025 59.0622 51.4884 60.5067 54.0064L69.1808 49.0305C67.1215 45.4406 64.4919 42.3655 61.2968 39.849L55.1094 47.705ZM60.5151 54.021C61.9219 56.4544 62.9237 59.3245 63.4558 62.7016L73.3339 61.145C72.635 56.7096 71.2694 52.6431 69.1724 49.0159L60.5151 54.021Z" fill="white" mask="url(#path-1-outside-1_16_52)"/>
<path d="M130.732 35.4545H142.545L133.263 91.3722C132.445 96.4091 130.796 100.692 128.316 104.22C125.861 107.749 122.729 110.446 118.92 112.312C115.135 114.153 110.814 115.074 105.957 115.074C101.431 115.074 97.5062 114.268 94.1824 112.658C90.8841 111.021 88.4551 108.669 86.8954 105.601C85.3613 102.507 84.9395 98.7614 85.6298 94.3636H97.1355C96.8287 96.6136 97.0204 98.5312 97.7108 100.116C98.4267 101.702 99.5772 102.916 101.162 103.76C102.748 104.604 104.665 105.026 106.915 105.026C109.472 105.026 111.76 104.476 113.78 103.376C115.8 102.277 117.475 100.679 118.805 98.5824C120.134 96.4858 121.055 93.929 121.566 90.9119L130.732 35.4545Z" fill="white"/>
</svg>
