<svg width="64" height="64" viewBox="0 0 64 64" fill="none" xmlns="http://www.w3.org/2000/svg">
<path d="M7 49.9766C7 48.9609 7.23438 48.0104 7.70312 47.125C8.14583 46.2135 8.77083 45.4323 9.57812 44.7812C10.4115 44.1042 11.388 43.5703 12.5078 43.1797C13.6536 42.7891 14.8906 42.5937 16.2188 42.5937C17.5729 42.5937 18.8099 42.7891 19.9297 43.1797C21.0755 43.5703 22.0521 44.1042 22.8594 44.7812C23.6667 45.4323 24.2917 46.2135 24.7344 47.125C25.1771 48.0104 25.3984 48.9609 25.3984 49.9766C25.3984 51.5911 24.8646 53.0234 23.7969 54.2734C22.7292 55.5234 21.2839 56.4088 19.4609 56.9297C19.9557 57.138 20.5026 57.2943 21.1016 57.3984C21.7266 57.5026 22.3125 57.5547 22.8594 57.5547C23.9271 57.5547 24.8255 57.3594 25.5547 56.9687C26.3099 56.5521 26.9219 56.0052 27.3906 55.3281C27.8594 54.651 28.1979 53.8698 28.4062 52.9844C28.6146 52.0729 28.7188 51.1094 28.7188 50.0937C28.7188 48.8698 28.4323 47.5677 27.8594 46.1875C27.3125 44.8073 26.7005 43.4141 26.0234 42.0078C25.2682 40.4974 24.5781 39.026 23.9531 37.5937C23.3542 36.1354 23.0547 34.7943 23.0547 33.5703V7.04688H16.2188V4H56.8438V7.04688H50.0078V43.0625C50.0078 46.5521 49.5781 49.4427 48.7188 51.7344C47.8854 54 46.6224 55.8099 44.9297 57.1641C43.263 58.5182 41.1667 59.4687 38.6406 60.0156C36.1406 60.5625 33.2109 60.8359 29.8516 60.8359C26.7786 60.8359 23.862 60.5885 21.1016 60.0937C18.3411 59.599 15.9062 58.8828 13.7969 57.9453C11.7135 57.0078 10.0599 55.875 8.83594 54.5469C7.61198 53.1927 7 51.6693 7 49.9766Z" fill="#D9D9D9"/>
</svg>
