<svg width="160" height="160" viewBox="0 0 160 160" fill="none" xmlns="http://www.w3.org/2000/svg">
<mask id="path-1-outside-1_7_6" maskUnits="userSpaceOnUse" x="87" y="42" width="49" height="76" fill="black">
<rect fill="white" x="87" y="42" width="49" height="76"/>
<path d="M121.357 46.0909H131.419V93.5284C131.419 97.8191 130.57 101.489 128.871 104.538C127.194 107.588 124.83 109.918 121.781 111.53C118.732 113.12 115.16 113.915 111.065 113.915C107.297 113.915 103.911 113.229 100.905 111.857C97.9209 110.484 95.5578 108.491 93.8153 105.878C92.0947 103.242 91.2344 100.041 91.2344 96.2727H101.264C101.264 98.1241 101.689 99.7249 102.538 101.075C103.41 102.426 104.597 103.482 106.099 104.244C107.624 104.985 109.366 105.355 111.327 105.355C113.461 105.355 115.269 104.909 116.75 104.016C118.253 103.101 119.396 101.761 120.18 99.9972C120.964 98.233 121.357 96.0767 121.357 93.5284V46.0909Z"/>
</mask>
<path d="M121.357 46.0909V42.0909H117.357V46.0909H121.357ZM131.419 46.0909H135.419V42.0909H131.419V46.0909ZM128.871 104.538L125.376 102.592L125.371 102.601L125.366 102.611L128.871 104.538ZM121.781 111.53L123.631 115.077L123.641 115.071L123.65 115.066L121.781 111.53ZM100.905 111.857L99.2336 115.491L99.2437 115.495L100.905 111.857ZM93.8153 105.878L90.466 108.065L90.4765 108.081L90.4871 108.097L93.8153 105.878ZM91.2344 96.2727V92.2727H87.2344V96.2727H91.2344ZM101.264 96.2727H105.264V92.2727H101.264V96.2727ZM102.538 101.075L99.1525 103.205L99.1647 103.225L99.1772 103.244L102.538 101.075ZM106.099 104.244L104.29 107.812L104.321 107.827L104.352 107.842L106.099 104.244ZM116.75 104.016L118.815 107.441L118.823 107.437L118.83 107.432L116.75 104.016ZM120.18 99.9972L116.525 98.3726L116.525 98.3726L120.18 99.9972ZM121.357 50.0909H131.419V42.0909H121.357V50.0909ZM127.419 46.0909V93.5284H135.419V46.0909H127.419ZM127.419 93.5284C127.419 97.2924 126.676 100.26 125.376 102.592L132.365 106.485C134.463 102.719 135.419 98.3458 135.419 93.5284H127.419ZM125.366 102.611C124.062 104.982 122.264 106.75 119.912 107.993L123.65 115.066C127.397 113.086 130.326 110.193 132.376 106.466L125.366 102.611ZM119.932 107.983C117.553 109.223 114.638 109.915 111.065 109.915V117.915C115.682 117.915 119.911 117.016 123.631 115.077L119.932 107.983ZM111.065 109.915C107.79 109.915 104.982 109.321 102.566 108.218L99.2437 115.495C102.839 117.137 106.805 117.915 111.065 117.915V109.915ZM102.576 108.222C100.233 107.145 98.4561 105.628 97.1435 103.659L90.4871 108.097C92.6594 111.355 95.6092 113.824 99.2336 115.491L102.576 108.222ZM97.1647 103.691C95.9462 101.825 95.2344 99.4193 95.2344 96.2727H87.2344C87.2344 100.662 88.2432 104.66 90.466 108.065L97.1647 103.691ZM91.2344 100.273H101.264V92.2727H91.2344V100.273ZM97.2642 96.2727C97.2642 98.7544 97.8409 101.12 99.1525 103.205L105.924 98.9455C105.537 98.3299 105.264 97.4937 105.264 96.2727H97.2642ZM99.1772 103.244C100.452 105.219 102.187 106.745 104.29 107.812L107.909 100.677C107.006 100.219 106.368 99.6322 105.9 98.9068L99.1772 103.244ZM104.352 107.842C106.5 108.886 108.856 109.355 111.327 109.355V101.355C109.877 101.355 108.748 101.084 107.847 100.646L104.352 107.842ZM111.327 109.355C114.019 109.355 116.58 108.789 118.815 107.441L114.685 100.59C113.958 101.028 112.903 101.355 111.327 101.355V109.355ZM118.83 107.432C121.096 106.053 122.755 104.054 123.836 101.622L116.525 98.3726C116.038 99.4688 115.41 100.148 114.67 100.599L118.83 107.432ZM123.836 101.622C124.907 99.2104 125.357 96.4659 125.357 93.5284H117.357C117.357 95.6875 117.022 97.2555 116.525 98.3726L123.836 101.622ZM125.357 93.5284V46.0909H117.357V93.5284H125.357Z" fill="white" mask="url(#path-1-outside-1_7_6)"/>
<path d="M79.9105 67.9233H69.044C68.9967 65.5559 68.5587 63.4725 67.7301 61.6733C66.9015 59.8504 65.7652 58.3234 64.321 57.0923C62.9006 55.8376 61.2315 54.8906 59.3139 54.2514C57.3963 53.6122 55.3248 53.2926 53.0994 53.2926C48.8144 53.2926 44.7898 54.3816 41.0256 56.5597C37.2614 58.7377 34.0535 61.91 31.402 66.0767C28.7505 70.2434 26.9276 75.3215 25.9332 81.3111C24.9626 87.1349 25.081 92.0237 26.2884 95.9773C27.4957 99.9309 29.5317 102.926 32.3963 104.962C35.2846 106.974 38.7528 107.98 42.8011 107.98C45.1686 107.98 47.4768 107.672 49.7259 107.057C51.9986 106.418 54.1056 105.482 56.0469 104.251C57.9882 103.02 59.7045 101.517 61.196 99.7415C62.7112 97.9422 63.8949 95.8826 64.7472 93.5625H75.7557C74.572 97.161 72.9029 100.452 70.7486 103.435C68.5942 106.418 66.0492 108.998 63.1136 111.176C60.178 113.354 56.9583 115.035 53.4545 116.219C49.9508 117.402 46.2457 117.994 42.3395 117.994C35.9238 117.994 30.455 116.467 25.9332 113.413C21.4351 110.336 18.2036 105.956 16.2386 100.274C14.2973 94.5923 13.9659 87.8215 15.2443 79.9616C16.5464 72.3149 19.0322 65.7571 22.7017 60.2884C26.3949 54.7959 30.893 50.5937 36.196 47.6818C41.5227 44.7462 47.2756 43.2784 53.4545 43.2784C57.3608 43.2784 60.9356 43.8348 64.179 44.9474C67.4224 46.0365 70.2159 47.6463 72.5597 49.777C74.9271 51.884 76.75 54.4645 78.0284 57.5185C79.3068 60.5488 79.9342 64.017 79.9105 67.9233Z" fill="white"/>
</svg>
