<svg width="32" height="32" viewBox="0 0 32 32" fill="none" xmlns="http://www.w3.org/2000/svg">
<g clip-path="url(#clip0_50_58)">
<g clip-path="url(#clip1_50_58)">
<path d="M24.0786 31.9977H7.85178C3.51564 31.9977 0 28.475 0 24.129V7.86974C0 3.52491 3.51564 0.00222778 7.85178 0.00222778H24.0786C28.4147 0.00222778 31.9303 3.52491 31.9303 7.86974V24.129C31.9314 28.475 28.4158 31.9977 24.0786 31.9977Z" fill="black"/>
<path d="M13.2684 13.6193V12.6521C12.9334 12.599 12.5951 12.57 12.256 12.5653C8.97288 12.5587 6.06713 14.6899 5.08099 17.8268C4.09486 20.9637 5.2587 24.3797 7.95274 26.2581C5.12597 23.2267 5.28722 18.473 8.31253 15.6406C9.66059 14.3797 11.4247 13.6602 13.2684 13.6193Z" fill="#25F4EE"/>
<path d="M13.4505 24.571C15.2857 24.5688 16.7939 23.1201 16.8751 21.2824V4.88678H19.8642C19.8031 4.54439 19.7741 4.19702 19.7776 3.84921H15.6893V20.2283C15.6213 22.0749 14.1087 23.5378 12.2647 23.5411C11.7141 23.5367 11.1711 23.4004 10.683 23.1454C10.9995 23.5848 11.4152 23.9429 11.8962 24.1907C12.3771 24.4384 12.9097 24.5687 13.4505 24.571ZM25.4465 10.4494V9.53827C24.3463 9.53827 23.2702 9.21293 22.3542 8.60291C23.1571 9.53901 24.2427 10.1873 25.4465 10.4494Z" fill="#25F4EE"/>
<path d="M22.3553 8.60401C21.4524 7.57414 20.9548 6.24993 20.9557 4.87909H19.8642C20.0048 5.63711 20.2982 6.35842 20.7265 6.9989C21.1548 7.63938 21.7091 8.18556 22.3553 8.60401ZM12.256 16.6628C10.3605 16.6727 8.83136 18.2202 8.84123 20.1195C8.84437 20.743 9.01657 21.3539 9.33943 21.8869C9.66229 22.4198 10.1237 22.8549 10.6742 23.1454C9.5652 21.611 9.90744 19.4655 11.4387 18.3532C12.0238 17.9286 12.7281 17.7004 13.4505 17.7014C13.7938 17.7058 14.135 17.7597 14.463 17.8608V13.6918C14.1284 13.6413 13.7895 13.6149 13.4505 13.6127H13.2684V16.7826C12.9382 16.6924 12.5971 16.6529 12.256 16.6628Z" fill="#FE2C55"/>
<path d="M25.4464 10.4494V13.6193C23.4098 13.6154 21.4261 12.9694 19.7764 11.7728V20.1008C19.7676 24.2566 16.4033 27.621 12.2559 27.621C10.7156 27.6239 9.21238 27.1477 7.95374 26.2581C10.7761 29.2994 15.5247 29.473 18.561 26.645C19.3163 25.9415 19.9188 25.0895 20.3308 24.1422C20.7428 23.195 20.9555 22.1728 20.9556 21.1395V12.8345C22.611 14.0227 24.5969 14.6601 26.6332 14.6569V10.5769C26.234 10.5747 25.8369 10.533 25.4464 10.4494Z" fill="#FE2C55"/>
<path d="M19.7765 20.1019V11.7739C21.4314 12.963 23.4177 13.6005 25.4541 13.5962V10.4264C24.2511 10.1715 23.1632 9.53197 22.3542 8.60401C21.7083 8.18522 21.1543 7.63894 20.726 6.99852C20.2977 6.3581 20.0041 5.63696 19.8631 4.87909H16.874V21.2824C16.7961 23.1806 15.199 24.6556 13.3046 24.5786C12.7864 24.5576 12.2796 24.419 11.8225 24.1735C11.3654 23.9279 10.9697 23.5816 10.6654 23.1608C8.98822 22.276 8.34432 20.1964 9.22735 18.5159C9.51713 17.9641 9.95124 17.5017 10.4832 17.1782C11.0151 16.8546 11.6249 16.6822 12.2472 16.6793C12.5905 16.6826 12.9317 16.7353 13.2596 16.8375V13.6204C9.11985 13.6907 5.8203 17.1585 5.8905 21.3066C5.92226 23.1851 6.65529 24.9835 7.94504 26.3471C9.21605 27.2074 10.7213 27.6531 12.2549 27.6232C16.4034 27.6221 19.7677 24.2577 19.7765 20.1019Z" fill="white"/>
</g>
</g>
<defs>
<clipPath id="clip0_50_58">
<rect width="32" height="32" fill="white"/>
</clipPath>
<clipPath id="clip1_50_58">
<rect width="32" height="32" fill="white"/>
</clipPath>
</defs>
</svg>
